<mxfile host="Electron" modified="2024-03-27T12:58:29.479Z" agent="Mozilla/5.0 (X11; Linux x86_64) AppleWebKit/537.36 (KHTML, like Gecko) draw.io/23.0.2 Chrome/120.0.6099.109 Electron/28.1.0 Safari/537.36" etag="CGSl1mTk6OaFV17uvy0b" version="23.0.2" type="device">
  <diagram id="ZgGV1-kqw9fMqNRYj13-" name="Page-1">
    <mxGraphModel dx="2022" dy="1203" grid="1" gridSize="10" guides="1" tooltips="1" connect="1" arrows="1" fold="1" page="1" pageScale="1" pageWidth="850" pageHeight="1100" math="0" shadow="0">
      <root>
        <mxCell id="0" />
        <mxCell id="1" parent="0" />
        <mxCell id="zmY5JdKIaMc1ror4T7HT-47" value="" style="rounded=0;whiteSpace=wrap;html=1;fillColor=none;dashed=1;" parent="1" vertex="1">
          <mxGeometry x="2640" y="270" width="560" height="60" as="geometry" />
        </mxCell>
        <mxCell id="hSm4koDUXmgNAm0xiuls-177" value="&lt;div style=&quot;font-size: 15px;&quot; align=&quot;center&quot;&gt;Address Space&lt;/div&gt;" style="rounded=1;whiteSpace=wrap;html=1;align=center;verticalAlign=top;fontSize=15;" parent="1" vertex="1">
          <mxGeometry x="900" y="20" width="460" height="90" as="geometry" />
        </mxCell>
        <mxCell id="hSm4koDUXmgNAm0xiuls-195" value="" style="rounded=0;whiteSpace=wrap;html=1;align=center;fillColor=none;strokeColor=none;fontSize=15;" parent="1" vertex="1">
          <mxGeometry x="880" width="500" height="640" as="geometry" />
        </mxCell>
        <mxCell id="BvnVw-4qKByz3GFjecwE-34" value="" style="rounded=0;whiteSpace=wrap;html=1;fontSize=17;verticalAlign=middle;fillColor=none;strokeColor=none;" parent="1" vertex="1">
          <mxGeometry x="1760" y="1160" width="660" height="700" as="geometry" />
        </mxCell>
        <mxCell id="mjU4arz3Nz6LHvhh59oq-58" value="" style="rounded=0;whiteSpace=wrap;html=1;labelBackgroundColor=#ffffff;sketch=1;strokeColor=none;fillStyle=hachure;fillColor=#97D077;fontSize=15;" parent="1" vertex="1">
          <mxGeometry x="630" y="1400" width="40" height="20" as="geometry" />
        </mxCell>
        <mxCell id="mjU4arz3Nz6LHvhh59oq-59" value="" style="rounded=0;whiteSpace=wrap;html=1;labelBackgroundColor=#ffffff;sketch=1;strokeColor=none;fillStyle=hachure;fillColor=#97D077;fontSize=15;" parent="1" vertex="1">
          <mxGeometry x="630" y="1460" width="40" height="20" as="geometry" />
        </mxCell>
        <mxCell id="mjU4arz3Nz6LHvhh59oq-3" value="" style="rounded=0;whiteSpace=wrap;html=1;fillColor=none;fontSize=15;" parent="1" vertex="1">
          <mxGeometry x="590" y="1180" width="140" height="380" as="geometry" />
        </mxCell>
        <mxCell id="mjU4arz3Nz6LHvhh59oq-47" value="" style="rounded=0;whiteSpace=wrap;html=1;labelBackgroundColor=#ffffff;sketch=1;strokeColor=none;fillStyle=hachure;fillColor=#97D077;fontSize=15;" parent="1" vertex="1">
          <mxGeometry x="630" y="1420" width="40" height="20" as="geometry" />
        </mxCell>
        <mxCell id="mjU4arz3Nz6LHvhh59oq-39" value="" style="rounded=0;whiteSpace=wrap;html=1;labelBackgroundColor=#ffffff;sketch=1;strokeColor=none;fillStyle=cross-hatch;fillColor=#99CCFF;fontSize=15;" parent="1" vertex="1">
          <mxGeometry x="670" y="1400" width="40" height="20" as="geometry" />
        </mxCell>
        <mxCell id="mjU4arz3Nz6LHvhh59oq-33" value="" style="rounded=0;whiteSpace=wrap;html=1;labelBackgroundColor=#ffffff;sketch=1;strokeColor=none;fillStyle=cross-hatch;fillColor=#99CCFF;fontSize=15;" parent="1" vertex="1">
          <mxGeometry x="630" y="1200" width="40" height="40" as="geometry" />
        </mxCell>
        <mxCell id="mjU4arz3Nz6LHvhh59oq-34" value="" style="rounded=0;whiteSpace=wrap;html=1;labelBackgroundColor=#ffffff;sketch=1;strokeColor=none;fillStyle=cross-hatch;fillColor=#99CCFF;fontSize=15;" parent="1" vertex="1">
          <mxGeometry x="630" y="1300" width="40" height="40" as="geometry" />
        </mxCell>
        <mxCell id="BvnVw-4qKByz3GFjecwE-88" value="" style="rounded=0;whiteSpace=wrap;html=1;labelBackgroundColor=#ffffff;sketch=1;strokeColor=none;fillStyle=hachure;fontStyle=0;fillColor=#FF9999;fontSize=17;" parent="1" vertex="1">
          <mxGeometry x="1840" y="1400" width="80" height="80" as="geometry" />
        </mxCell>
        <mxCell id="BvnVw-4qKByz3GFjecwE-84" value="" style="rounded=0;whiteSpace=wrap;html=1;labelBackgroundColor=#ffffff;sketch=1;strokeColor=none;fillStyle=hachure;fontStyle=0;fillColor=#FF9999;fontSize=17;" parent="1" vertex="1">
          <mxGeometry x="2280" y="1500" width="80" height="60" as="geometry" />
        </mxCell>
        <mxCell id="BvnVw-4qKByz3GFjecwE-85" value="" style="rounded=0;whiteSpace=wrap;html=1;labelBackgroundColor=#ffffff;sketch=1;strokeColor=none;fillStyle=hachure;fontStyle=0;fillColor=#FF9999;fontSize=17;" parent="1" vertex="1">
          <mxGeometry x="2080" y="1400" width="80" height="80" as="geometry" />
        </mxCell>
        <mxCell id="BvnVw-4qKByz3GFjecwE-86" value="" style="rounded=0;whiteSpace=wrap;html=1;labelBackgroundColor=#ffffff;sketch=1;strokeColor=none;fillStyle=hachure;fontStyle=0;fillColor=#FF9999;fontSize=17;" parent="1" vertex="1">
          <mxGeometry x="1970" y="1400" width="100" height="80" as="geometry" />
        </mxCell>
        <mxCell id="BvnVw-4qKByz3GFjecwE-68" value="" style="rounded=0;whiteSpace=wrap;html=1;fontSize=18;verticalAlign=middle;fillColor=none;strokeColor=none;" parent="1" vertex="1">
          <mxGeometry x="900" y="1800" width="560" height="180" as="geometry" />
        </mxCell>
        <mxCell id="BvnVw-4qKByz3GFjecwE-36" value="A" style="rounded=0;whiteSpace=wrap;html=1;fontSize=18;fillColor=none;verticalAlign=top;dashed=1;" parent="1" vertex="1">
          <mxGeometry x="930" y="1840" width="40" height="80" as="geometry" />
        </mxCell>
        <mxCell id="BvnVw-4qKByz3GFjecwE-37" value="B" style="rounded=0;whiteSpace=wrap;html=1;fontSize=18;fillColor=none;verticalAlign=top;dashed=1;" parent="1" vertex="1">
          <mxGeometry x="990" y="1840" width="40" height="80" as="geometry" />
        </mxCell>
        <mxCell id="BvnVw-4qKByz3GFjecwE-39" value="A" style="rounded=0;whiteSpace=wrap;html=1;fontSize=18;fillColor=none;verticalAlign=top;dashed=1;" parent="1" vertex="1">
          <mxGeometry x="1070" y="1840" width="40" height="80" as="geometry" />
        </mxCell>
        <mxCell id="BvnVw-4qKByz3GFjecwE-42" value="A" style="rounded=0;whiteSpace=wrap;html=1;fontSize=18;fillColor=none;verticalAlign=top;dashed=1;" parent="1" vertex="1">
          <mxGeometry x="1250" y="1840" width="40" height="80" as="geometry" />
        </mxCell>
        <mxCell id="BvnVw-4qKByz3GFjecwE-44" value="&lt;div style=&quot;font-size: 18px;&quot;&gt;B&lt;/div&gt;C&lt;sub style=&quot;font-size: 18px;&quot;&gt;L&lt;/sub&gt;" style="rounded=0;whiteSpace=wrap;html=1;fontSize=18;verticalAlign=middle;" parent="1" vertex="1">
          <mxGeometry x="1400" y="1880" width="40" height="80" as="geometry" />
        </mxCell>
        <mxCell id="hSm4koDUXmgNAm0xiuls-52" value="" style="rounded=0;whiteSpace=wrap;html=1;fillColor=none;fontSize=15;" parent="1" vertex="1">
          <mxGeometry x="40" y="1580" width="140" height="500" as="geometry" />
        </mxCell>
        <mxCell id="hSm4koDUXmgNAm0xiuls-53" value="" style="rounded=0;whiteSpace=wrap;html=1;fillColor=none;fontSize=15;" parent="1" vertex="1">
          <mxGeometry x="180" y="1580" width="120" height="500" as="geometry" />
        </mxCell>
        <mxCell id="hSm4koDUXmgNAm0xiuls-54" value="" style="rounded=0;whiteSpace=wrap;html=1;fillColor=none;fontSize=15;" parent="1" vertex="1">
          <mxGeometry x="300" y="1580" width="120" height="500" as="geometry" />
        </mxCell>
        <mxCell id="hSm4koDUXmgNAm0xiuls-88" value="" style="rounded=0;whiteSpace=wrap;html=1;labelBackgroundColor=#ffffff;sketch=1;strokeColor=none;fillStyle=cross-hatch;fillColor=#99CCFF;fontSize=15;" parent="1" vertex="1">
          <mxGeometry x="200" y="2020" width="40" height="40" as="geometry" />
        </mxCell>
        <mxCell id="hSm4koDUXmgNAm0xiuls-83" value="" style="rounded=0;whiteSpace=wrap;html=1;labelBackgroundColor=#ffffff;sketch=1;strokeColor=none;fillStyle=cross-hatch;fillColor=#99CCFF;fontSize=15;" parent="1" vertex="1">
          <mxGeometry x="200" y="1600" width="40" height="40" as="geometry" />
        </mxCell>
        <mxCell id="hSm4koDUXmgNAm0xiuls-84" value="" style="rounded=0;whiteSpace=wrap;html=1;labelBackgroundColor=#ffffff;sketch=1;strokeColor=none;fillStyle=cross-hatch;fillColor=#99CCFF;fontSize=15;" parent="1" vertex="1">
          <mxGeometry x="200" y="1680" width="40" height="40" as="geometry" />
        </mxCell>
        <mxCell id="hSm4koDUXmgNAm0xiuls-85" value="" style="rounded=0;whiteSpace=wrap;html=1;labelBackgroundColor=#ffffff;sketch=1;strokeColor=none;fillStyle=cross-hatch;fillColor=#99CCFF;fontSize=15;" parent="1" vertex="1">
          <mxGeometry x="240" y="1780" width="40" height="40" as="geometry" />
        </mxCell>
        <mxCell id="hSm4koDUXmgNAm0xiuls-86" value="" style="rounded=0;whiteSpace=wrap;html=1;labelBackgroundColor=#ffffff;sketch=1;strokeColor=none;fillStyle=cross-hatch;fillColor=#99CCFF;fontSize=15;" parent="1" vertex="1">
          <mxGeometry x="240" y="1860" width="40" height="40" as="geometry" />
        </mxCell>
        <mxCell id="hSm4koDUXmgNAm0xiuls-87" value="" style="rounded=0;whiteSpace=wrap;html=1;labelBackgroundColor=#ffffff;sketch=1;strokeColor=none;fillStyle=cross-hatch;fillColor=#99CCFF;fontSize=15;" parent="1" vertex="1">
          <mxGeometry x="240" y="1940" width="40" height="40" as="geometry" />
        </mxCell>
        <mxCell id="hSm4koDUXmgNAm0xiuls-90" value="" style="rounded=0;whiteSpace=wrap;html=1;labelBackgroundColor=#ffffff;sketch=1;strokeColor=none;fillStyle=hachure;fillColor=#97D077;fontSize=15;" parent="1" vertex="1">
          <mxGeometry x="200" y="1780" width="40" height="40" as="geometry" />
        </mxCell>
        <mxCell id="hSm4koDUXmgNAm0xiuls-91" value="" style="rounded=0;whiteSpace=wrap;html=1;labelBackgroundColor=#ffffff;sketch=1;strokeColor=none;fillStyle=hachure;fillColor=#97D077;fontSize=15;" parent="1" vertex="1">
          <mxGeometry x="200" y="1860" width="40" height="40" as="geometry" />
        </mxCell>
        <mxCell id="hSm4koDUXmgNAm0xiuls-92" value="" style="rounded=0;whiteSpace=wrap;html=1;labelBackgroundColor=#ffffff;sketch=1;strokeColor=none;fillStyle=hachure;fillColor=#97D077;fontSize=15;" parent="1" vertex="1">
          <mxGeometry x="200" y="1940" width="40" height="40" as="geometry" />
        </mxCell>
        <mxCell id="sgO2sDlPtiAHOV2v07FV-78" value="" style="rounded=0;whiteSpace=wrap;html=1;labelBackgroundColor=#ffffff;sketch=0;fontFamily=Courier New;fillColor=none;strokeColor=none;fontSize=13;" parent="1" vertex="1">
          <mxGeometry x="60" y="600" width="680" height="340" as="geometry" />
        </mxCell>
        <mxCell id="sgO2sDlPtiAHOV2v07FV-58" value="" style="rounded=0;whiteSpace=wrap;html=1;labelBackgroundColor=#ffffff;sketch=1;strokeColor=none;fillStyle=hachure;fillColor=#97D077;fontSize=13;" parent="1" vertex="1">
          <mxGeometry x="480" y="620" width="40" height="80" as="geometry" />
        </mxCell>
        <mxCell id="sgO2sDlPtiAHOV2v07FV-59" value="" style="rounded=0;whiteSpace=wrap;html=1;labelBackgroundColor=#ffffff;sketch=1;strokeColor=none;fillStyle=hachure;fillColor=#97D077;fontSize=13;" parent="1" vertex="1">
          <mxGeometry x="640" y="620" width="40" height="80" as="geometry" />
        </mxCell>
        <mxCell id="sgO2sDlPtiAHOV2v07FV-46" value="&lt;div style=&quot;font-size: 13px;&quot;&gt;&lt;span style=&quot;background-color: rgb(255, 255, 255); font-size: 13px;&quot;&gt;C&lt;sub style=&quot;font-size: 13px;&quot;&gt;0&lt;/sub&gt;(r)&lt;/span&gt;&lt;/div&gt;" style="rounded=0;whiteSpace=wrap;html=1;sketch=0;fillColor=none;fontSize=13;" parent="1" vertex="1">
          <mxGeometry x="480" y="620" width="40" height="80" as="geometry" />
        </mxCell>
        <mxCell id="sgO2sDlPtiAHOV2v07FV-52" value="&lt;div style=&quot;font-size: 13px;&quot;&gt;&lt;span style=&quot;background-color: rgb(255, 255, 255); font-size: 13px;&quot;&gt;C&lt;sub style=&quot;font-size: 13px;&quot;&gt;0&lt;/sub&gt;(r)&lt;/span&gt;&lt;/div&gt;" style="rounded=0;whiteSpace=wrap;html=1;fillColor=none;fontSize=13;" parent="1" vertex="1">
          <mxGeometry x="640" y="620" width="40" height="80" as="geometry" />
        </mxCell>
        <mxCell id="sgO2sDlPtiAHOV2v07FV-54" value="" style="rounded=0;whiteSpace=wrap;html=1;labelBackgroundColor=#ffffff;sketch=1;strokeColor=none;fillStyle=cross-hatch;fillColor=#99CCFF;fontSize=13;" parent="1" vertex="1">
          <mxGeometry x="680" y="620" width="40" height="80" as="geometry" />
        </mxCell>
        <mxCell id="sgO2sDlPtiAHOV2v07FV-55" value="" style="rounded=0;whiteSpace=wrap;html=1;labelBackgroundColor=#ffffff;sketch=1;strokeColor=none;fillStyle=cross-hatch;fillColor=#99CCFF;fontSize=13;" parent="1" vertex="1">
          <mxGeometry x="520" y="620" width="40" height="80" as="geometry" />
        </mxCell>
        <mxCell id="sgO2sDlPtiAHOV2v07FV-56" value="" style="rounded=0;whiteSpace=wrap;html=1;labelBackgroundColor=#ffffff;sketch=1;strokeColor=none;fillStyle=cross-hatch;fillColor=#99CCFF;fontSize=13;" parent="1" vertex="1">
          <mxGeometry x="340" y="620" width="40" height="80" as="geometry" />
        </mxCell>
        <mxCell id="sgO2sDlPtiAHOV2v07FV-57" value="" style="rounded=0;whiteSpace=wrap;html=1;labelBackgroundColor=#ffffff;sketch=1;strokeColor=none;fillStyle=cross-hatch;fillColor=#99CCFF;fontSize=13;" parent="1" vertex="1">
          <mxGeometry x="180" y="620" width="40" height="80" as="geometry" />
        </mxCell>
        <mxCell id="dhuzZzmLRCIXjbbIye5t-8" value="unmark_one" style="edgeStyle=orthogonalEdgeStyle;rounded=0;orthogonalLoop=1;jettySize=auto;html=1;exitX=0.5;exitY=0;exitDx=0;exitDy=0;entryX=0;entryY=0;entryDx=24;entryDy=24;entryPerimeter=0;" parent="1" source="dhuzZzmLRCIXjbbIye5t-1" target="dhuzZzmLRCIXjbbIye5t-6" edge="1">
          <mxGeometry relative="1" as="geometry" />
        </mxCell>
        <mxCell id="dhuzZzmLRCIXjbbIye5t-15" style="edgeStyle=orthogonalEdgeStyle;rounded=0;orthogonalLoop=1;jettySize=auto;html=1;exitX=0.5;exitY=1;exitDx=0;exitDy=0;entryX=0.5;entryY=0;entryDx=0;entryDy=0;" parent="1" source="dhuzZzmLRCIXjbbIye5t-1" target="dhuzZzmLRCIXjbbIye5t-4" edge="1">
          <mxGeometry relative="1" as="geometry" />
        </mxCell>
        <mxCell id="dhuzZzmLRCIXjbbIye5t-18" value="&lt;div&gt;mark_one&lt;/div&gt;&lt;div&gt;increment #&lt;br&gt;&lt;/div&gt;" style="edgeLabel;html=1;align=center;verticalAlign=middle;resizable=0;points=[];" parent="dhuzZzmLRCIXjbbIye5t-15" vertex="1" connectable="0">
          <mxGeometry x="0.0881" y="-2" relative="1" as="geometry">
            <mxPoint as="offset" />
          </mxGeometry>
        </mxCell>
        <mxCell id="dhuzZzmLRCIXjbbIye5t-20" value="mprotect(w)" style="edgeStyle=none;rounded=0;orthogonalLoop=1;jettySize=auto;html=1;exitX=1;exitY=0;exitDx=0;exitDy=0;entryX=0;entryY=0;entryDx=0;entryDy=0;" parent="1" source="dhuzZzmLRCIXjbbIye5t-1" target="dhuzZzmLRCIXjbbIye5t-3" edge="1">
          <mxGeometry relative="1" as="geometry">
            <Array as="points" />
          </mxGeometry>
        </mxCell>
        <mxCell id="dhuzZzmLRCIXjbbIye5t-1" value="&lt;div&gt;r, !m&lt;/div&gt;&lt;div&gt;old=&lt;span class=&quot;aCOpRe&quot;&gt;&lt;span&gt;Φ&lt;/span&gt;&lt;/span&gt;&lt;/div&gt;&lt;div&gt;&lt;span class=&quot;aCOpRe&quot;&gt;&lt;span&gt;# = 0&lt;br&gt;&lt;/span&gt;&lt;/span&gt; &lt;/div&gt;" style="ellipse;whiteSpace=wrap;html=1;aspect=fixed;" parent="1" vertex="1">
          <mxGeometry x="240" y="200" width="80" height="80" as="geometry" />
        </mxCell>
        <mxCell id="dhuzZzmLRCIXjbbIye5t-14" style="rounded=0;orthogonalLoop=1;jettySize=auto;html=1;exitX=0.5;exitY=1;exitDx=0;exitDy=0;" parent="1" source="dhuzZzmLRCIXjbbIye5t-2" target="dhuzZzmLRCIXjbbIye5t-4" edge="1">
          <mxGeometry relative="1" as="geometry" />
        </mxCell>
        <mxCell id="dhuzZzmLRCIXjbbIye5t-17" value="&lt;div&gt;mark_one&lt;/div&gt;&lt;div&gt;increment #&lt;br&gt;&lt;/div&gt;" style="edgeLabel;html=1;align=center;verticalAlign=middle;resizable=0;points=[];" parent="dhuzZzmLRCIXjbbIye5t-14" vertex="1" connectable="0">
          <mxGeometry x="0.1562" y="1" relative="1" as="geometry">
            <mxPoint x="5.26" y="-16.67" as="offset" />
          </mxGeometry>
        </mxCell>
        <mxCell id="dhuzZzmLRCIXjbbIye5t-25" value="mprotect(r)" style="edgeStyle=none;rounded=0;orthogonalLoop=1;jettySize=auto;html=1;exitX=1;exitY=0.5;exitDx=0;exitDy=0;entryX=0;entryY=0.5;entryDx=0;entryDy=0;" parent="1" source="dhuzZzmLRCIXjbbIye5t-2" target="dhuzZzmLRCIXjbbIye5t-1" edge="1">
          <mxGeometry relative="1" as="geometry" />
        </mxCell>
        <mxCell id="dhuzZzmLRCIXjbbIye5t-2" value="r(cow), !m&lt;div&gt;old=&lt;span class=&quot;aCOpRe&quot;&gt;&lt;span&gt;Φ&lt;/span&gt;&lt;/span&gt;&lt;/div&gt;&lt;div&gt;&lt;span class=&quot;aCOpRe&quot;&gt;&lt;span&gt;# = 0&lt;br&gt;&lt;/span&gt;&lt;/span&gt; &lt;/div&gt;" style="ellipse;whiteSpace=wrap;html=1;aspect=fixed;" parent="1" vertex="1">
          <mxGeometry x="80" y="200" width="80" height="80" as="geometry" />
        </mxCell>
        <mxCell id="dhuzZzmLRCIXjbbIye5t-16" value="&lt;div&gt;mark_one&lt;/div&gt;&lt;div&gt;increment #&lt;br&gt;&lt;/div&gt;" style="edgeStyle=none;rounded=0;orthogonalLoop=1;jettySize=auto;html=1;exitX=0.5;exitY=1;exitDx=0;exitDy=0;entryX=0.5;entryY=0;entryDx=0;entryDy=0;" parent="1" source="dhuzZzmLRCIXjbbIye5t-3" target="dhuzZzmLRCIXjbbIye5t-5" edge="1">
          <mxGeometry relative="1" as="geometry" />
        </mxCell>
        <mxCell id="dhuzZzmLRCIXjbbIye5t-24" value="mprotect(r)" style="edgeStyle=none;rounded=0;orthogonalLoop=1;jettySize=auto;html=1;exitX=0;exitY=0.5;exitDx=0;exitDy=0;entryX=1;entryY=0.5;entryDx=0;entryDy=0;" parent="1" source="dhuzZzmLRCIXjbbIye5t-3" target="dhuzZzmLRCIXjbbIye5t-1" edge="1">
          <mxGeometry relative="1" as="geometry" />
        </mxCell>
        <mxCell id="dhuzZzmLRCIXjbbIye5t-3" value="w, !m&lt;div&gt;old=&lt;span class=&quot;aCOpRe&quot;&gt;&lt;span&gt;Φ&lt;/span&gt;&lt;/span&gt;&lt;/div&gt;&lt;div&gt;&lt;span class=&quot;aCOpRe&quot;&gt;&lt;span&gt;# = 0&lt;br&gt;&lt;/span&gt;&lt;/span&gt; &lt;/div&gt;" style="ellipse;whiteSpace=wrap;html=1;aspect=fixed;" parent="1" vertex="1">
          <mxGeometry x="520" y="200" width="80" height="80" as="geometry" />
        </mxCell>
        <mxCell id="dhuzZzmLRCIXjbbIye5t-30" style="rounded=0;orthogonalLoop=1;jettySize=auto;html=1;exitX=1;exitY=0;exitDx=0;exitDy=0;entryX=0;entryY=1;entryDx=0;entryDy=0;" parent="1" source="dhuzZzmLRCIXjbbIye5t-4" target="dhuzZzmLRCIXjbbIye5t-29" edge="1">
          <mxGeometry relative="1" as="geometry" />
        </mxCell>
        <mxCell id="dhuzZzmLRCIXjbbIye5t-32" value="&lt;div&gt;unmark_one&lt;/div&gt;&lt;div&gt;dec #&lt;br&gt;&lt;/div&gt;" style="edgeLabel;html=1;align=center;verticalAlign=middle;resizable=0;points=[];" parent="dhuzZzmLRCIXjbbIye5t-30" vertex="1" connectable="0">
          <mxGeometry x="0.2634" y="-1" relative="1" as="geometry">
            <mxPoint x="-10.32" y="-1.56" as="offset" />
          </mxGeometry>
        </mxCell>
        <mxCell id="dhuzZzmLRCIXjbbIye5t-43" value="mprotect(w)" style="edgeStyle=none;rounded=0;orthogonalLoop=1;jettySize=auto;html=1;exitX=1;exitY=1;exitDx=0;exitDy=0;" parent="1" source="dhuzZzmLRCIXjbbIye5t-4" target="dhuzZzmLRCIXjbbIye5t-44" edge="1">
          <mxGeometry relative="1" as="geometry">
            <mxPoint x="360" y="500" as="targetPoint" />
          </mxGeometry>
        </mxCell>
        <mxCell id="dhuzZzmLRCIXjbbIye5t-4" value="&lt;div&gt;r, m&lt;/div&gt;&lt;div&gt;old=&lt;span class=&quot;aCOpRe&quot;&gt;&lt;span&gt;r&lt;/span&gt;&lt;/span&gt;&lt;/div&gt;&lt;div&gt;&lt;span class=&quot;aCOpRe&quot;&gt;&lt;span&gt;# &amp;gt; 0&lt;br&gt;&lt;/span&gt;&lt;/span&gt; &lt;/div&gt;" style="ellipse;whiteSpace=wrap;html=1;aspect=fixed;" parent="1" vertex="1">
          <mxGeometry x="240" y="400" width="80" height="80" as="geometry" />
        </mxCell>
        <mxCell id="dhuzZzmLRCIXjbbIye5t-31" value="&lt;div&gt;unmark_one&lt;/div&gt;&lt;div&gt;dec #&lt;br&gt;&lt;/div&gt;" style="rounded=0;orthogonalLoop=1;jettySize=auto;html=1;exitX=0;exitY=0;exitDx=0;exitDy=0;entryX=1;entryY=1;entryDx=0;entryDy=0;" parent="1" source="dhuzZzmLRCIXjbbIye5t-5" target="dhuzZzmLRCIXjbbIye5t-29" edge="1">
          <mxGeometry relative="1" as="geometry" />
        </mxCell>
        <mxCell id="dhuzZzmLRCIXjbbIye5t-45" value="mprotect(r)" style="edgeStyle=none;rounded=0;orthogonalLoop=1;jettySize=auto;html=1;exitX=0;exitY=1;exitDx=0;exitDy=0;entryX=1;entryY=0;entryDx=0;entryDy=0;" parent="1" source="dhuzZzmLRCIXjbbIye5t-5" target="dhuzZzmLRCIXjbbIye5t-44" edge="1">
          <mxGeometry relative="1" as="geometry" />
        </mxCell>
        <mxCell id="dhuzZzmLRCIXjbbIye5t-5" value="&lt;div&gt;r, m&lt;/div&gt;&lt;div&gt;old=&lt;span class=&quot;aCOpRe&quot;&gt;&lt;span&gt;w&lt;/span&gt;&lt;/span&gt;&lt;/div&gt;&lt;div&gt;&lt;span class=&quot;aCOpRe&quot;&gt;&lt;span&gt;# &amp;gt; 0&lt;br&gt;&lt;/span&gt;&lt;/span&gt; &lt;/div&gt;" style="ellipse;whiteSpace=wrap;html=1;aspect=fixed;" parent="1" vertex="1">
          <mxGeometry x="520" y="400" width="80" height="80" as="geometry" />
        </mxCell>
        <mxCell id="dhuzZzmLRCIXjbbIye5t-6" value="" style="shape=cross;whiteSpace=wrap;html=1;rotation=45;" parent="1" vertex="1">
          <mxGeometry x="260" y="110" width="40" height="40" as="geometry" />
        </mxCell>
        <mxCell id="dhuzZzmLRCIXjbbIye5t-9" value="unmark_one" style="edgeStyle=orthogonalEdgeStyle;rounded=0;orthogonalLoop=1;jettySize=auto;html=1;exitX=0.5;exitY=0;exitDx=0;exitDy=0;entryX=0;entryY=0;entryDx=24;entryDy=24;entryPerimeter=0;" parent="1" source="dhuzZzmLRCIXjbbIye5t-2" target="dhuzZzmLRCIXjbbIye5t-10" edge="1">
          <mxGeometry relative="1" as="geometry">
            <mxPoint x="120" y="200" as="sourcePoint" />
          </mxGeometry>
        </mxCell>
        <mxCell id="dhuzZzmLRCIXjbbIye5t-10" value="" style="shape=cross;whiteSpace=wrap;html=1;rotation=45;" parent="1" vertex="1">
          <mxGeometry x="100" y="110" width="40" height="40" as="geometry" />
        </mxCell>
        <mxCell id="dhuzZzmLRCIXjbbIye5t-11" value="unmark_one" style="edgeStyle=orthogonalEdgeStyle;rounded=0;orthogonalLoop=1;jettySize=auto;html=1;exitX=0.5;exitY=0;exitDx=0;exitDy=0;entryX=0;entryY=0;entryDx=24;entryDy=24;entryPerimeter=0;" parent="1" source="dhuzZzmLRCIXjbbIye5t-3" target="dhuzZzmLRCIXjbbIye5t-12" edge="1">
          <mxGeometry relative="1" as="geometry">
            <mxPoint x="560" y="200" as="sourcePoint" />
          </mxGeometry>
        </mxCell>
        <mxCell id="dhuzZzmLRCIXjbbIye5t-12" value="" style="shape=cross;whiteSpace=wrap;html=1;rotation=45;" parent="1" vertex="1">
          <mxGeometry x="540" y="110" width="40" height="40" as="geometry" />
        </mxCell>
        <mxCell id="dhuzZzmLRCIXjbbIye5t-27" value="&lt;div&gt;mark_one&lt;/div&gt;&lt;div&gt;increment #&lt;br&gt;&lt;/div&gt;" style="edgeStyle=orthogonalEdgeStyle;rounded=0;orthogonalLoop=1;jettySize=auto;html=1;exitX=0;exitY=1;exitDx=0;exitDy=0;entryX=0.5;entryY=1;entryDx=0;entryDy=0;curved=1;" parent="1" source="dhuzZzmLRCIXjbbIye5t-4" target="dhuzZzmLRCIXjbbIye5t-4" edge="1">
          <mxGeometry relative="1" as="geometry">
            <Array as="points">
              <mxPoint x="252" y="520" />
              <mxPoint x="280" y="520" />
            </Array>
          </mxGeometry>
        </mxCell>
        <mxCell id="dhuzZzmLRCIXjbbIye5t-28" value="mprotect(r)" style="edgeStyle=orthogonalEdgeStyle;curved=1;rounded=0;orthogonalLoop=1;jettySize=auto;html=1;exitX=0;exitY=0.5;exitDx=0;exitDy=0;entryX=0;entryY=1;entryDx=0;entryDy=0;" parent="1" source="dhuzZzmLRCIXjbbIye5t-4" target="dhuzZzmLRCIXjbbIye5t-4" edge="1">
          <mxGeometry relative="1" as="geometry">
            <Array as="points">
              <mxPoint x="200" y="440" />
              <mxPoint x="200" y="468" />
            </Array>
          </mxGeometry>
        </mxCell>
        <mxCell id="dhuzZzmLRCIXjbbIye5t-33" value="Y" style="edgeStyle=none;rounded=0;orthogonalLoop=1;jettySize=auto;html=1;exitX=0.5;exitY=1;exitDx=0;exitDy=0;entryX=0.5;entryY=0;entryDx=0;entryDy=0;" parent="1" source="dhuzZzmLRCIXjbbIye5t-29" target="dhuzZzmLRCIXjbbIye5t-35" edge="1">
          <mxGeometry relative="1" as="geometry">
            <mxPoint x="419.8571428571429" y="440" as="targetPoint" />
          </mxGeometry>
        </mxCell>
        <mxCell id="dhuzZzmLRCIXjbbIye5t-39" value="N" style="edgeStyle=none;rounded=0;orthogonalLoop=1;jettySize=auto;html=1;exitX=0.5;exitY=0;exitDx=0;exitDy=0;entryX=0.5;entryY=1;entryDx=0;entryDy=0;" parent="1" source="dhuzZzmLRCIXjbbIye5t-29" target="dhuzZzmLRCIXjbbIye5t-38" edge="1">
          <mxGeometry relative="1" as="geometry" />
        </mxCell>
        <mxCell id="dhuzZzmLRCIXjbbIye5t-29" value="#&amp;gt;0?" style="ellipse;whiteSpace=wrap;html=1;" parent="1" vertex="1">
          <mxGeometry x="400" y="340" width="40" height="40" as="geometry" />
        </mxCell>
        <mxCell id="dhuzZzmLRCIXjbbIye5t-36" value="r" style="edgeStyle=none;rounded=0;orthogonalLoop=1;jettySize=auto;html=1;exitX=0;exitY=0.5;exitDx=0;exitDy=0;entryX=1;entryY=0.5;entryDx=0;entryDy=0;" parent="1" source="dhuzZzmLRCIXjbbIye5t-35" target="dhuzZzmLRCIXjbbIye5t-4" edge="1">
          <mxGeometry relative="1" as="geometry" />
        </mxCell>
        <mxCell id="dhuzZzmLRCIXjbbIye5t-37" value="w" style="edgeStyle=none;rounded=0;orthogonalLoop=1;jettySize=auto;html=1;exitX=1;exitY=0.5;exitDx=0;exitDy=0;entryX=0;entryY=0.5;entryDx=0;entryDy=0;" parent="1" source="dhuzZzmLRCIXjbbIye5t-35" target="dhuzZzmLRCIXjbbIye5t-5" edge="1">
          <mxGeometry relative="1" as="geometry" />
        </mxCell>
        <mxCell id="dhuzZzmLRCIXjbbIye5t-35" value="old=?" style="ellipse;whiteSpace=wrap;html=1;" parent="1" vertex="1">
          <mxGeometry x="400" y="420" width="40" height="40" as="geometry" />
        </mxCell>
        <mxCell id="dhuzZzmLRCIXjbbIye5t-40" value="w" style="edgeStyle=none;rounded=0;orthogonalLoop=1;jettySize=auto;html=1;exitX=1;exitY=0.5;exitDx=0;exitDy=0;entryX=0;entryY=1;entryDx=0;entryDy=0;" parent="1" source="dhuzZzmLRCIXjbbIye5t-38" target="dhuzZzmLRCIXjbbIye5t-3" edge="1">
          <mxGeometry relative="1" as="geometry" />
        </mxCell>
        <mxCell id="dhuzZzmLRCIXjbbIye5t-42" value="r" style="edgeStyle=none;rounded=0;orthogonalLoop=1;jettySize=auto;html=1;exitX=0;exitY=0.5;exitDx=0;exitDy=0;entryX=1;entryY=1;entryDx=0;entryDy=0;" parent="1" source="dhuzZzmLRCIXjbbIye5t-38" target="dhuzZzmLRCIXjbbIye5t-1" edge="1">
          <mxGeometry relative="1" as="geometry" />
        </mxCell>
        <mxCell id="dhuzZzmLRCIXjbbIye5t-38" value="old=?" style="ellipse;whiteSpace=wrap;html=1;" parent="1" vertex="1">
          <mxGeometry x="400" y="260" width="40" height="40" as="geometry" />
        </mxCell>
        <mxCell id="dhuzZzmLRCIXjbbIye5t-44" value="wait" style="ellipse;whiteSpace=wrap;html=1;" parent="1" vertex="1">
          <mxGeometry x="400" y="520" width="80" height="40" as="geometry" />
        </mxCell>
        <mxCell id="sgO2sDlPtiAHOV2v07FV-21" value="" style="edgeStyle=orthogonalEdgeStyle;rounded=0;orthogonalLoop=1;jettySize=auto;html=1;exitX=1;exitY=0.5;exitDx=0;exitDy=0;fontSize=13;" parent="1" source="sgO2sDlPtiAHOV2v07FV-17" target="sgO2sDlPtiAHOV2v07FV-18" edge="1">
          <mxGeometry relative="1" as="geometry">
            <mxPoint as="offset" />
          </mxGeometry>
        </mxCell>
        <mxCell id="sgO2sDlPtiAHOV2v07FV-17" value="&lt;div style=&quot;font-size: 13px;&quot;&gt;unprotected&lt;/div&gt;&lt;div style=&quot;font-size: 13px;&quot;&gt;unduplicated&lt;br style=&quot;font-size: 13px;&quot;&gt;&lt;/div&gt;" style="ellipse;whiteSpace=wrap;html=1;fontSize=13;" parent="1" vertex="1">
          <mxGeometry x="150" y="800" width="100" height="40" as="geometry" />
        </mxCell>
        <mxCell id="sgO2sDlPtiAHOV2v07FV-24" value="" style="edgeStyle=orthogonalEdgeStyle;rounded=0;orthogonalLoop=1;jettySize=auto;html=1;exitX=1;exitY=0.5;exitDx=0;exitDy=0;entryX=0;entryY=0.5;entryDx=0;entryDy=0;fontSize=13;" parent="1" source="sgO2sDlPtiAHOV2v07FV-18" target="sgO2sDlPtiAHOV2v07FV-19" edge="1">
          <mxGeometry y="10" relative="1" as="geometry">
            <mxPoint as="offset" />
          </mxGeometry>
        </mxCell>
        <mxCell id="sgO2sDlPtiAHOV2v07FV-31" value="" style="rounded=0;orthogonalLoop=1;jettySize=auto;html=1;exitX=0.5;exitY=1;exitDx=0;exitDy=0;entryX=0.5;entryY=0;entryDx=0;entryDy=0;startArrow=classic;startFill=1;fontSize=13;" parent="1" source="sgO2sDlPtiAHOV2v07FV-18" target="sgO2sDlPtiAHOV2v07FV-27" edge="1">
          <mxGeometry relative="1" as="geometry">
            <Array as="points">
              <mxPoint x="360" y="880" />
              <mxPoint x="520" y="880" />
            </Array>
          </mxGeometry>
        </mxCell>
        <mxCell id="sgO2sDlPtiAHOV2v07FV-18" value="protected&lt;br style=&quot;font-size: 13px;&quot;&gt;&lt;div style=&quot;font-size: 13px;&quot;&gt;unduplicated&lt;br style=&quot;font-size: 13px;&quot;&gt;&lt;/div&gt;" style="ellipse;whiteSpace=wrap;html=1;fontSize=13;" parent="1" vertex="1">
          <mxGeometry x="310" y="800" width="100" height="40" as="geometry" />
        </mxCell>
        <mxCell id="sgO2sDlPtiAHOV2v07FV-26" value="&lt;div style=&quot;font-size: 13px;&quot;&gt;new&lt;br style=&quot;font-size: 13px;&quot;&gt;&lt;/div&gt;&lt;div style=&quot;font-size: 13px;&quot;&gt;syscall read&lt;/div&gt;" style="edgeStyle=orthogonalEdgeStyle;rounded=0;orthogonalLoop=1;jettySize=auto;html=1;exitX=1;exitY=0.5;exitDx=0;exitDy=0;entryX=0;entryY=0.5;entryDx=0;entryDy=0;fontSize=13;" parent="1" source="sgO2sDlPtiAHOV2v07FV-19" target="sgO2sDlPtiAHOV2v07FV-20" edge="1">
          <mxGeometry y="20" relative="1" as="geometry">
            <mxPoint as="offset" />
          </mxGeometry>
        </mxCell>
        <mxCell id="sgO2sDlPtiAHOV2v07FV-30" value="&lt;span style=&quot;background-color: rgb(255, 255, 255); font-size: 13px;&quot;&gt;syscall end&lt;/span&gt;" style="rounded=0;orthogonalLoop=1;jettySize=auto;html=1;exitX=0.5;exitY=1;exitDx=0;exitDy=0;entryX=0.5;entryY=0;entryDx=0;entryDy=0;startArrow=classic;startFill=1;fontSize=13;" parent="1" source="sgO2sDlPtiAHOV2v07FV-19" target="sgO2sDlPtiAHOV2v07FV-27" edge="1">
          <mxGeometry relative="1" as="geometry">
            <mxPoint as="offset" />
          </mxGeometry>
        </mxCell>
        <mxCell id="sgO2sDlPtiAHOV2v07FV-19" value="unprotected&lt;br style=&quot;font-size: 13px;&quot;&gt;&lt;div style=&quot;font-size: 13px;&quot;&gt;duplicated&lt;br style=&quot;font-size: 13px;&quot;&gt;&lt;/div&gt;" style="ellipse;whiteSpace=wrap;html=1;fontSize=13;" parent="1" vertex="1">
          <mxGeometry x="470" y="800" width="100" height="40" as="geometry" />
        </mxCell>
        <mxCell id="sgO2sDlPtiAHOV2v07FV-28" value="&lt;div style=&quot;font-size: 13px;&quot;&gt;u/s write&lt;/div&gt;" style="edgeStyle=orthogonalEdgeStyle;rounded=0;orthogonalLoop=1;jettySize=auto;html=1;exitX=0;exitY=1;exitDx=0;exitDy=0;entryX=1;entryY=1;entryDx=0;entryDy=0;fontSize=13;" parent="1" source="sgO2sDlPtiAHOV2v07FV-20" target="sgO2sDlPtiAHOV2v07FV-19" edge="1">
          <mxGeometry y="16" relative="1" as="geometry">
            <mxPoint x="570" y="850" as="targetPoint" />
            <mxPoint as="offset" />
          </mxGeometry>
        </mxCell>
        <mxCell id="sgO2sDlPtiAHOV2v07FV-29" value="" style="rounded=0;orthogonalLoop=1;jettySize=auto;html=1;exitX=0.5;exitY=1;exitDx=0;exitDy=0;entryX=0.5;entryY=0;entryDx=0;entryDy=0;startArrow=classic;startFill=1;fontSize=13;" parent="1" source="sgO2sDlPtiAHOV2v07FV-20" target="sgO2sDlPtiAHOV2v07FV-27" edge="1">
          <mxGeometry relative="1" as="geometry">
            <Array as="points">
              <mxPoint x="690" y="880" />
              <mxPoint x="520" y="880" />
            </Array>
          </mxGeometry>
        </mxCell>
        <mxCell id="sgO2sDlPtiAHOV2v07FV-20" value="protected&lt;br style=&quot;font-size: 13px;&quot;&gt;&lt;div style=&quot;font-size: 13px;&quot;&gt;duplicated&lt;br style=&quot;font-size: 13px;&quot;&gt;&lt;/div&gt;" style="ellipse;whiteSpace=wrap;html=1;fontSize=13;" parent="1" vertex="1">
          <mxGeometry x="640" y="800" width="100" height="40" as="geometry" />
        </mxCell>
        <mxCell id="sgO2sDlPtiAHOV2v07FV-22" value="u read, u/s write" style="edgeStyle=orthogonalEdgeStyle;rounded=0;orthogonalLoop=1;jettySize=auto;html=1;exitX=1;exitY=0;exitDx=0;exitDy=0;entryX=0.5;entryY=0;entryDx=0;entryDy=0;fontSize=13;" parent="1" source="sgO2sDlPtiAHOV2v07FV-17" target="sgO2sDlPtiAHOV2v07FV-17" edge="1">
          <mxGeometry x="0.0839" y="-10" relative="1" as="geometry">
            <Array as="points">
              <mxPoint x="235" y="780" />
              <mxPoint x="200" y="780" />
            </Array>
            <mxPoint as="offset" />
          </mxGeometry>
        </mxCell>
        <mxCell id="sgO2sDlPtiAHOV2v07FV-23" value="u/s read" style="edgeStyle=orthogonalEdgeStyle;rounded=0;orthogonalLoop=1;jettySize=auto;html=1;exitX=1;exitY=0;exitDx=0;exitDy=0;entryX=0.5;entryY=0;entryDx=0;entryDy=0;fontSize=13;" parent="1" source="sgO2sDlPtiAHOV2v07FV-18" target="sgO2sDlPtiAHOV2v07FV-18" edge="1">
          <mxGeometry x="-0.0782" y="-10" relative="1" as="geometry">
            <Array as="points">
              <mxPoint x="395" y="780" />
              <mxPoint x="360" y="780" />
            </Array>
            <mxPoint as="offset" />
          </mxGeometry>
        </mxCell>
        <mxCell id="sgO2sDlPtiAHOV2v07FV-25" value="" style="edgeStyle=orthogonalEdgeStyle;rounded=0;orthogonalLoop=1;jettySize=auto;html=1;exitX=1;exitY=0;exitDx=0;exitDy=0;entryX=0.5;entryY=0;entryDx=0;entryDy=0;fontSize=13;" parent="1" source="sgO2sDlPtiAHOV2v07FV-19" target="sgO2sDlPtiAHOV2v07FV-19" edge="1">
          <mxGeometry x="0.2447" y="-16" relative="1" as="geometry">
            <Array as="points">
              <mxPoint x="528" y="780" />
              <mxPoint x="500" y="780" />
            </Array>
            <mxPoint as="offset" />
          </mxGeometry>
        </mxCell>
        <mxCell id="sgO2sDlPtiAHOV2v07FV-77" style="edgeStyle=none;rounded=0;orthogonalLoop=1;jettySize=auto;html=1;exitX=0;exitY=0.5;exitDx=0;exitDy=0;entryX=0.5;entryY=1;entryDx=0;entryDy=0;fontFamily=Courier New;fontSize=13;" parent="1" source="sgO2sDlPtiAHOV2v07FV-27" target="sgO2sDlPtiAHOV2v07FV-17" edge="1">
          <mxGeometry relative="1" as="geometry">
            <Array as="points">
              <mxPoint x="200" y="920" />
            </Array>
          </mxGeometry>
        </mxCell>
        <mxCell id="sgO2sDlPtiAHOV2v07FV-27" value="release snapshots/copies" style="ellipse;whiteSpace=wrap;html=1;dashed=1;fontSize=13;" parent="1" vertex="1">
          <mxGeometry x="440" y="900" width="160" height="40" as="geometry" />
        </mxCell>
        <mxCell id="sgO2sDlPtiAHOV2v07FV-34" value="&lt;div style=&quot;font-size: 13px;&quot;&gt;C&lt;sub style=&quot;font-size: 13px;&quot;&gt;L&lt;/sub&gt;(w)&lt;/div&gt;" style="rounded=0;whiteSpace=wrap;html=1;labelBackgroundColor=#ffffff;sketch=0;fillStyle=cross-hatch;fillColor=none;fontSize=13;" parent="1" vertex="1">
          <mxGeometry x="180" y="620" width="40" height="80" as="geometry" />
        </mxCell>
        <mxCell id="sgO2sDlPtiAHOV2v07FV-36" value="States" style="text;html=1;strokeColor=none;fillColor=none;align=center;verticalAlign=middle;whiteSpace=wrap;rounded=0;dashed=1;fontSize=13;" parent="1" vertex="1">
          <mxGeometry x="60" y="800" width="60" height="40" as="geometry" />
        </mxCell>
        <mxCell id="sgO2sDlPtiAHOV2v07FV-37" value="&lt;div style=&quot;font-size: 13px;&quot;&gt;C = {C&lt;sub style=&quot;font-size: 13px;&quot;&gt;L&lt;/sub&gt;}&lt;br style=&quot;font-size: 13px;&quot;&gt;&lt;/div&gt;" style="text;html=1;strokeColor=none;fillColor=none;align=center;verticalAlign=middle;whiteSpace=wrap;rounded=0;fontSize=13;" parent="1" vertex="1">
          <mxGeometry x="160" y="600" width="80" height="20" as="geometry" />
        </mxCell>
        <mxCell id="sgO2sDlPtiAHOV2v07FV-40" value="&lt;div style=&quot;font-size: 13px;&quot;&gt;&lt;span style=&quot;background-color: rgb(255, 255, 255); font-size: 13px;&quot;&gt;C&lt;sub style=&quot;font-size: 13px;&quot;&gt;L&lt;/sub&gt;(r)&lt;/span&gt;&lt;/div&gt;" style="rounded=0;whiteSpace=wrap;html=1;sketch=0;fillStyle=cross-hatch;fillColor=none;fontSize=13;" parent="1" vertex="1">
          <mxGeometry x="340" y="620" width="40" height="80" as="geometry" />
        </mxCell>
        <mxCell id="sgO2sDlPtiAHOV2v07FV-41" value="&lt;div style=&quot;font-size: 13px;&quot;&gt;C = {C&lt;sub style=&quot;font-size: 13px;&quot;&gt;L&lt;/sub&gt;}&lt;br style=&quot;font-size: 13px;&quot;&gt;&lt;/div&gt;" style="text;html=1;strokeColor=none;fillColor=none;align=center;verticalAlign=middle;whiteSpace=wrap;rounded=0;fontSize=13;" parent="1" vertex="1">
          <mxGeometry x="320" y="600" width="80" height="20" as="geometry" />
        </mxCell>
        <mxCell id="sgO2sDlPtiAHOV2v07FV-43" value="&lt;div style=&quot;font-size: 13px;&quot;&gt;&lt;span style=&quot;background-color: rgb(255, 255, 255); font-size: 13px;&quot;&gt;C&lt;sub style=&quot;font-size: 13px;&quot;&gt;L&lt;/sub&gt;(w)&lt;/span&gt;&lt;/div&gt;" style="rounded=0;whiteSpace=wrap;html=1;sketch=0;fillStyle=cross-hatch;fillColor=none;fontSize=13;" parent="1" vertex="1">
          <mxGeometry x="520" y="620" width="40" height="80" as="geometry" />
        </mxCell>
        <mxCell id="sgO2sDlPtiAHOV2v07FV-44" value="&lt;div style=&quot;font-size: 13px;&quot;&gt;&lt;/div&gt;&lt;div style=&quot;font-size: 13px;&quot;&gt;C = {C&lt;sub style=&quot;font-size: 13px;&quot;&gt;0&lt;/sub&gt;, CL}&lt;br style=&quot;font-size: 13px;&quot;&gt;&lt;/div&gt;" style="text;html=1;strokeColor=none;fillColor=none;align=center;verticalAlign=middle;whiteSpace=wrap;rounded=0;fontSize=13;" parent="1" vertex="1">
          <mxGeometry x="460" y="600" width="120" height="20" as="geometry" />
        </mxCell>
        <mxCell id="sgO2sDlPtiAHOV2v07FV-47" value="Copies (C)" style="text;html=1;strokeColor=none;fillColor=none;align=center;verticalAlign=middle;whiteSpace=wrap;rounded=0;dashed=1;fontSize=13;" parent="1" vertex="1">
          <mxGeometry x="60" y="600" width="80" height="20" as="geometry" />
        </mxCell>
        <mxCell id="sgO2sDlPtiAHOV2v07FV-48" value="&lt;div style=&quot;font-size: 13px;&quot;&gt;Snapshots (S)&lt;/div&gt;" style="text;html=1;strokeColor=none;fillColor=none;align=center;verticalAlign=middle;whiteSpace=wrap;rounded=0;dashed=1;fontSize=13;" parent="1" vertex="1">
          <mxGeometry x="60" y="720" width="100" height="20" as="geometry" />
        </mxCell>
        <mxCell id="sgO2sDlPtiAHOV2v07FV-49" value="&lt;div style=&quot;font-size: 13px;&quot;&gt;&lt;span style=&quot;background-color: rgb(255, 255, 255); font-size: 13px;&quot;&gt;C&lt;sub style=&quot;font-size: 13px;&quot;&gt;L&lt;/sub&gt;(r)&lt;/span&gt;&lt;/div&gt;" style="rounded=0;whiteSpace=wrap;html=1;fillColor=none;fontSize=13;" parent="1" vertex="1">
          <mxGeometry x="680" y="620" width="40" height="80" as="geometry" />
        </mxCell>
        <mxCell id="sgO2sDlPtiAHOV2v07FV-50" value="&lt;div style=&quot;font-size: 13px;&quot;&gt;C = {C&lt;sub style=&quot;font-size: 13px;&quot;&gt;0&lt;/sub&gt;, CL}&lt;br style=&quot;font-size: 13px;&quot;&gt;&lt;/div&gt;" style="text;html=1;strokeColor=none;fillColor=none;align=center;verticalAlign=middle;whiteSpace=wrap;rounded=0;fontSize=13;" parent="1" vertex="1">
          <mxGeometry x="620" y="600" width="120" height="20" as="geometry" />
        </mxCell>
        <mxCell id="sgO2sDlPtiAHOV2v07FV-53" value="" style="rounded=0;whiteSpace=wrap;html=1;labelBackgroundColor=#ffffff;sketch=1;strokeColor=none;fillStyle=cross-hatch;fillColor=#99CCFF;" parent="1" vertex="1">
          <mxGeometry x="760" y="640" width="40" height="80" as="geometry" />
        </mxCell>
        <mxCell id="sgO2sDlPtiAHOV2v07FV-60" value="" style="rounded=0;whiteSpace=wrap;html=1;labelBackgroundColor=#ffffff;sketch=1;strokeColor=none;fillStyle=hachure;fillColor=#97D077;" parent="1" vertex="1">
          <mxGeometry x="800" y="640" width="40" height="80" as="geometry" />
        </mxCell>
        <mxCell id="cr6TgSaxyFVnjNvlI5C_-1" value="u/s read" style="edgeStyle=orthogonalEdgeStyle;rounded=0;orthogonalLoop=1;jettySize=auto;html=1;exitX=1;exitY=0;exitDx=0;exitDy=0;entryX=0.5;entryY=0;entryDx=0;entryDy=0;fontSize=13;" parent="1" source="sgO2sDlPtiAHOV2v07FV-20" target="sgO2sDlPtiAHOV2v07FV-20" edge="1">
          <mxGeometry x="0.1908" y="-10" relative="1" as="geometry">
            <Array as="points">
              <mxPoint x="708" y="780" />
              <mxPoint x="680" y="780" />
            </Array>
            <mxPoint as="offset" />
          </mxGeometry>
        </mxCell>
        <mxCell id="hSm4koDUXmgNAm0xiuls-5" style="edgeStyle=orthogonalEdgeStyle;rounded=0;orthogonalLoop=1;jettySize=auto;html=1;exitX=0.5;exitY=1;exitDx=0;exitDy=0;entryX=0.5;entryY=0;entryDx=0;entryDy=0;fontSize=15;" parent="1" source="hSm4koDUXmgNAm0xiuls-3" target="hSm4koDUXmgNAm0xiuls-4" edge="1">
          <mxGeometry relative="1" as="geometry" />
        </mxCell>
        <mxCell id="hSm4koDUXmgNAm0xiuls-3" value="Enter a syscall" style="rounded=0;whiteSpace=wrap;html=1;fontSize=15;" parent="1" vertex="1">
          <mxGeometry x="60" y="1600" width="100" height="40" as="geometry" />
        </mxCell>
        <mxCell id="hSm4koDUXmgNAm0xiuls-4" value="&lt;div&gt;Read(X) = 42&lt;/div&gt;" style="rounded=0;whiteSpace=wrap;html=1;fontSize=15;" parent="1" vertex="1">
          <mxGeometry x="60" y="1680" width="100" height="40" as="geometry" />
        </mxCell>
        <mxCell id="hSm4koDUXmgNAm0xiuls-12" style="edgeStyle=orthogonalEdgeStyle;rounded=0;orthogonalLoop=1;jettySize=auto;html=1;exitX=0.5;exitY=1;exitDx=0;exitDy=0;entryX=0.5;entryY=0;entryDx=0;entryDy=0;fontSize=15;" parent="1" source="hSm4koDUXmgNAm0xiuls-4" target="hSm4koDUXmgNAm0xiuls-13" edge="1">
          <mxGeometry relative="1" as="geometry">
            <mxPoint x="120" y="1800" as="sourcePoint" />
          </mxGeometry>
        </mxCell>
        <mxCell id="hSm4koDUXmgNAm0xiuls-15" style="edgeStyle=orthogonalEdgeStyle;rounded=0;orthogonalLoop=1;jettySize=auto;html=1;exitX=0.5;exitY=1;exitDx=0;exitDy=0;entryX=0.5;entryY=0;entryDx=0;entryDy=0;fontSize=15;" parent="1" source="hSm4koDUXmgNAm0xiuls-13" target="hSm4koDUXmgNAm0xiuls-38" edge="1">
          <mxGeometry relative="1" as="geometry">
            <mxPoint x="120" y="2000" as="targetPoint" />
          </mxGeometry>
        </mxCell>
        <mxCell id="hSm4koDUXmgNAm0xiuls-13" value="&lt;div&gt;Read(X) = 42&lt;/div&gt;" style="rounded=0;whiteSpace=wrap;html=1;fontSize=15;" parent="1" vertex="1">
          <mxGeometry x="60" y="1860" width="100" height="40" as="geometry" />
        </mxCell>
        <mxCell id="hSm4koDUXmgNAm0xiuls-16" value="X=42" style="rounded=0;whiteSpace=wrap;html=1;fillColor=none;labelBackgroundColor=#FFFFFF;fontSize=15;" parent="1" vertex="1">
          <mxGeometry x="200" y="1600" width="40" height="40" as="geometry" />
        </mxCell>
        <mxCell id="hSm4koDUXmgNAm0xiuls-22" style="edgeStyle=orthogonalEdgeStyle;rounded=0;orthogonalLoop=1;jettySize=auto;html=1;exitX=0;exitY=0.5;exitDx=0;exitDy=0;entryX=1;entryY=0.5;entryDx=0;entryDy=0;dashed=1;fontSize=15;" parent="1" source="hSm4koDUXmgNAm0xiuls-17" target="hSm4koDUXmgNAm0xiuls-4" edge="1">
          <mxGeometry relative="1" as="geometry" />
        </mxCell>
        <mxCell id="hSm4koDUXmgNAm0xiuls-17" value="X=42" style="rounded=0;whiteSpace=wrap;html=1;fillColor=none;labelBackgroundColor=#FFFFFF;fontSize=15;" parent="1" vertex="1">
          <mxGeometry x="200" y="1680" width="40" height="40" as="geometry" />
        </mxCell>
        <mxCell id="hSm4koDUXmgNAm0xiuls-18" value="X=0" style="rounded=0;whiteSpace=wrap;html=1;fillColor=none;labelBackgroundColor=#FFFFFF;fontSize=15;" parent="1" vertex="1">
          <mxGeometry x="240" y="1780" width="40" height="40" as="geometry" />
        </mxCell>
        <mxCell id="hSm4koDUXmgNAm0xiuls-19" value="X=42" style="rounded=0;whiteSpace=wrap;html=1;fillColor=none;labelBackgroundColor=#FFFFFF;fontSize=15;" parent="1" vertex="1">
          <mxGeometry x="200" y="1780" width="40" height="40" as="geometry" />
        </mxCell>
        <mxCell id="hSm4koDUXmgNAm0xiuls-35" style="edgeStyle=orthogonalEdgeStyle;rounded=0;orthogonalLoop=1;jettySize=auto;html=1;exitX=0;exitY=0.5;exitDx=0;exitDy=0;entryX=1;entryY=0.5;entryDx=0;entryDy=0;dashed=1;fontSize=15;" parent="1" source="hSm4koDUXmgNAm0xiuls-21" target="hSm4koDUXmgNAm0xiuls-13" edge="1">
          <mxGeometry relative="1" as="geometry" />
        </mxCell>
        <mxCell id="hSm4koDUXmgNAm0xiuls-20" value="X=0" style="rounded=0;whiteSpace=wrap;html=1;fillColor=none;labelBackgroundColor=#FFFFFF;fontSize=15;" parent="1" vertex="1">
          <mxGeometry x="240" y="1860" width="40" height="40" as="geometry" />
        </mxCell>
        <mxCell id="hSm4koDUXmgNAm0xiuls-21" value="X=42" style="rounded=0;whiteSpace=wrap;html=1;fillColor=none;labelBackgroundColor=#FFFFFF;fontSize=15;" parent="1" vertex="1">
          <mxGeometry x="200" y="1860" width="40" height="40" as="geometry" />
        </mxCell>
        <mxCell id="hSm4koDUXmgNAm0xiuls-23" value="C&lt;sub style=&quot;font-size: 15px;&quot;&gt;L&lt;/sub&gt;" style="text;html=1;strokeColor=none;fillColor=none;align=center;verticalAlign=middle;whiteSpace=wrap;rounded=0;fontSize=15;" parent="1" vertex="1">
          <mxGeometry x="200" y="1580" width="40" height="20" as="geometry" />
        </mxCell>
        <mxCell id="hSm4koDUXmgNAm0xiuls-24" value="L" style="text;html=1;strokeColor=none;fillColor=none;align=center;verticalAlign=middle;whiteSpace=wrap;rounded=0;fontSize=15;" parent="1" vertex="1">
          <mxGeometry x="200" y="1640" width="40" height="20" as="geometry" />
        </mxCell>
        <mxCell id="hSm4koDUXmgNAm0xiuls-25" value="C&lt;sub style=&quot;font-size: 15px;&quot;&gt;L&lt;/sub&gt;" style="text;html=1;strokeColor=none;fillColor=none;align=center;verticalAlign=middle;whiteSpace=wrap;rounded=0;fontSize=15;" parent="1" vertex="1">
          <mxGeometry x="200" y="1660" width="40" height="20" as="geometry" />
        </mxCell>
        <mxCell id="hSm4koDUXmgNAm0xiuls-26" value="L, S&lt;sub style=&quot;font-size: 15px;&quot;&gt;0&lt;/sub&gt;" style="text;html=1;strokeColor=none;fillColor=none;align=center;verticalAlign=middle;whiteSpace=wrap;rounded=0;fontSize=15;" parent="1" vertex="1">
          <mxGeometry x="200" y="1720" width="40" height="20" as="geometry" />
        </mxCell>
        <mxCell id="hSm4koDUXmgNAm0xiuls-27" value="C&lt;sub style=&quot;font-size: 15px;&quot;&gt;L&lt;/sub&gt;" style="text;html=1;strokeColor=none;fillColor=none;align=center;verticalAlign=middle;whiteSpace=wrap;rounded=0;fontSize=15;" parent="1" vertex="1">
          <mxGeometry x="240" y="1760" width="40" height="20" as="geometry" />
        </mxCell>
        <mxCell id="hSm4koDUXmgNAm0xiuls-28" value="C&lt;sub style=&quot;font-size: 15px;&quot;&gt;0&lt;/sub&gt;" style="text;html=1;strokeColor=none;fillColor=none;align=center;verticalAlign=middle;whiteSpace=wrap;rounded=0;fontSize=15;" parent="1" vertex="1">
          <mxGeometry x="200" y="1760" width="40" height="20" as="geometry" />
        </mxCell>
        <mxCell id="hSm4koDUXmgNAm0xiuls-29" value="L" style="text;html=1;strokeColor=none;fillColor=none;align=center;verticalAlign=middle;whiteSpace=wrap;rounded=0;fontSize=15;" parent="1" vertex="1">
          <mxGeometry x="240" y="1820" width="40" height="20" as="geometry" />
        </mxCell>
        <mxCell id="hSm4koDUXmgNAm0xiuls-30" value="S&lt;sub style=&quot;font-size: 15px;&quot;&gt;0&lt;/sub&gt;" style="text;html=1;strokeColor=none;fillColor=none;align=center;verticalAlign=middle;whiteSpace=wrap;rounded=0;fontSize=15;" parent="1" vertex="1">
          <mxGeometry x="200" y="1820" width="40" height="20" as="geometry" />
        </mxCell>
        <mxCell id="hSm4koDUXmgNAm0xiuls-31" value="C&lt;sub style=&quot;font-size: 15px;&quot;&gt;L&lt;/sub&gt;" style="text;html=1;strokeColor=none;fillColor=none;align=center;verticalAlign=middle;whiteSpace=wrap;rounded=0;fontSize=15;" parent="1" vertex="1">
          <mxGeometry x="240" y="1840" width="40" height="20" as="geometry" />
        </mxCell>
        <mxCell id="hSm4koDUXmgNAm0xiuls-32" value="C&lt;sub style=&quot;font-size: 15px;&quot;&gt;0&lt;/sub&gt;" style="text;html=1;strokeColor=none;fillColor=none;align=center;verticalAlign=middle;whiteSpace=wrap;rounded=0;fontSize=15;" parent="1" vertex="1">
          <mxGeometry x="200" y="1840" width="40" height="20" as="geometry" />
        </mxCell>
        <mxCell id="hSm4koDUXmgNAm0xiuls-33" value="L" style="text;html=1;strokeColor=none;fillColor=none;align=center;verticalAlign=middle;whiteSpace=wrap;rounded=0;fontSize=15;" parent="1" vertex="1">
          <mxGeometry x="240" y="1900" width="40" height="20" as="geometry" />
        </mxCell>
        <mxCell id="hSm4koDUXmgNAm0xiuls-34" value="S&lt;sub style=&quot;font-size: 15px;&quot;&gt;0&lt;/sub&gt;" style="text;html=1;strokeColor=none;fillColor=none;align=center;verticalAlign=middle;whiteSpace=wrap;rounded=0;fontSize=15;" parent="1" vertex="1">
          <mxGeometry x="200" y="1900" width="40" height="20" as="geometry" />
        </mxCell>
        <mxCell id="hSm4koDUXmgNAm0xiuls-37" style="edgeStyle=orthogonalEdgeStyle;rounded=0;orthogonalLoop=1;jettySize=auto;html=1;exitX=0;exitY=0.5;exitDx=0;exitDy=0;dashed=1;fontSize=15;" parent="1" source="hSm4koDUXmgNAm0xiuls-36" edge="1">
          <mxGeometry relative="1" as="geometry">
            <mxPoint x="280" y="1800" as="targetPoint" />
          </mxGeometry>
        </mxCell>
        <mxCell id="hSm4koDUXmgNAm0xiuls-36" value="Write(X, 0)" style="rounded=0;whiteSpace=wrap;html=1;fontSize=15;" parent="1" vertex="1">
          <mxGeometry x="320" y="1780" width="80" height="40" as="geometry" />
        </mxCell>
        <mxCell id="hSm4koDUXmgNAm0xiuls-45" style="edgeStyle=orthogonalEdgeStyle;rounded=0;orthogonalLoop=1;jettySize=auto;html=1;exitX=1;exitY=0.5;exitDx=0;exitDy=0;entryX=0;entryY=0.5;entryDx=0;entryDy=0;dashed=1;startArrow=none;fontSize=15;" parent="1" source="hSm4koDUXmgNAm0xiuls-40" target="hSm4koDUXmgNAm0xiuls-39" edge="1">
          <mxGeometry relative="1" as="geometry" />
        </mxCell>
        <mxCell id="BvnVw-4qKByz3GFjecwE-79" style="edgeStyle=orthogonalEdgeStyle;rounded=0;orthogonalLoop=1;jettySize=auto;html=1;exitX=0.5;exitY=1;exitDx=0;exitDy=0;entryX=0.5;entryY=0;entryDx=0;entryDy=0;fontSize=15;" parent="1" source="hSm4koDUXmgNAm0xiuls-38" target="hSm4koDUXmgNAm0xiuls-47" edge="1">
          <mxGeometry relative="1" as="geometry" />
        </mxCell>
        <mxCell id="hSm4koDUXmgNAm0xiuls-38" value="Write(X, 10)" style="rounded=0;whiteSpace=wrap;html=1;fontSize=15;" parent="1" vertex="1">
          <mxGeometry x="60" y="1940" width="100" height="40" as="geometry" />
        </mxCell>
        <mxCell id="hSm4koDUXmgNAm0xiuls-39" value="X=10" style="rounded=0;whiteSpace=wrap;html=1;fillColor=none;labelBackgroundColor=#FFFFFF;fontSize=15;" parent="1" vertex="1">
          <mxGeometry x="240" y="1940" width="40" height="40" as="geometry" />
        </mxCell>
        <mxCell id="hSm4koDUXmgNAm0xiuls-41" value="C&lt;sub style=&quot;font-size: 15px;&quot;&gt;L&lt;/sub&gt;" style="text;html=1;strokeColor=none;fillColor=none;align=center;verticalAlign=middle;whiteSpace=wrap;rounded=0;fontSize=15;" parent="1" vertex="1">
          <mxGeometry x="240" y="1920" width="40" height="20" as="geometry" />
        </mxCell>
        <mxCell id="hSm4koDUXmgNAm0xiuls-42" value="C&lt;sub style=&quot;font-size: 15px;&quot;&gt;0&lt;/sub&gt;" style="text;html=1;strokeColor=none;fillColor=none;align=center;verticalAlign=middle;whiteSpace=wrap;rounded=0;fontSize=15;" parent="1" vertex="1">
          <mxGeometry x="200" y="1920" width="40" height="20" as="geometry" />
        </mxCell>
        <mxCell id="hSm4koDUXmgNAm0xiuls-43" value="L" style="text;html=1;strokeColor=none;fillColor=none;align=center;verticalAlign=middle;whiteSpace=wrap;rounded=0;fontSize=15;" parent="1" vertex="1">
          <mxGeometry x="240" y="1980" width="40" height="20" as="geometry" />
        </mxCell>
        <mxCell id="hSm4koDUXmgNAm0xiuls-44" value="S&lt;sub style=&quot;font-size: 15px;&quot;&gt;0&lt;/sub&gt;" style="text;html=1;strokeColor=none;fillColor=none;align=center;verticalAlign=middle;whiteSpace=wrap;rounded=0;fontSize=15;" parent="1" vertex="1">
          <mxGeometry x="200" y="1980" width="40" height="20" as="geometry" />
        </mxCell>
        <mxCell id="hSm4koDUXmgNAm0xiuls-47" value="End syscall" style="rounded=0;whiteSpace=wrap;html=1;fontSize=15;" parent="1" vertex="1">
          <mxGeometry x="60" y="2020" width="100" height="40" as="geometry" />
        </mxCell>
        <mxCell id="hSm4koDUXmgNAm0xiuls-49" value="X=10" style="rounded=0;whiteSpace=wrap;html=1;fillColor=none;labelBackgroundColor=#FFFFFF;fontSize=15;" parent="1" vertex="1">
          <mxGeometry x="200" y="2020" width="40" height="40" as="geometry" />
        </mxCell>
        <mxCell id="hSm4koDUXmgNAm0xiuls-50" value="C&lt;sub style=&quot;font-size: 15px;&quot;&gt;L&lt;/sub&gt;" style="text;html=1;strokeColor=none;fillColor=none;align=center;verticalAlign=middle;whiteSpace=wrap;rounded=0;fontSize=15;" parent="1" vertex="1">
          <mxGeometry x="200" y="2000" width="40" height="20" as="geometry" />
        </mxCell>
        <mxCell id="hSm4koDUXmgNAm0xiuls-51" value="L" style="text;html=1;strokeColor=none;fillColor=none;align=center;verticalAlign=middle;whiteSpace=wrap;rounded=0;fontSize=15;" parent="1" vertex="1">
          <mxGeometry x="200" y="2060" width="40" height="20" as="geometry" />
        </mxCell>
        <mxCell id="hSm4koDUXmgNAm0xiuls-55" value="Target thread" style="rounded=0;whiteSpace=wrap;html=1;fillColor=none;fontSize=15;" parent="1" vertex="1">
          <mxGeometry x="40" y="1560" width="140" height="20" as="geometry" />
        </mxCell>
        <mxCell id="hSm4koDUXmgNAm0xiuls-56" value="Attacker thread" style="rounded=0;whiteSpace=wrap;html=1;fillColor=none;fontSize=15;" parent="1" vertex="1">
          <mxGeometry x="300" y="1560" width="120" height="20" as="geometry" />
        </mxCell>
        <mxCell id="hSm4koDUXmgNAm0xiuls-57" value="Memory state" style="rounded=0;whiteSpace=wrap;html=1;fillColor=none;fontSize=15;" parent="1" vertex="1">
          <mxGeometry x="180" y="1560" width="120" height="20" as="geometry" />
        </mxCell>
        <mxCell id="hSm4koDUXmgNAm0xiuls-59" value="Target thread" style="rounded=0;whiteSpace=wrap;html=1;fillColor=none;fontSize=15;" parent="1" vertex="1">
          <mxGeometry x="40" y="1160" width="140" height="20" as="geometry" />
        </mxCell>
        <mxCell id="hSm4koDUXmgNAm0xiuls-60" value="Attacker thread" style="rounded=0;whiteSpace=wrap;html=1;fillColor=none;fontSize=15;" parent="1" vertex="1">
          <mxGeometry x="300" y="1160" width="120" height="20" as="geometry" />
        </mxCell>
        <mxCell id="hSm4koDUXmgNAm0xiuls-61" value="Memory state" style="rounded=0;whiteSpace=wrap;html=1;fillColor=none;fontSize=15;" parent="1" vertex="1">
          <mxGeometry x="180" y="1160" width="120" height="20" as="geometry" />
        </mxCell>
        <mxCell id="hSm4koDUXmgNAm0xiuls-62" value="" style="rounded=0;whiteSpace=wrap;html=1;fillColor=none;fontSize=15;" parent="1" vertex="1">
          <mxGeometry x="40" y="1180" width="140" height="320" as="geometry" />
        </mxCell>
        <mxCell id="hSm4koDUXmgNAm0xiuls-63" value="" style="rounded=0;whiteSpace=wrap;html=1;fillColor=none;fontSize=15;" parent="1" vertex="1">
          <mxGeometry x="180" y="1180" width="120" height="320" as="geometry" />
        </mxCell>
        <mxCell id="hSm4koDUXmgNAm0xiuls-64" value="" style="rounded=0;whiteSpace=wrap;html=1;fillColor=none;fontSize=15;" parent="1" vertex="1">
          <mxGeometry x="300" y="1180" width="120" height="320" as="geometry" />
        </mxCell>
        <mxCell id="hSm4koDUXmgNAm0xiuls-65" value="Enter a syscall" style="rounded=0;whiteSpace=wrap;html=1;fontSize=15;" parent="1" vertex="1">
          <mxGeometry x="60" y="1200" width="100" height="40" as="geometry" />
        </mxCell>
        <mxCell id="hSm4koDUXmgNAm0xiuls-66" style="edgeStyle=orthogonalEdgeStyle;rounded=0;orthogonalLoop=1;jettySize=auto;html=1;exitX=0.5;exitY=1;exitDx=0;exitDy=0;entryX=0.5;entryY=0;entryDx=0;entryDy=0;fontSize=15;" parent="1" source="hSm4koDUXmgNAm0xiuls-65" target="hSm4koDUXmgNAm0xiuls-67" edge="1">
          <mxGeometry relative="1" as="geometry" />
        </mxCell>
        <mxCell id="hSm4koDUXmgNAm0xiuls-67" value="&lt;div style=&quot;font-size: 15px&quot;&gt;Read(X) = 42&lt;/div&gt;" style="rounded=0;whiteSpace=wrap;html=1;fontSize=15;" parent="1" vertex="1">
          <mxGeometry x="60" y="1260" width="100" height="40" as="geometry" />
        </mxCell>
        <mxCell id="hSm4koDUXmgNAm0xiuls-68" style="edgeStyle=orthogonalEdgeStyle;rounded=0;orthogonalLoop=1;jettySize=auto;html=1;exitX=0.5;exitY=1;exitDx=0;exitDy=0;entryX=0.5;entryY=0;entryDx=0;entryDy=0;fontSize=15;" parent="1" source="hSm4koDUXmgNAm0xiuls-67" target="hSm4koDUXmgNAm0xiuls-69" edge="1">
          <mxGeometry relative="1" as="geometry">
            <mxPoint x="120" y="1400" as="sourcePoint" />
          </mxGeometry>
        </mxCell>
        <mxCell id="hSm4koDUXmgNAm0xiuls-78" style="edgeStyle=orthogonalEdgeStyle;rounded=0;orthogonalLoop=1;jettySize=auto;html=1;exitX=0.5;exitY=1;exitDx=0;exitDy=0;entryX=0;entryY=0;entryDx=16;entryDy=24;entryPerimeter=0;fontSize=15;" parent="1" source="hSm4koDUXmgNAm0xiuls-69" target="hSm4koDUXmgNAm0xiuls-77" edge="1">
          <mxGeometry relative="1" as="geometry" />
        </mxCell>
        <mxCell id="hSm4koDUXmgNAm0xiuls-69" value="&lt;div style=&quot;font-size: 15px&quot;&gt;Read(X) = 0&lt;/div&gt;" style="rounded=0;whiteSpace=wrap;html=1;fontSize=15;" parent="1" vertex="1">
          <mxGeometry x="60" y="1380" width="100" height="40" as="geometry" />
        </mxCell>
        <mxCell id="hSm4koDUXmgNAm0xiuls-75" style="edgeStyle=orthogonalEdgeStyle;rounded=0;orthogonalLoop=1;jettySize=auto;html=1;exitX=0;exitY=0.5;exitDx=0;exitDy=0;entryX=1;entryY=0.5;entryDx=0;entryDy=0;dashed=1;fontSize=15;" parent="1" source="hSm4koDUXmgNAm0xiuls-70" target="hSm4koDUXmgNAm0xiuls-67" edge="1">
          <mxGeometry relative="1" as="geometry" />
        </mxCell>
        <mxCell id="hSm4koDUXmgNAm0xiuls-70" value="X=42" style="rounded=0;whiteSpace=wrap;html=1;fontSize=15;" parent="1" vertex="1">
          <mxGeometry x="220" y="1260" width="40" height="40" as="geometry" />
        </mxCell>
        <mxCell id="hSm4koDUXmgNAm0xiuls-71" value="X=0" style="rounded=0;whiteSpace=wrap;html=1;fontSize=15;" parent="1" vertex="1">
          <mxGeometry x="220" y="1320" width="40" height="40" as="geometry" />
        </mxCell>
        <mxCell id="hSm4koDUXmgNAm0xiuls-73" style="edgeStyle=orthogonalEdgeStyle;rounded=0;orthogonalLoop=1;jettySize=auto;html=1;exitX=0;exitY=0.5;exitDx=0;exitDy=0;entryX=1;entryY=0.5;entryDx=0;entryDy=0;dashed=1;fontSize=15;" parent="1" source="hSm4koDUXmgNAm0xiuls-74" target="hSm4koDUXmgNAm0xiuls-71" edge="1">
          <mxGeometry relative="1" as="geometry">
            <mxPoint x="300" y="1340" as="targetPoint" />
          </mxGeometry>
        </mxCell>
        <mxCell id="hSm4koDUXmgNAm0xiuls-74" value="Write(X, 0)" style="rounded=0;whiteSpace=wrap;html=1;fontSize=15;" parent="1" vertex="1">
          <mxGeometry x="320" y="1320" width="80" height="40" as="geometry" />
        </mxCell>
        <mxCell id="hSm4koDUXmgNAm0xiuls-77" value="" style="shape=cross;whiteSpace=wrap;html=1;rotation=45;fontSize=15;direction=south;" parent="1" vertex="1">
          <mxGeometry x="90" y="1440" width="40" height="40" as="geometry" />
        </mxCell>
        <mxCell id="hSm4koDUXmgNAm0xiuls-79" value="Exploit" style="text;html=1;strokeColor=none;fillColor=none;align=center;verticalAlign=middle;whiteSpace=wrap;rounded=0;fontSize=15;" parent="1" vertex="1">
          <mxGeometry x="130" y="1450" width="40" height="20" as="geometry" />
        </mxCell>
        <mxCell id="hSm4koDUXmgNAm0xiuls-81" style="edgeStyle=orthogonalEdgeStyle;rounded=0;orthogonalLoop=1;jettySize=auto;html=1;exitX=0;exitY=0.5;exitDx=0;exitDy=0;dashed=1;fontSize=15;" parent="1" source="hSm4koDUXmgNAm0xiuls-80" target="hSm4koDUXmgNAm0xiuls-69" edge="1">
          <mxGeometry relative="1" as="geometry" />
        </mxCell>
        <mxCell id="hSm4koDUXmgNAm0xiuls-80" value="X=0" style="rounded=0;whiteSpace=wrap;html=1;fontSize=15;" parent="1" vertex="1">
          <mxGeometry x="220" y="1380" width="40" height="40" as="geometry" />
        </mxCell>
        <mxCell id="hSm4koDUXmgNAm0xiuls-98" value="State 0" style="text;html=1;strokeColor=none;fillColor=none;align=center;verticalAlign=middle;whiteSpace=wrap;rounded=0;fontSize=15;" parent="1" vertex="1">
          <mxGeometry x="240" y="1580" width="60" height="20" as="geometry" />
        </mxCell>
        <mxCell id="hSm4koDUXmgNAm0xiuls-99" value="State 1" style="text;html=1;strokeColor=none;fillColor=none;align=center;verticalAlign=middle;whiteSpace=wrap;rounded=0;fontSize=15;" parent="1" vertex="1">
          <mxGeometry x="240" y="1660" width="60" height="20" as="geometry" />
        </mxCell>
        <mxCell id="hSm4koDUXmgNAm0xiuls-100" value="State 2" style="text;html=1;strokeColor=none;fillColor=none;align=center;verticalAlign=middle;whiteSpace=wrap;rounded=0;fontSize=15;" parent="1" vertex="1">
          <mxGeometry x="240" y="1740" width="60" height="20" as="geometry" />
        </mxCell>
        <mxCell id="hSm4koDUXmgNAm0xiuls-103" value="" style="endArrow=none;dashed=1;html=1;dashPattern=1 3;strokeWidth=2;fontSize=15;" parent="1" edge="1">
          <mxGeometry width="50" height="50" relative="1" as="geometry">
            <mxPoint x="180" y="1660" as="sourcePoint" />
            <mxPoint x="300" y="1660" as="targetPoint" />
          </mxGeometry>
        </mxCell>
        <mxCell id="hSm4koDUXmgNAm0xiuls-104" value="" style="endArrow=none;dashed=1;html=1;dashPattern=1 3;strokeWidth=2;fontSize=15;" parent="1" edge="1">
          <mxGeometry width="50" height="50" relative="1" as="geometry">
            <mxPoint x="180" y="1740" as="sourcePoint" />
            <mxPoint x="300" y="1740" as="targetPoint" />
          </mxGeometry>
        </mxCell>
        <mxCell id="hSm4koDUXmgNAm0xiuls-105" value="" style="endArrow=none;dashed=1;html=1;dashPattern=1 3;strokeWidth=2;fontSize=15;" parent="1" edge="1">
          <mxGeometry width="50" height="50" relative="1" as="geometry">
            <mxPoint x="180" y="2000" as="sourcePoint" />
            <mxPoint x="300" y="2000" as="targetPoint" />
          </mxGeometry>
        </mxCell>
        <mxCell id="hSm4koDUXmgNAm0xiuls-106" value="State 0" style="text;html=1;strokeColor=none;fillColor=none;align=center;verticalAlign=middle;whiteSpace=wrap;rounded=0;fontSize=15;" parent="1" vertex="1">
          <mxGeometry x="240" y="2000" width="60" height="20" as="geometry" />
        </mxCell>
        <mxCell id="BvnVw-4qKByz3GFjecwE-14" value="Y" style="edgeStyle=orthogonalEdgeStyle;rounded=0;orthogonalLoop=1;jettySize=auto;html=1;exitX=0;exitY=0.5;exitDx=0;exitDy=0;entryX=0.5;entryY=0;entryDx=0;entryDy=0;fontSize=17;" parent="1" source="BvnVw-4qKByz3GFjecwE-1" target="BvnVw-4qKByz3GFjecwE-2" edge="1">
          <mxGeometry x="-0.091" relative="1" as="geometry">
            <mxPoint x="1960.0000000000005" y="1280" as="targetPoint" />
            <mxPoint as="offset" />
          </mxGeometry>
        </mxCell>
        <mxCell id="BvnVw-4qKByz3GFjecwE-15" value="N" style="edgeStyle=orthogonalEdgeStyle;rounded=0;orthogonalLoop=1;jettySize=auto;html=1;exitX=1;exitY=0.5;exitDx=0;exitDy=0;entryX=0.5;entryY=0;entryDx=0;entryDy=0;fontSize=17;" parent="1" source="BvnVw-4qKByz3GFjecwE-1" edge="1">
          <mxGeometry relative="1" as="geometry">
            <mxPoint x="2180.0000000000005" y="1280" as="targetPoint" />
          </mxGeometry>
        </mxCell>
        <mxCell id="BvnVw-4qKByz3GFjecwE-1" value="&lt;div style=&quot;font-size: 17px;&quot;&gt;&lt;font style=&quot;font-size: 17px;&quot;&gt;PTE is &lt;br style=&quot;font-size: 17px;&quot;&gt;&lt;/font&gt;&lt;/div&gt;&lt;div style=&quot;font-size: 17px;&quot;&gt;&lt;font style=&quot;font-size: 17px;&quot;&gt;NULL?&lt;br style=&quot;font-size: 17px;&quot;&gt;&lt;/font&gt;&lt;/div&gt;" style="rhombus;whiteSpace=wrap;html=1;fontSize=17;" parent="1" vertex="1">
          <mxGeometry x="2000" y="1180" width="120" height="80" as="geometry" />
        </mxCell>
        <mxCell id="BvnVw-4qKByz3GFjecwE-16" value="N" style="edgeStyle=orthogonalEdgeStyle;rounded=0;orthogonalLoop=1;jettySize=auto;html=1;exitX=1;exitY=0.5;exitDx=0;exitDy=0;entryX=0.5;entryY=0;entryDx=0;entryDy=0;fontSize=17;" parent="1" source="BvnVw-4qKByz3GFjecwE-2" edge="1">
          <mxGeometry relative="1" as="geometry">
            <Array as="points">
              <mxPoint x="2020" y="1370" />
              <mxPoint x="2020" y="1370" />
            </Array>
            <mxPoint x="2020" y="1400" as="targetPoint" />
          </mxGeometry>
        </mxCell>
        <mxCell id="BvnVw-4qKByz3GFjecwE-17" value="Y" style="edgeStyle=orthogonalEdgeStyle;rounded=0;orthogonalLoop=1;jettySize=auto;html=1;entryX=0.5;entryY=0;entryDx=0;entryDy=0;fontSize=17;exitX=0;exitY=0.5;exitDx=0;exitDy=0;" parent="1" source="BvnVw-4qKByz3GFjecwE-2" target="BvnVw-4qKByz3GFjecwE-5" edge="1">
          <mxGeometry relative="1" as="geometry">
            <Array as="points">
              <mxPoint x="1880" y="1350" />
              <mxPoint x="1880" y="1350" />
            </Array>
            <mxPoint x="1880" y="1340" as="sourcePoint" />
          </mxGeometry>
        </mxCell>
        <mxCell id="BvnVw-4qKByz3GFjecwE-2" value="&lt;div style=&quot;font-size: 17px;&quot;&gt;File-&lt;/div&gt;&lt;div style=&quot;font-size: 17px;&quot;&gt;backed&lt;/div&gt;&lt;div style=&quot;font-size: 17px;&quot;&gt;&amp;nbsp; page?&lt;br style=&quot;font-size: 17px;&quot;&gt;&lt;/div&gt;" style="rhombus;whiteSpace=wrap;html=1;fontSize=17;verticalAlign=middle;" parent="1" vertex="1">
          <mxGeometry x="1880" y="1280" width="140" height="80" as="geometry" />
        </mxCell>
        <mxCell id="BvnVw-4qKByz3GFjecwE-18" value="N" style="edgeStyle=orthogonalEdgeStyle;rounded=0;orthogonalLoop=1;jettySize=auto;html=1;exitX=0;exitY=0.5;exitDx=0;exitDy=0;fontSize=17;entryX=0.5;entryY=0;entryDx=0;entryDy=0;" parent="1" source="BvnVw-4qKByz3GFjecwE-3" target="BvnVw-4qKByz3GFjecwE-6" edge="1">
          <mxGeometry relative="1" as="geometry">
            <mxPoint x="2050" y="1370" as="targetPoint" />
            <Array as="points">
              <mxPoint x="2120" y="1360" />
              <mxPoint x="2120" y="1360" />
            </Array>
          </mxGeometry>
        </mxCell>
        <mxCell id="BvnVw-4qKByz3GFjecwE-19" value="Y" style="edgeStyle=orthogonalEdgeStyle;rounded=0;orthogonalLoop=1;jettySize=auto;html=1;exitX=1;exitY=0.5;exitDx=0;exitDy=0;entryX=0.5;entryY=0;entryDx=0;entryDy=0;fontSize=17;" parent="1" source="BvnVw-4qKByz3GFjecwE-3" target="BvnVw-4qKByz3GFjecwE-7" edge="1">
          <mxGeometry x="0.4286" y="10" relative="1" as="geometry">
            <mxPoint x="2280" y="1330" as="sourcePoint" />
            <Array as="points">
              <mxPoint x="2270" y="1320" />
            </Array>
            <mxPoint as="offset" />
            <mxPoint x="2270.0000000000005" y="1360" as="targetPoint" />
          </mxGeometry>
        </mxCell>
        <mxCell id="BvnVw-4qKByz3GFjecwE-3" value="&lt;div style=&quot;font-size: 17px;&quot;&gt;Page &lt;br style=&quot;font-size: 17px;&quot;&gt;&lt;/div&gt;&lt;div style=&quot;font-size: 17px;&quot;&gt;&amp;nbsp;present?&lt;/div&gt;" style="rhombus;whiteSpace=wrap;html=1;fontSize=17;" parent="1" vertex="1">
          <mxGeometry x="2120" y="1280" width="120" height="80" as="geometry" />
        </mxCell>
        <mxCell id="BvnVw-4qKByz3GFjecwE-4" value="&lt;div style=&quot;font-size: 17px;&quot;&gt;Allocate&lt;/div&gt;&lt;div style=&quot;font-size: 17px;&quot;&gt;anonymous page&lt;/div&gt;" style="rounded=0;whiteSpace=wrap;html=1;fontSize=17;verticalAlign=middle;fillColor=none;labelBackgroundColor=#FFFFFF;" parent="1" vertex="1">
          <mxGeometry x="1970" y="1400" width="100" height="80" as="geometry" />
        </mxCell>
        <mxCell id="BvnVw-4qKByz3GFjecwE-22" style="edgeStyle=orthogonalEdgeStyle;rounded=0;orthogonalLoop=1;jettySize=auto;html=1;exitX=0.5;exitY=1;exitDx=0;exitDy=0;entryX=0.5;entryY=0;entryDx=0;entryDy=0;fontSize=17;" parent="1" source="BvnVw-4qKByz3GFjecwE-5" target="BvnVw-4qKByz3GFjecwE-8" edge="1">
          <mxGeometry relative="1" as="geometry">
            <mxPoint x="1860" y="1540" as="targetPoint" />
            <mxPoint x="1880" y="1500" as="sourcePoint" />
          </mxGeometry>
        </mxCell>
        <mxCell id="BvnVw-4qKByz3GFjecwE-5" value="&lt;div style=&quot;font-size: 17px;&quot;&gt;Allocate page &lt;br style=&quot;font-size: 17px;&quot;&gt;&lt;/div&gt;&lt;div style=&quot;font-size: 17px;&quot;&gt;from file&lt;/div&gt;" style="rounded=0;whiteSpace=wrap;html=1;fontSize=17;fillColor=none;labelBackgroundColor=#FFFFFF;" parent="1" vertex="1">
          <mxGeometry x="1840" y="1400" width="80" height="80" as="geometry" />
        </mxCell>
        <mxCell id="BvnVw-4qKByz3GFjecwE-74" style="edgeStyle=orthogonalEdgeStyle;rounded=0;orthogonalLoop=1;jettySize=auto;html=1;exitX=0.5;exitY=1;exitDx=0;exitDy=0;entryX=0.5;entryY=0;entryDx=0;entryDy=0;fontSize=17;" parent="1" source="BvnVw-4qKByz3GFjecwE-6" target="BvnVw-4qKByz3GFjecwE-73" edge="1">
          <mxGeometry relative="1" as="geometry">
            <mxPoint x="2040" y="1540" as="targetPoint" />
            <Array as="points">
              <mxPoint x="2120" y="1530" />
              <mxPoint x="2040" y="1530" />
            </Array>
            <mxPoint x="2120.0000000000005" y="1500" as="sourcePoint" />
          </mxGeometry>
        </mxCell>
        <mxCell id="BvnVw-4qKByz3GFjecwE-6" value="Swap-in page" style="rounded=0;whiteSpace=wrap;html=1;fontSize=17;fillColor=none;labelBackgroundColor=#FFFFFF;" parent="1" vertex="1">
          <mxGeometry x="2080" y="1400" width="80" height="80" as="geometry" />
        </mxCell>
        <mxCell id="BvnVw-4qKByz3GFjecwE-23" value="N" style="edgeStyle=orthogonalEdgeStyle;rounded=0;orthogonalLoop=1;jettySize=auto;html=1;exitX=0;exitY=0.5;exitDx=0;exitDy=0;entryX=0.5;entryY=0;entryDx=0;entryDy=0;fontSize=17;" parent="1" source="BvnVw-4qKByz3GFjecwE-7" target="BvnVw-4qKByz3GFjecwE-9" edge="1">
          <mxGeometry x="-0.2227" relative="1" as="geometry">
            <mxPoint x="2180" y="1520" as="targetPoint" />
            <mxPoint as="offset" />
          </mxGeometry>
        </mxCell>
        <mxCell id="BvnVw-4qKByz3GFjecwE-24" value="Y" style="edgeStyle=orthogonalEdgeStyle;rounded=0;orthogonalLoop=1;jettySize=auto;html=1;exitX=1;exitY=0.5;exitDx=0;exitDy=0;fontSize=17;entryX=0.5;entryY=0;entryDx=0;entryDy=0;" parent="1" source="BvnVw-4qKByz3GFjecwE-7" target="BvnVw-4qKByz3GFjecwE-11" edge="1">
          <mxGeometry relative="1" as="geometry">
            <mxPoint x="2320" y="1500" as="targetPoint" />
            <Array as="points">
              <mxPoint x="2320" y="1450" />
              <mxPoint x="2320" y="1450" />
            </Array>
          </mxGeometry>
        </mxCell>
        <mxCell id="BvnVw-4qKByz3GFjecwE-7" value="&lt;div&gt;COW&lt;/div&gt;&lt;div&gt;page?&lt;/div&gt;" style="rhombus;whiteSpace=wrap;html=1;fontSize=17;" parent="1" vertex="1">
          <mxGeometry x="2220" y="1400" width="100" height="80" as="geometry" />
        </mxCell>
        <mxCell id="BvnVw-4qKByz3GFjecwE-28" value="Y" style="edgeStyle=orthogonalEdgeStyle;rounded=0;orthogonalLoop=1;jettySize=auto;html=1;exitX=1;exitY=0.5;exitDx=0;exitDy=0;fontSize=17;entryX=0.5;entryY=0;entryDx=0;entryDy=0;" parent="1" target="BvnVw-4qKByz3GFjecwE-13" edge="1">
          <mxGeometry x="-0.5297" relative="1" as="geometry">
            <mxPoint x="2080" y="1740" as="targetPoint" />
            <Array as="points">
              <mxPoint x="1950" y="1630" />
              <mxPoint x="1950" y="1740" />
              <mxPoint x="1980" y="1740" />
            </Array>
            <mxPoint as="offset" />
            <mxPoint x="1940.0000000000005" y="1630" as="sourcePoint" />
          </mxGeometry>
        </mxCell>
        <mxCell id="BvnVw-4qKByz3GFjecwE-71" value="N" style="edgeStyle=orthogonalEdgeStyle;rounded=0;orthogonalLoop=1;jettySize=auto;html=1;exitX=0;exitY=0.5;exitDx=0;exitDy=0;fontSize=17;entryX=0.5;entryY=0;entryDx=0;entryDy=0;" parent="1" target="BvnVw-4qKByz3GFjecwE-72" edge="1">
          <mxGeometry x="0.1108" relative="1" as="geometry">
            <mxPoint x="1780" y="1650" as="targetPoint" />
            <Array as="points">
              <mxPoint x="1800" y="1630" />
              <mxPoint x="1800" y="1680" />
            </Array>
            <mxPoint x="1820" y="1630" as="sourcePoint" />
            <mxPoint as="offset" />
          </mxGeometry>
        </mxCell>
        <mxCell id="BvnVw-4qKByz3GFjecwE-8" value="&lt;div style=&quot;font-size: 17px;&quot;&gt;Midas&lt;/div&gt;&lt;div style=&quot;font-size: 17px;&quot;&gt;&amp;nbsp;protected?&lt;br style=&quot;font-size: 17px;&quot;&gt;&lt;/div&gt;" style="rhombus;whiteSpace=wrap;html=1;fontSize=17;" parent="1" vertex="1">
          <mxGeometry x="1820" y="1580" width="120" height="100" as="geometry" />
        </mxCell>
        <mxCell id="BvnVw-4qKByz3GFjecwE-27" value="" style="edgeStyle=orthogonalEdgeStyle;rounded=0;orthogonalLoop=1;jettySize=auto;html=1;exitX=0;exitY=0.5;exitDx=0;exitDy=0;entryX=0.5;entryY=0;entryDx=0;entryDy=0;fontSize=17;" parent="1" target="BvnVw-4qKByz3GFjecwE-13" edge="1">
          <mxGeometry x="-0.5556" relative="1" as="geometry">
            <Array as="points">
              <mxPoint x="2110" y="1630" />
              <mxPoint x="2110" y="1740" />
              <mxPoint x="1980" y="1740" />
            </Array>
            <mxPoint as="offset" />
            <mxPoint x="2120.0000000000005" y="1630" as="sourcePoint" />
          </mxGeometry>
        </mxCell>
        <mxCell id="BvnVw-4qKByz3GFjecwE-70" value="N" style="edgeStyle=orthogonalEdgeStyle;rounded=0;orthogonalLoop=1;jettySize=auto;html=1;entryX=0.5;entryY=0;entryDx=0;entryDy=0;fontSize=17;exitX=0.5;exitY=1;exitDx=0;exitDy=0;" parent="1" source="BvnVw-4qKByz3GFjecwE-9" target="BvnVw-4qKByz3GFjecwE-69" edge="1">
          <mxGeometry x="-0.2" relative="1" as="geometry">
            <Array as="points" />
            <mxPoint as="offset" />
            <mxPoint x="2180.0000000000005" y="1660" as="sourcePoint" />
          </mxGeometry>
        </mxCell>
        <mxCell id="BvnVw-4qKByz3GFjecwE-9" value="&lt;div style=&quot;font-size: 17px;&quot;&gt;Midas&lt;/div&gt;&lt;div style=&quot;font-size: 17px;&quot;&gt;&amp;nbsp;protected?&lt;br style=&quot;font-size: 17px;&quot;&gt;&lt;/div&gt;" style="rhombus;whiteSpace=wrap;html=1;fontSize=17;" parent="1" vertex="1">
          <mxGeometry x="2120" y="1580" width="120" height="100" as="geometry" />
        </mxCell>
        <mxCell id="BvnVw-4qKByz3GFjecwE-26" value="Y" style="edgeStyle=orthogonalEdgeStyle;rounded=0;orthogonalLoop=1;jettySize=auto;html=1;exitX=0;exitY=0.5;exitDx=0;exitDy=0;entryX=0.5;entryY=0;entryDx=0;entryDy=0;fontSize=17;" parent="1" target="BvnVw-4qKByz3GFjecwE-12" edge="1">
          <mxGeometry x="-0.5385" relative="1" as="geometry">
            <Array as="points">
              <mxPoint x="2260" y="1710" />
              <mxPoint x="2260" y="1710" />
            </Array>
            <mxPoint x="2260.0000000000005" y="1630" as="sourcePoint" />
            <mxPoint as="offset" />
          </mxGeometry>
        </mxCell>
        <mxCell id="BvnVw-4qKByz3GFjecwE-32" value="N" style="edgeStyle=orthogonalEdgeStyle;rounded=0;orthogonalLoop=1;jettySize=auto;html=1;exitX=1;exitY=0.5;exitDx=0;exitDy=0;fontSize=17;" parent="1" edge="1">
          <mxGeometry x="-0.4495" relative="1" as="geometry">
            <Array as="points">
              <mxPoint x="2380" y="1739" />
            </Array>
            <mxPoint x="2380" y="1739" as="targetPoint" />
            <mxPoint x="2380.0000000000005" y="1630" as="sourcePoint" />
            <mxPoint as="offset" />
          </mxGeometry>
        </mxCell>
        <mxCell id="BvnVw-4qKByz3GFjecwE-10" value="&lt;div style=&quot;font-size: 17px;&quot;&gt;Midas&lt;/div&gt;&lt;div style=&quot;font-size: 17px;&quot;&gt;&amp;nbsp;protected?&lt;br style=&quot;font-size: 17px;&quot;&gt;&lt;/div&gt;" style="rhombus;whiteSpace=wrap;html=1;fontSize=17;" parent="1" vertex="1">
          <mxGeometry x="2260" y="1580" width="120" height="100" as="geometry" />
        </mxCell>
        <mxCell id="BvnVw-4qKByz3GFjecwE-25" style="edgeStyle=orthogonalEdgeStyle;rounded=0;orthogonalLoop=1;jettySize=auto;html=1;exitX=0.5;exitY=1;exitDx=0;exitDy=0;fontSize=17;entryX=0.5;entryY=0;entryDx=0;entryDy=0;" parent="1" source="BvnVw-4qKByz3GFjecwE-11" target="BvnVw-4qKByz3GFjecwE-10" edge="1">
          <mxGeometry relative="1" as="geometry">
            <mxPoint x="2320" y="1560" as="targetPoint" />
          </mxGeometry>
        </mxCell>
        <mxCell id="BvnVw-4qKByz3GFjecwE-11" value="Duplicate page" style="rounded=0;whiteSpace=wrap;html=1;fontSize=17;fillColor=none;labelBackgroundColor=#FFFFFF;" parent="1" vertex="1">
          <mxGeometry x="2280" y="1500" width="80" height="60" as="geometry" />
        </mxCell>
        <mxCell id="BvnVw-4qKByz3GFjecwE-29" style="edgeStyle=orthogonalEdgeStyle;rounded=0;orthogonalLoop=1;jettySize=auto;html=1;exitX=0;exitY=0.5;exitDx=0;exitDy=0;entryX=1;entryY=0.5;entryDx=0;entryDy=0;fontSize=17;" parent="1" source="BvnVw-4qKByz3GFjecwE-12" target="BvnVw-4qKByz3GFjecwE-13" edge="1">
          <mxGeometry relative="1" as="geometry" />
        </mxCell>
        <mxCell id="BvnVw-4qKByz3GFjecwE-12" value="Move snapshots to correct page" style="rounded=0;whiteSpace=wrap;html=1;fontSize=17;" parent="1" vertex="1">
          <mxGeometry x="2200" y="1760" width="120" height="80" as="geometry" />
        </mxCell>
        <mxCell id="BvnVw-4qKByz3GFjecwE-13" value="&lt;div style=&quot;font-size: 17px;&quot;&gt;Create page copy,&lt;/div&gt;&lt;div style=&quot;font-size: 17px;&quot;&gt;state transition&lt;br style=&quot;font-size: 17px;&quot;&gt;&lt;/div&gt;" style="rounded=0;whiteSpace=wrap;html=1;fontSize=17;" parent="1" vertex="1">
          <mxGeometry x="1920" y="1760" width="120" height="80" as="geometry" />
        </mxCell>
        <mxCell id="BvnVw-4qKByz3GFjecwE-31" value="Done" style="text;html=1;strokeColor=none;fillColor=none;align=center;verticalAlign=middle;whiteSpace=wrap;rounded=0;fontSize=17;" parent="1" vertex="1">
          <mxGeometry x="2360" y="1740" width="40" height="20" as="geometry" />
        </mxCell>
        <mxCell id="BvnVw-4qKByz3GFjecwE-33" value="&lt;div style=&quot;font-size: 17px;&quot;&gt;PTE&lt;/div&gt;&lt;div style=&quot;font-size: 17px;&quot;&gt;protection&lt;/div&gt;&lt;div style=&quot;font-size: 17px;&quot;&gt;fault&lt;br style=&quot;font-size: 17px;&quot;&gt;&lt;/div&gt;" style="text;html=1;strokeColor=none;fillColor=none;align=center;verticalAlign=middle;whiteSpace=wrap;rounded=0;fontSize=17;" parent="1" vertex="1">
          <mxGeometry x="2260" y="1240" width="60" height="60" as="geometry" />
        </mxCell>
        <mxCell id="BvnVw-4qKByz3GFjecwE-35" value="COW" style="rounded=0;whiteSpace=wrap;html=1;fontSize=18;verticalAlign=middle;rotation=90;" parent="1" vertex="1">
          <mxGeometry x="940" y="1900" width="80" height="40" as="geometry" />
        </mxCell>
        <mxCell id="BvnVw-4qKByz3GFjecwE-38" value="COW" style="rounded=0;whiteSpace=wrap;html=1;fontSize=18;verticalAlign=middle;rotation=90;" parent="1" vertex="1">
          <mxGeometry x="1080" y="1900" width="80" height="40" as="geometry" />
        </mxCell>
        <mxCell id="BvnVw-4qKByz3GFjecwE-40" value="B" style="rounded=0;whiteSpace=wrap;html=1;fontSize=18;verticalAlign=middle;" parent="1" vertex="1">
          <mxGeometry x="1180" y="1880" width="40" height="80" as="geometry" />
        </mxCell>
        <mxCell id="BvnVw-4qKByz3GFjecwE-43" value="&lt;div style=&quot;font-size: 18px;&quot;&gt;B&lt;/div&gt;&lt;div style=&quot;font-size: 18px;&quot;&gt;C&lt;sub style=&quot;font-size: 18px;&quot;&gt;0&lt;/sub&gt;&lt;br style=&quot;font-size: 18px;&quot;&gt;&lt;/div&gt;" style="rounded=0;whiteSpace=wrap;html=1;fontSize=18;verticalAlign=middle;" parent="1" vertex="1">
          <mxGeometry x="1360" y="1880" width="40" height="80" as="geometry" />
        </mxCell>
        <mxCell id="BvnVw-4qKByz3GFjecwE-49" style="edgeStyle=orthogonalEdgeStyle;rounded=0;orthogonalLoop=1;jettySize=auto;html=1;exitX=0.5;exitY=0;exitDx=0;exitDy=0;entryX=0.75;entryY=1;entryDx=0;entryDy=0;fontSize=18;" parent="1" source="BvnVw-4qKByz3GFjecwE-45" target="BvnVw-4qKByz3GFjecwE-35" edge="1">
          <mxGeometry relative="1" as="geometry">
            <Array as="points">
              <mxPoint x="940" y="1940" />
            </Array>
          </mxGeometry>
        </mxCell>
        <mxCell id="BvnVw-4qKByz3GFjecwE-45" value="S&lt;sub style=&quot;font-size: 18px;&quot;&gt;A&lt;/sub&gt;" style="text;html=1;strokeColor=none;fillColor=none;align=center;verticalAlign=middle;whiteSpace=wrap;rounded=0;fontSize=18;" parent="1" vertex="1">
          <mxGeometry x="920" y="1960" width="40" height="20" as="geometry" />
        </mxCell>
        <mxCell id="BvnVw-4qKByz3GFjecwE-50" style="edgeStyle=orthogonalEdgeStyle;rounded=0;orthogonalLoop=1;jettySize=auto;html=1;exitX=0.5;exitY=0;exitDx=0;exitDy=0;entryX=0.75;entryY=0;entryDx=0;entryDy=0;fontSize=18;" parent="1" source="BvnVw-4qKByz3GFjecwE-46" target="BvnVw-4qKByz3GFjecwE-35" edge="1">
          <mxGeometry relative="1" as="geometry">
            <Array as="points">
              <mxPoint x="1020" y="1940" />
            </Array>
          </mxGeometry>
        </mxCell>
        <mxCell id="BvnVw-4qKByz3GFjecwE-46" value="S&lt;sub style=&quot;font-size: 18px;&quot;&gt;B&lt;/sub&gt;" style="text;html=1;strokeColor=none;fillColor=none;align=center;verticalAlign=middle;whiteSpace=wrap;rounded=0;fontSize=18;" parent="1" vertex="1">
          <mxGeometry x="1000" y="1960" width="40" height="20" as="geometry" />
        </mxCell>
        <mxCell id="BvnVw-4qKByz3GFjecwE-51" style="edgeStyle=orthogonalEdgeStyle;rounded=0;orthogonalLoop=1;jettySize=auto;html=1;exitX=0.5;exitY=0;exitDx=0;exitDy=0;entryX=0;entryY=0.75;entryDx=0;entryDy=0;fontSize=18;" parent="1" source="BvnVw-4qKByz3GFjecwE-52" edge="1">
          <mxGeometry relative="1" as="geometry">
            <mxPoint x="1100" y="1940" as="targetPoint" />
            <Array as="points">
              <mxPoint x="1080" y="1940" />
            </Array>
          </mxGeometry>
        </mxCell>
        <mxCell id="BvnVw-4qKByz3GFjecwE-52" value="S&lt;sub style=&quot;font-size: 18px;&quot;&gt;A&lt;/sub&gt;" style="text;html=1;strokeColor=none;fillColor=none;align=center;verticalAlign=middle;whiteSpace=wrap;rounded=0;fontSize=18;" parent="1" vertex="1">
          <mxGeometry x="1060" y="1960" width="40" height="20" as="geometry" />
        </mxCell>
        <mxCell id="BvnVw-4qKByz3GFjecwE-53" style="edgeStyle=orthogonalEdgeStyle;rounded=0;orthogonalLoop=1;jettySize=auto;html=1;exitX=0.5;exitY=0;exitDx=0;exitDy=0;entryX=0;entryY=0.75;entryDx=0;entryDy=0;fontSize=18;" parent="1" source="BvnVw-4qKByz3GFjecwE-54" target="BvnVw-4qKByz3GFjecwE-40" edge="1">
          <mxGeometry relative="1" as="geometry">
            <mxPoint x="1140" y="1940" as="targetPoint" />
            <Array as="points">
              <mxPoint x="1160" y="1940" />
            </Array>
          </mxGeometry>
        </mxCell>
        <mxCell id="BvnVw-4qKByz3GFjecwE-54" value="S&lt;sub style=&quot;font-size: 18px;&quot;&gt;B&lt;/sub&gt;" style="text;html=1;strokeColor=none;fillColor=none;align=center;verticalAlign=middle;whiteSpace=wrap;rounded=0;fontSize=18;" parent="1" vertex="1">
          <mxGeometry x="1140" y="1960" width="40" height="20" as="geometry" />
        </mxCell>
        <mxCell id="BvnVw-4qKByz3GFjecwE-58" style="edgeStyle=orthogonalEdgeStyle;rounded=0;orthogonalLoop=1;jettySize=auto;html=1;exitX=0.5;exitY=0;exitDx=0;exitDy=0;entryX=0;entryY=0.75;entryDx=0;entryDy=0;fontSize=18;" parent="1" source="BvnVw-4qKByz3GFjecwE-61" edge="1">
          <mxGeometry relative="1" as="geometry">
            <mxPoint x="1280" y="1940" as="targetPoint" />
            <Array as="points">
              <mxPoint x="1260" y="1940" />
            </Array>
          </mxGeometry>
        </mxCell>
        <mxCell id="BvnVw-4qKByz3GFjecwE-59" style="edgeStyle=orthogonalEdgeStyle;rounded=0;orthogonalLoop=1;jettySize=auto;html=1;exitX=0.5;exitY=0;exitDx=0;exitDy=0;entryX=0;entryY=0.75;entryDx=0;entryDy=0;fontSize=18;" parent="1" source="BvnVw-4qKByz3GFjecwE-60" edge="1">
          <mxGeometry relative="1" as="geometry">
            <mxPoint x="1360" y="1940" as="targetPoint" />
            <Array as="points">
              <mxPoint x="1340" y="1940" />
            </Array>
          </mxGeometry>
        </mxCell>
        <mxCell id="BvnVw-4qKByz3GFjecwE-60" value="S&lt;sub style=&quot;font-size: 18px;&quot;&gt;B&lt;/sub&gt;" style="text;html=1;strokeColor=none;fillColor=none;align=center;verticalAlign=middle;whiteSpace=wrap;rounded=0;fontSize=18;" parent="1" vertex="1">
          <mxGeometry x="1320" y="1960" width="40" height="20" as="geometry" />
        </mxCell>
        <mxCell id="BvnVw-4qKByz3GFjecwE-61" value="S&lt;sub style=&quot;font-size: 18px;&quot;&gt;A&lt;/sub&gt;" style="text;html=1;strokeColor=none;fillColor=none;align=center;verticalAlign=middle;whiteSpace=wrap;rounded=0;fontSize=18;" parent="1" vertex="1">
          <mxGeometry x="1240" y="1960" width="40" height="20" as="geometry" />
        </mxCell>
        <mxCell id="BvnVw-4qKByz3GFjecwE-62" value="&lt;div style=&quot;font-size: 18px;&quot;&gt;Before COW&lt;/div&gt;&lt;div style=&quot;font-size: 18px;&quot;&gt;duplication&lt;br style=&quot;font-size: 18px;&quot;&gt;&lt;/div&gt;" style="text;html=1;strokeColor=none;fillColor=none;align=center;verticalAlign=middle;whiteSpace=wrap;rounded=0;fontSize=18;" parent="1" vertex="1">
          <mxGeometry x="920" y="1800" width="120" height="40" as="geometry" />
        </mxCell>
        <mxCell id="BvnVw-4qKByz3GFjecwE-64" value="&lt;div style=&quot;font-size: 18px;&quot;&gt;After COW&lt;/div&gt;&lt;div style=&quot;font-size: 18px;&quot;&gt;duplication&lt;br style=&quot;font-size: 18px;&quot;&gt;&lt;/div&gt;" style="text;html=1;strokeColor=none;fillColor=none;align=center;verticalAlign=middle;whiteSpace=wrap;rounded=0;fontSize=18;" parent="1" vertex="1">
          <mxGeometry x="1070" y="1800" width="150" height="40" as="geometry" />
        </mxCell>
        <mxCell id="BvnVw-4qKByz3GFjecwE-65" value="&lt;div style=&quot;font-size: 18px;&quot;&gt;After COW duplication&lt;/div&gt;&lt;div style=&quot;font-size: 18px;&quot;&gt;+ Midas state change&lt;br style=&quot;font-size: 18px;&quot;&gt;&lt;/div&gt;" style="text;html=1;strokeColor=none;fillColor=none;align=center;verticalAlign=middle;whiteSpace=wrap;rounded=0;fontSize=18;" parent="1" vertex="1">
          <mxGeometry x="1240" y="1800" width="200" height="40" as="geometry" />
        </mxCell>
        <mxCell id="BvnVw-4qKByz3GFjecwE-66" value="" style="endArrow=none;dashed=1;html=1;strokeWidth=2;fontSize=18;" parent="1" edge="1">
          <mxGeometry width="50" height="50" relative="1" as="geometry">
            <mxPoint x="1050" y="1800" as="sourcePoint" />
            <mxPoint x="1050" y="1980" as="targetPoint" />
          </mxGeometry>
        </mxCell>
        <mxCell id="BvnVw-4qKByz3GFjecwE-67" value="" style="endArrow=none;dashed=1;html=1;strokeWidth=2;fontSize=18;" parent="1" edge="1">
          <mxGeometry width="50" height="50" relative="1" as="geometry">
            <mxPoint x="1239" y="1800" as="sourcePoint" />
            <mxPoint x="1239" y="1980" as="targetPoint" />
          </mxGeometry>
        </mxCell>
        <mxCell id="BvnVw-4qKByz3GFjecwE-69" value="FAULT" style="text;html=1;strokeColor=none;fillColor=none;align=center;verticalAlign=middle;whiteSpace=wrap;rounded=0;fontSize=17;" parent="1" vertex="1">
          <mxGeometry x="2160" y="1730" width="40" height="20" as="geometry" />
        </mxCell>
        <mxCell id="BvnVw-4qKByz3GFjecwE-72" value="Done" style="text;html=1;strokeColor=none;fillColor=none;align=center;verticalAlign=middle;whiteSpace=wrap;rounded=0;fontSize=17;" parent="1" vertex="1">
          <mxGeometry x="1780" y="1700" width="40" height="20" as="geometry" />
        </mxCell>
        <mxCell id="BvnVw-4qKByz3GFjecwE-75" value="Y" style="edgeStyle=orthogonalEdgeStyle;rounded=0;orthogonalLoop=1;jettySize=auto;html=1;exitX=1;exitY=0.5;exitDx=0;exitDy=0;entryX=0.5;entryY=0;entryDx=0;entryDy=0;fontSize=17;" parent="1" target="BvnVw-4qKByz3GFjecwE-13" edge="1">
          <mxGeometry x="-0.7039" relative="1" as="geometry">
            <Array as="points">
              <mxPoint x="2110" y="1630" />
              <mxPoint x="2110" y="1740" />
              <mxPoint x="1980" y="1740" />
            </Array>
            <mxPoint as="offset" />
            <mxPoint x="2100.0000000000005" y="1630" as="sourcePoint" />
          </mxGeometry>
        </mxCell>
        <mxCell id="BvnVw-4qKByz3GFjecwE-77" value="N" style="edgeStyle=orthogonalEdgeStyle;rounded=0;orthogonalLoop=1;jettySize=auto;html=1;exitX=0;exitY=0.5;exitDx=0;exitDy=0;entryX=0.5;entryY=0;entryDx=0;entryDy=0;fontSize=17;" parent="1" target="BvnVw-4qKByz3GFjecwE-76" edge="1">
          <mxGeometry x="-0.1488" relative="1" as="geometry">
            <Array as="points" />
            <mxPoint x="1980.0000000000005" y="1630" as="sourcePoint" />
            <mxPoint as="offset" />
          </mxGeometry>
        </mxCell>
        <mxCell id="BvnVw-4qKByz3GFjecwE-73" value="&lt;div style=&quot;font-size: 17px;&quot;&gt;Midas&lt;/div&gt;&lt;div style=&quot;font-size: 17px;&quot;&gt;&amp;nbsp;protected?&lt;br style=&quot;font-size: 17px;&quot;&gt;&lt;/div&gt;" style="rhombus;whiteSpace=wrap;html=1;fontSize=17;" parent="1" vertex="1">
          <mxGeometry x="1980" y="1580" width="120" height="100" as="geometry" />
        </mxCell>
        <mxCell id="BvnVw-4qKByz3GFjecwE-76" value="Done" style="text;html=1;strokeColor=none;fillColor=none;align=center;verticalAlign=middle;whiteSpace=wrap;rounded=0;fontSize=17;" parent="1" vertex="1">
          <mxGeometry x="1960" y="1700" width="40" height="20" as="geometry" />
        </mxCell>
        <mxCell id="BvnVw-4qKByz3GFjecwE-80" value="0" style="text;html=1;strokeColor=none;fillColor=none;align=center;verticalAlign=middle;whiteSpace=wrap;rounded=0;labelBackgroundColor=#FFFFFF;fontSize=13;" parent="1" vertex="1">
          <mxGeometry x="160" y="840" width="20" height="20" as="geometry" />
        </mxCell>
        <mxCell id="BvnVw-4qKByz3GFjecwE-81" value="1" style="text;html=1;strokeColor=none;fillColor=none;align=center;verticalAlign=middle;whiteSpace=wrap;rounded=0;labelBackgroundColor=#FFFFFF;fontSize=13;" parent="1" vertex="1">
          <mxGeometry x="320" y="840" width="20" height="20" as="geometry" />
        </mxCell>
        <mxCell id="BvnVw-4qKByz3GFjecwE-82" value="2" style="text;html=1;strokeColor=none;fillColor=none;align=center;verticalAlign=middle;whiteSpace=wrap;rounded=0;labelBackgroundColor=#FFFFFF;fontSize=13;" parent="1" vertex="1">
          <mxGeometry x="480" y="840" width="20" height="20" as="geometry" />
        </mxCell>
        <mxCell id="BvnVw-4qKByz3GFjecwE-83" value="3" style="text;html=1;strokeColor=none;fillColor=none;align=center;verticalAlign=middle;whiteSpace=wrap;rounded=0;labelBackgroundColor=#FFFFFF;fontSize=13;" parent="1" vertex="1">
          <mxGeometry x="650" y="840" width="20" height="20" as="geometry" />
        </mxCell>
        <mxCell id="mjU4arz3Nz6LHvhh59oq-2" value="" style="rounded=0;whiteSpace=wrap;html=1;fillColor=none;fontSize=15;" parent="1" vertex="1">
          <mxGeometry x="440" y="1180" width="150" height="380" as="geometry" />
        </mxCell>
        <mxCell id="mjU4arz3Nz6LHvhh59oq-4" value="" style="rounded=0;whiteSpace=wrap;html=1;fillColor=none;fontSize=15;" parent="1" vertex="1">
          <mxGeometry x="730" y="1180" width="150" height="380" as="geometry" />
        </mxCell>
        <mxCell id="mjU4arz3Nz6LHvhh59oq-5" value="Target thread" style="rounded=0;whiteSpace=wrap;html=1;fillColor=none;fontSize=15;" parent="1" vertex="1">
          <mxGeometry x="440" y="1160" width="150" height="20" as="geometry" />
        </mxCell>
        <mxCell id="mjU4arz3Nz6LHvhh59oq-6" value="Attacker thread" style="rounded=0;whiteSpace=wrap;html=1;fillColor=none;fontSize=15;" parent="1" vertex="1">
          <mxGeometry x="730" y="1160" width="150" height="20" as="geometry" />
        </mxCell>
        <mxCell id="mjU4arz3Nz6LHvhh59oq-7" value="Memory state" style="rounded=0;whiteSpace=wrap;html=1;fillColor=none;fontSize=15;" parent="1" vertex="1">
          <mxGeometry x="590" y="1160" width="140" height="20" as="geometry" />
        </mxCell>
        <mxCell id="mjU4arz3Nz6LHvhh59oq-10" style="edgeStyle=orthogonalEdgeStyle;rounded=0;orthogonalLoop=1;jettySize=auto;html=1;exitX=0.5;exitY=1;exitDx=0;exitDy=0;entryX=0.5;entryY=0;entryDx=0;entryDy=0;fontSize=15;" parent="1" source="mjU4arz3Nz6LHvhh59oq-11" edge="1">
          <mxGeometry relative="1" as="geometry">
            <mxPoint x="530" y="1260" as="targetPoint" />
          </mxGeometry>
        </mxCell>
        <mxCell id="mjU4arz3Nz6LHvhh59oq-11" value="Enter a syscall" style="rounded=0;whiteSpace=wrap;html=1;fontSize=15;" parent="1" vertex="1">
          <mxGeometry x="460" y="1200" width="110" height="40" as="geometry" />
        </mxCell>
        <mxCell id="mjU4arz3Nz6LHvhh59oq-12" value="42" style="rounded=0;whiteSpace=wrap;html=1;fillColor=none;labelBackgroundColor=default;fontSize=15;" parent="1" vertex="1">
          <mxGeometry x="630" y="1200" width="40" height="20" as="geometry" />
        </mxCell>
        <mxCell id="mjU4arz3Nz6LHvhh59oq-13" value="43" style="rounded=0;whiteSpace=wrap;html=1;fillColor=none;labelBackgroundColor=default;fontSize=15;" parent="1" vertex="1">
          <mxGeometry x="630" y="1220" width="40" height="20" as="geometry" />
        </mxCell>
        <mxCell id="mjU4arz3Nz6LHvhh59oq-16" value="X" style="rounded=0;whiteSpace=wrap;html=1;fontSize=15;" parent="1" vertex="1">
          <mxGeometry x="610" y="1200" width="20" height="40" as="geometry" />
        </mxCell>
        <mxCell id="mjU4arz3Nz6LHvhh59oq-17" value="&lt;div style=&quot;font-size: 15px&quot;&gt;Read(X[0]) = 42&lt;br style=&quot;font-size: 15px&quot;&gt;&lt;/div&gt;" style="rounded=0;whiteSpace=wrap;html=1;fontSize=15;" parent="1" vertex="1">
          <mxGeometry x="460" y="1260" width="110" height="40" as="geometry" />
        </mxCell>
        <mxCell id="mjU4arz3Nz6LHvhh59oq-18" value="&lt;div style=&quot;font-size: 15px&quot;&gt;Read(X[1]) = 0&lt;br style=&quot;font-size: 15px&quot;&gt;&lt;/div&gt;" style="rounded=0;whiteSpace=wrap;html=1;fontSize=15;" parent="1" vertex="1">
          <mxGeometry x="460" y="1340" width="110" height="40" as="geometry" />
        </mxCell>
        <mxCell id="mjU4arz3Nz6LHvhh59oq-19" value="0" style="rounded=0;whiteSpace=wrap;html=1;fillColor=none;labelBackgroundColor=default;fontSize=15;" parent="1" vertex="1">
          <mxGeometry x="630" y="1320" width="40" height="20" as="geometry" />
        </mxCell>
        <mxCell id="mjU4arz3Nz6LHvhh59oq-20" value="42" style="rounded=0;whiteSpace=wrap;html=1;fillColor=none;labelBackgroundColor=default;fontSize=15;" parent="1" vertex="1">
          <mxGeometry x="630" y="1300" width="40" height="20" as="geometry" />
        </mxCell>
        <mxCell id="mjU4arz3Nz6LHvhh59oq-22" style="rounded=0;orthogonalLoop=1;jettySize=auto;html=1;exitX=0.5;exitY=1;exitDx=0;exitDy=0;entryX=1;entryY=0.5;entryDx=0;entryDy=0;edgeStyle=orthogonalEdgeStyle;fontSize=15;dashed=1;" parent="1" source="mjU4arz3Nz6LHvhh59oq-13" target="mjU4arz3Nz6LHvhh59oq-17" edge="1">
          <mxGeometry relative="1" as="geometry">
            <Array as="points">
              <mxPoint x="650" y="1280" />
            </Array>
          </mxGeometry>
        </mxCell>
        <mxCell id="mjU4arz3Nz6LHvhh59oq-21" value="X" style="rounded=0;whiteSpace=wrap;html=1;fontSize=15;" parent="1" vertex="1">
          <mxGeometry x="610" y="1300" width="20" height="40" as="geometry" />
        </mxCell>
        <mxCell id="mjU4arz3Nz6LHvhh59oq-24" style="edgeStyle=orthogonalEdgeStyle;rounded=0;orthogonalLoop=1;jettySize=auto;html=1;exitX=0;exitY=0.5;exitDx=0;exitDy=0;entryX=1;entryY=0.5;entryDx=0;entryDy=0;fontSize=15;dashed=1;" parent="1" source="mjU4arz3Nz6LHvhh59oq-23" target="mjU4arz3Nz6LHvhh59oq-19" edge="1">
          <mxGeometry relative="1" as="geometry">
            <Array as="points">
              <mxPoint x="720" y="1320" />
              <mxPoint x="720" y="1330" />
            </Array>
          </mxGeometry>
        </mxCell>
        <mxCell id="mjU4arz3Nz6LHvhh59oq-23" value="Write(X[1], 0)" style="rounded=0;whiteSpace=wrap;html=1;fontSize=15;" parent="1" vertex="1">
          <mxGeometry x="750" y="1300" width="110" height="40" as="geometry" />
        </mxCell>
        <mxCell id="mjU4arz3Nz6LHvhh59oq-27" value="" style="rounded=0;whiteSpace=wrap;html=1;labelBackgroundColor=#ffffff;sketch=1;strokeColor=none;fillStyle=cross-hatch;fillColor=#99CCFF;" parent="1" vertex="1">
          <mxGeometry x="477.5" y="1780" width="40" height="40" as="geometry" />
        </mxCell>
        <mxCell id="mjU4arz3Nz6LHvhh59oq-28" value="" style="rounded=0;whiteSpace=wrap;html=1;labelBackgroundColor=#ffffff;sketch=1;strokeColor=none;fillStyle=hachure;fillColor=#97D077;" parent="1" vertex="1">
          <mxGeometry x="520" y="1780" width="40" height="40" as="geometry" />
        </mxCell>
        <mxCell id="mjU4arz3Nz6LHvhh59oq-35" style="edgeStyle=orthogonalEdgeStyle;rounded=0;orthogonalLoop=1;jettySize=auto;html=1;exitX=0.5;exitY=1;exitDx=0;exitDy=0;entryX=1;entryY=0.5;entryDx=0;entryDy=0;fontSize=15;dashed=1;" parent="1" source="mjU4arz3Nz6LHvhh59oq-34" target="mjU4arz3Nz6LHvhh59oq-18" edge="1">
          <mxGeometry relative="1" as="geometry" />
        </mxCell>
        <mxCell id="mjU4arz3Nz6LHvhh59oq-36" value="10" style="rounded=0;whiteSpace=wrap;html=1;fillColor=none;labelBackgroundColor=default;fontSize=15;" parent="1" vertex="1">
          <mxGeometry x="670" y="1400" width="40" height="20" as="geometry" />
        </mxCell>
        <mxCell id="mjU4arz3Nz6LHvhh59oq-45" style="edgeStyle=orthogonalEdgeStyle;rounded=0;orthogonalLoop=1;jettySize=auto;html=1;exitX=0.5;exitY=1;exitDx=0;exitDy=0;entryX=1;entryY=0.5;entryDx=0;entryDy=0;fontSize=15;dashed=1;" parent="1" source="mjU4arz3Nz6LHvhh59oq-52" target="mjU4arz3Nz6LHvhh59oq-43" edge="1">
          <mxGeometry relative="1" as="geometry" />
        </mxCell>
        <mxCell id="mjU4arz3Nz6LHvhh59oq-46" style="edgeStyle=orthogonalEdgeStyle;rounded=0;orthogonalLoop=1;jettySize=auto;html=1;exitX=0.5;exitY=1;exitDx=0;exitDy=0;entryX=1;entryY=0.5;entryDx=0;entryDy=0;fontSize=15;dashed=1;" parent="1" source="mjU4arz3Nz6LHvhh59oq-52" target="mjU4arz3Nz6LHvhh59oq-44" edge="1">
          <mxGeometry relative="1" as="geometry" />
        </mxCell>
        <mxCell id="mjU4arz3Nz6LHvhh59oq-37" value="&lt;div style=&quot;font-size: 15px;&quot;&gt;0&lt;/div&gt;" style="rounded=0;whiteSpace=wrap;html=1;fillColor=none;labelBackgroundColor=default;fontSize=15;" parent="1" vertex="1">
          <mxGeometry x="630" y="1420" width="40" height="20" as="geometry" />
        </mxCell>
        <mxCell id="mjU4arz3Nz6LHvhh59oq-38" value="X" style="rounded=0;whiteSpace=wrap;html=1;fontSize=15;" parent="1" vertex="1">
          <mxGeometry x="610" y="1400" width="20" height="40" as="geometry" />
        </mxCell>
        <mxCell id="mjU4arz3Nz6LHvhh59oq-48" style="edgeStyle=orthogonalEdgeStyle;rounded=0;orthogonalLoop=1;jettySize=auto;html=1;exitX=0;exitY=0.5;exitDx=0;exitDy=0;entryX=1;entryY=0.5;entryDx=0;entryDy=0;fontSize=15;dashed=1;" parent="1" source="mjU4arz3Nz6LHvhh59oq-40" target="mjU4arz3Nz6LHvhh59oq-42" edge="1">
          <mxGeometry relative="1" as="geometry">
            <Array as="points">
              <mxPoint x="750" y="1450" />
              <mxPoint x="740" y="1450" />
              <mxPoint x="740" y="1430" />
            </Array>
          </mxGeometry>
        </mxCell>
        <mxCell id="mjU4arz3Nz6LHvhh59oq-40" value="Write(X[1], 20)" style="rounded=0;whiteSpace=wrap;html=1;fontSize=15;" parent="1" vertex="1">
          <mxGeometry x="750" y="1420" width="110" height="40" as="geometry" />
        </mxCell>
        <mxCell id="mjU4arz3Nz6LHvhh59oq-41" value="" style="rounded=0;whiteSpace=wrap;html=1;labelBackgroundColor=#ffffff;sketch=1;strokeColor=none;fillStyle=cross-hatch;fillColor=#99CCFF;fontSize=15;" parent="1" vertex="1">
          <mxGeometry x="670" y="1420" width="40" height="20" as="geometry" />
        </mxCell>
        <mxCell id="mjU4arz3Nz6LHvhh59oq-42" value="20" style="rounded=0;whiteSpace=wrap;html=1;fillColor=none;labelBackgroundColor=default;fontSize=15;" parent="1" vertex="1">
          <mxGeometry x="670" y="1420" width="40" height="20" as="geometry" />
        </mxCell>
        <mxCell id="mjU4arz3Nz6LHvhh59oq-43" value="&lt;div style=&quot;font-size: 15px&quot;&gt;Read(X[0]) = 42&lt;br style=&quot;font-size: 15px&quot;&gt;&lt;/div&gt;" style="rounded=0;whiteSpace=wrap;html=1;fontSize=15;" parent="1" vertex="1">
          <mxGeometry x="460" y="1460" width="110" height="40" as="geometry" />
        </mxCell>
        <mxCell id="mjU4arz3Nz6LHvhh59oq-44" value="&lt;div style=&quot;font-size: 15px&quot;&gt;Read(X[1]) = 0&lt;br style=&quot;font-size: 15px&quot;&gt;&lt;/div&gt;" style="rounded=0;whiteSpace=wrap;html=1;fontSize=15;" parent="1" vertex="1">
          <mxGeometry x="460" y="1500" width="110" height="40" as="geometry" />
        </mxCell>
        <mxCell id="mjU4arz3Nz6LHvhh59oq-49" value="" style="rounded=0;whiteSpace=wrap;html=1;labelBackgroundColor=#ffffff;sketch=1;strokeColor=none;fillStyle=hachure;fillColor=#97D077;fontSize=15;" parent="1" vertex="1">
          <mxGeometry x="630" y="1480" width="40" height="20" as="geometry" />
        </mxCell>
        <mxCell id="mjU4arz3Nz6LHvhh59oq-50" value="" style="rounded=0;whiteSpace=wrap;html=1;labelBackgroundColor=#ffffff;sketch=1;strokeColor=none;fillStyle=cross-hatch;fillColor=#99CCFF;fontSize=15;" parent="1" vertex="1">
          <mxGeometry x="670" y="1460" width="40" height="20" as="geometry" />
        </mxCell>
        <mxCell id="mjU4arz3Nz6LHvhh59oq-51" value="10" style="rounded=0;whiteSpace=wrap;html=1;fillColor=none;labelBackgroundColor=default;fontSize=15;" parent="1" vertex="1">
          <mxGeometry x="670" y="1460" width="40" height="20" as="geometry" />
        </mxCell>
        <mxCell id="mjU4arz3Nz6LHvhh59oq-52" value="&lt;div style=&quot;font-size: 15px;&quot;&gt;0&lt;/div&gt;" style="rounded=0;whiteSpace=wrap;html=1;fillColor=none;labelBackgroundColor=default;fontSize=15;" parent="1" vertex="1">
          <mxGeometry x="630" y="1480" width="40" height="20" as="geometry" />
        </mxCell>
        <mxCell id="mjU4arz3Nz6LHvhh59oq-53" value="X" style="rounded=0;whiteSpace=wrap;html=1;fontSize=15;" parent="1" vertex="1">
          <mxGeometry x="610" y="1460" width="20" height="40" as="geometry" />
        </mxCell>
        <mxCell id="mjU4arz3Nz6LHvhh59oq-54" value="" style="rounded=0;whiteSpace=wrap;html=1;labelBackgroundColor=#ffffff;sketch=1;strokeColor=none;fillStyle=cross-hatch;fillColor=#99CCFF;fontSize=15;" parent="1" vertex="1">
          <mxGeometry x="670" y="1480" width="40" height="20" as="geometry" />
        </mxCell>
        <mxCell id="mjU4arz3Nz6LHvhh59oq-63" style="edgeStyle=orthogonalEdgeStyle;rounded=0;orthogonalLoop=1;jettySize=auto;html=1;exitX=0.5;exitY=1;exitDx=0;exitDy=0;entryX=0;entryY=0.5;entryDx=0;entryDy=0;fontSize=15;dashed=1;" parent="1" source="mjU4arz3Nz6LHvhh59oq-55" target="mjU4arz3Nz6LHvhh59oq-62" edge="1">
          <mxGeometry relative="1" as="geometry" />
        </mxCell>
        <mxCell id="mjU4arz3Nz6LHvhh59oq-55" value="20" style="rounded=0;whiteSpace=wrap;html=1;fillColor=none;labelBackgroundColor=default;fontSize=15;" parent="1" vertex="1">
          <mxGeometry x="670" y="1480" width="40" height="20" as="geometry" />
        </mxCell>
        <mxCell id="mjU4arz3Nz6LHvhh59oq-56" value="42" style="rounded=0;whiteSpace=wrap;html=1;fillColor=none;labelBackgroundColor=default;fontSize=15;" parent="1" vertex="1">
          <mxGeometry x="630" y="1460" width="40" height="20" as="geometry" />
        </mxCell>
        <mxCell id="mjU4arz3Nz6LHvhh59oq-57" value="42" style="rounded=0;whiteSpace=wrap;html=1;fillColor=none;labelBackgroundColor=default;fontSize=15;" parent="1" vertex="1">
          <mxGeometry x="630" y="1400" width="40" height="20" as="geometry" />
        </mxCell>
        <mxCell id="mjU4arz3Nz6LHvhh59oq-61" style="edgeStyle=orthogonalEdgeStyle;rounded=0;orthogonalLoop=1;jettySize=auto;html=1;exitX=0;exitY=0.5;exitDx=0;exitDy=0;entryX=1;entryY=0.5;entryDx=0;entryDy=0;fontSize=15;dashed=1;" parent="1" source="mjU4arz3Nz6LHvhh59oq-60" target="mjU4arz3Nz6LHvhh59oq-36" edge="1">
          <mxGeometry relative="1" as="geometry">
            <Array as="points">
              <mxPoint x="740" y="1400" />
              <mxPoint x="740" y="1410" />
            </Array>
          </mxGeometry>
        </mxCell>
        <mxCell id="mjU4arz3Nz6LHvhh59oq-60" value="Write(X[0], 10)" style="rounded=0;whiteSpace=wrap;html=1;fontSize=15;" parent="1" vertex="1">
          <mxGeometry x="750" y="1380" width="110" height="40" as="geometry" />
        </mxCell>
        <mxCell id="mjU4arz3Nz6LHvhh59oq-62" value="&lt;div style=&quot;font-size: 15px&quot;&gt;Read(X[1]) = 20&lt;/div&gt;" style="rounded=0;whiteSpace=wrap;html=1;fontSize=15;" parent="1" vertex="1">
          <mxGeometry x="750" y="1500" width="110" height="40" as="geometry" />
        </mxCell>
        <mxCell id="hSm4koDUXmgNAm0xiuls-40" value="X=42" style="rounded=0;whiteSpace=wrap;html=1;fillColor=none;labelBackgroundColor=#FFFFFF;fontSize=15;" parent="1" vertex="1">
          <mxGeometry x="200" y="1940" width="40" height="40" as="geometry" />
        </mxCell>
        <mxCell id="mjU4arz3Nz6LHvhh59oq-64" value="" style="edgeStyle=orthogonalEdgeStyle;rounded=0;orthogonalLoop=1;jettySize=auto;html=1;exitX=1;exitY=0.5;exitDx=0;exitDy=0;entryX=0;entryY=0.5;entryDx=0;entryDy=0;dashed=1;endArrow=classic;endFill=1;fontSize=15;" parent="1" source="hSm4koDUXmgNAm0xiuls-38" target="hSm4koDUXmgNAm0xiuls-40" edge="1">
          <mxGeometry relative="1" as="geometry">
            <mxPoint x="160.0000000000001" y="1960" as="sourcePoint" />
            <mxPoint x="240" y="1960" as="targetPoint" />
          </mxGeometry>
        </mxCell>
        <mxCell id="yl-4TEsAoWh_5lJ3ylk3-2" value="COW" style="rounded=0;whiteSpace=wrap;html=1;fontSize=18;verticalAlign=middle;rotation=90;" parent="1" vertex="1">
          <mxGeometry x="1260" y="1900" width="80" height="40" as="geometry" />
        </mxCell>
        <mxCell id="yl-4TEsAoWh_5lJ3ylk3-14" value="L" style="rounded=0;whiteSpace=wrap;html=1;labelBackgroundColor=none;fontSize=13;align=center;verticalAlign=middle;strokeColor=none;fillColor=none;" parent="1" vertex="1">
          <mxGeometry x="190" y="720" width="20" height="20" as="geometry" />
        </mxCell>
        <mxCell id="yl-4TEsAoWh_5lJ3ylk3-15" style="edgeStyle=orthogonalEdgeStyle;rounded=0;orthogonalLoop=1;jettySize=auto;html=1;exitX=0.5;exitY=0;exitDx=0;exitDy=0;fontSize=13;" parent="1" source="yl-4TEsAoWh_5lJ3ylk3-14" edge="1">
          <mxGeometry relative="1" as="geometry">
            <mxPoint x="200" y="700" as="targetPoint" />
          </mxGeometry>
        </mxCell>
        <mxCell id="yl-4TEsAoWh_5lJ3ylk3-18" style="rounded=0;orthogonalLoop=1;jettySize=auto;html=1;exitX=0.5;exitY=0;exitDx=0;exitDy=0;entryX=0.25;entryY=1;entryDx=0;entryDy=0;fontSize=13;" parent="1" target="sgO2sDlPtiAHOV2v07FV-40" edge="1">
          <mxGeometry relative="1" as="geometry">
            <mxPoint x="340" y="719.9999999999998" as="sourcePoint" />
            <mxPoint x="350" y="700" as="targetPoint" />
          </mxGeometry>
        </mxCell>
        <mxCell id="yl-4TEsAoWh_5lJ3ylk3-20" style="rounded=0;orthogonalLoop=1;jettySize=auto;html=1;exitX=0.5;exitY=0;exitDx=0;exitDy=0;entryX=0.75;entryY=1;entryDx=0;entryDy=0;fontSize=13;" parent="1" target="sgO2sDlPtiAHOV2v07FV-40" edge="1">
          <mxGeometry relative="1" as="geometry">
            <mxPoint x="380" y="719.9999999999998" as="sourcePoint" />
            <mxPoint x="370" y="700" as="targetPoint" />
          </mxGeometry>
        </mxCell>
        <mxCell id="yl-4TEsAoWh_5lJ3ylk3-22" style="edgeStyle=none;rounded=0;orthogonalLoop=1;jettySize=auto;html=1;exitX=0.5;exitY=0;exitDx=0;exitDy=0;fontSize=13;" parent="1" edge="1">
          <mxGeometry relative="1" as="geometry">
            <mxPoint x="360" y="719.9999999999998" as="sourcePoint" />
            <mxPoint x="360" y="700" as="targetPoint" />
          </mxGeometry>
        </mxCell>
        <mxCell id="yl-4TEsAoWh_5lJ3ylk3-27" style="rounded=0;orthogonalLoop=1;jettySize=auto;html=1;exitX=0.5;exitY=0;exitDx=0;exitDy=0;entryX=0.25;entryY=1;entryDx=0;entryDy=0;fontSize=13;" parent="1" edge="1">
          <mxGeometry relative="1" as="geometry">
            <mxPoint x="490" y="719.9999999999998" as="sourcePoint" />
            <mxPoint x="490" y="700" as="targetPoint" />
          </mxGeometry>
        </mxCell>
        <mxCell id="yl-4TEsAoWh_5lJ3ylk3-29" style="rounded=0;orthogonalLoop=1;jettySize=auto;html=1;exitX=0.5;exitY=0;exitDx=0;exitDy=0;entryX=0.25;entryY=1;entryDx=0;entryDy=0;fontSize=13;align=left;" parent="1" target="sgO2sDlPtiAHOV2v07FV-43" edge="1">
          <mxGeometry relative="1" as="geometry">
            <mxPoint x="530" y="719.9999999999998" as="sourcePoint" />
            <mxPoint x="540" y="700" as="targetPoint" />
          </mxGeometry>
        </mxCell>
        <mxCell id="yl-4TEsAoWh_5lJ3ylk3-31" style="edgeStyle=none;rounded=0;orthogonalLoop=1;jettySize=auto;html=1;exitX=0.5;exitY=0;exitDx=0;exitDy=0;entryX=0.75;entryY=1;entryDx=0;entryDy=0;fontSize=13;" parent="1" edge="1">
          <mxGeometry relative="1" as="geometry">
            <mxPoint x="510" y="719.9999999999998" as="sourcePoint" />
            <mxPoint x="510" y="700" as="targetPoint" />
          </mxGeometry>
        </mxCell>
        <mxCell id="yl-4TEsAoWh_5lJ3ylk3-33" value="{&amp;nbsp;&amp;nbsp; }" style="text;html=1;strokeColor=none;fillColor=none;align=center;verticalAlign=middle;whiteSpace=wrap;rounded=0;labelBackgroundColor=none;fontSize=13;" parent="1" vertex="1">
          <mxGeometry x="180" y="720" width="40" height="20" as="geometry" />
        </mxCell>
        <mxCell id="yl-4TEsAoWh_5lJ3ylk3-38" style="rounded=0;orthogonalLoop=1;jettySize=auto;html=1;exitX=0.5;exitY=0;exitDx=0;exitDy=0;entryX=0.25;entryY=1;entryDx=0;entryDy=0;fontSize=13;" parent="1" edge="1">
          <mxGeometry relative="1" as="geometry">
            <mxPoint x="650" y="719.9999999999998" as="sourcePoint" />
            <mxPoint x="650" y="700" as="targetPoint" />
          </mxGeometry>
        </mxCell>
        <mxCell id="yl-4TEsAoWh_5lJ3ylk3-40" style="rounded=0;orthogonalLoop=1;jettySize=auto;html=1;exitX=0.5;exitY=0;exitDx=0;exitDy=0;fontSize=13;" parent="1" edge="1">
          <mxGeometry relative="1" as="geometry">
            <mxPoint x="710" y="719.9999999999998" as="sourcePoint" />
            <mxPoint x="710" y="700" as="targetPoint" />
            <Array as="points">
              <mxPoint x="710" y="700" />
            </Array>
          </mxGeometry>
        </mxCell>
        <mxCell id="yl-4TEsAoWh_5lJ3ylk3-42" style="edgeStyle=none;rounded=0;orthogonalLoop=1;jettySize=auto;html=1;exitX=0.5;exitY=0;exitDx=0;exitDy=0;entryX=0.75;entryY=1;entryDx=0;entryDy=0;fontSize=13;" parent="1" edge="1">
          <mxGeometry relative="1" as="geometry">
            <mxPoint x="670" y="719.9999999999998" as="sourcePoint" />
            <mxPoint x="670" y="700" as="targetPoint" />
          </mxGeometry>
        </mxCell>
        <mxCell id="yl-4TEsAoWh_5lJ3ylk3-44" style="edgeStyle=none;rounded=0;orthogonalLoop=1;jettySize=auto;html=1;exitX=0.5;exitY=0;exitDx=0;exitDy=0;fontSize=13;align=left;" parent="1" edge="1">
          <mxGeometry relative="1" as="geometry">
            <mxPoint x="690.1904761904761" y="700" as="targetPoint" />
            <mxPoint x="690" y="719.9999999999998" as="sourcePoint" />
          </mxGeometry>
        </mxCell>
        <mxCell id="yl-4TEsAoWh_5lJ3ylk3-48" value="{S&lt;sub style=&quot;font-size: 13px;&quot;&gt;0&lt;/sub&gt;,S&lt;sub style=&quot;font-size: 13px;&quot;&gt;1&lt;/sub&gt;,S&lt;sub style=&quot;font-size: 13px;&quot;&gt;2&lt;/sub&gt;,L}" style="text;html=1;strokeColor=none;fillColor=none;align=center;verticalAlign=middle;whiteSpace=wrap;rounded=0;labelBackgroundColor=none;fontSize=13;" parent="1" vertex="1">
          <mxGeometry x="640" y="720" width="80" height="20" as="geometry" />
        </mxCell>
        <mxCell id="yl-4TEsAoWh_5lJ3ylk3-49" value="{S&lt;sub style=&quot;font-size: 13px;&quot;&gt;0&lt;/sub&gt;,S&lt;sub style=&quot;font-size: 13px;&quot;&gt;1&lt;/sub&gt;,L}" style="text;html=1;strokeColor=none;fillColor=none;align=center;verticalAlign=middle;whiteSpace=wrap;rounded=0;labelBackgroundColor=none;fontSize=13;" parent="1" vertex="1">
          <mxGeometry x="480" y="720" width="60" height="20" as="geometry" />
        </mxCell>
        <mxCell id="yl-4TEsAoWh_5lJ3ylk3-50" value="{S&lt;sub style=&quot;font-size: 13px;&quot;&gt;0&lt;/sub&gt;,S&lt;sub style=&quot;font-size: 13px;&quot;&gt;1&lt;/sub&gt;,L}" style="text;html=1;strokeColor=none;fillColor=none;align=center;verticalAlign=middle;whiteSpace=wrap;rounded=0;labelBackgroundColor=none;fontSize=13;" parent="1" vertex="1">
          <mxGeometry x="330" y="720" width="60" height="20" as="geometry" />
        </mxCell>
        <mxCell id="yl-4TEsAoWh_5lJ3ylk3-52" value="&lt;div style=&quot;font-size: 13px;&quot;&gt;&lt;span style=&quot;background-color: transparent; font-size: 13px;&quot;&gt;syscall&lt;/span&gt;&lt;/div&gt;&lt;div style=&quot;font-size: 13px;&quot;&gt;&lt;span style=&quot;background-color: transparent; font-size: 13px;&quot;&gt;read&lt;/span&gt;&lt;/div&gt;" style="text;html=1;strokeColor=none;fillColor=none;align=center;verticalAlign=middle;whiteSpace=wrap;rounded=0;labelBackgroundColor=none;fontSize=13;" parent="1" vertex="1">
          <mxGeometry x="260" y="800" width="40" height="40" as="geometry" />
        </mxCell>
        <mxCell id="yl-4TEsAoWh_5lJ3ylk3-53" value="u/s write" style="text;html=1;strokeColor=none;fillColor=none;align=center;verticalAlign=middle;whiteSpace=wrap;rounded=0;labelBackgroundColor=none;fontSize=13;" parent="1" vertex="1">
          <mxGeometry x="420" y="800" width="40" height="40" as="geometry" />
        </mxCell>
        <mxCell id="yl-4TEsAoWh_5lJ3ylk3-55" value="&lt;div style=&quot;font-size: 13px;&quot;&gt;&lt;span style=&quot;background-color: transparent; font-size: 13px;&quot;&gt;u read, u/s write,&lt;/span&gt;&lt;/div&gt;&lt;span style=&quot;background-color: transparent; font-size: 13px;&quot;&gt;old syscall read&lt;/span&gt;" style="text;html=1;strokeColor=none;fillColor=none;align=center;verticalAlign=middle;whiteSpace=wrap;rounded=0;labelBackgroundColor=none;fontSize=13;" parent="1" vertex="1">
          <mxGeometry x="477.5" y="750" width="120" height="20" as="geometry" />
        </mxCell>
        <mxCell id="zB1F9CFBFozdtI5j37PD-5" value="" style="group" parent="1" vertex="1" connectable="0">
          <mxGeometry x="900" y="680" width="360" height="540" as="geometry" />
        </mxCell>
        <mxCell id="8cbXPjj0JMSHBprmDZsg-22" value="" style="rounded=0;whiteSpace=wrap;html=1;verticalAlign=middle;fillColor=none;strokeColor=none;fontSize=15;" parent="zB1F9CFBFozdtI5j37PD-5" vertex="1">
          <mxGeometry width="360" height="540" as="geometry" />
        </mxCell>
        <mxCell id="8cbXPjj0JMSHBprmDZsg-8" value="&lt;div style=&quot;font-size: 15px;&quot;&gt;Snapshot &lt;br style=&quot;font-size: 15px;&quot;&gt;&lt;/div&gt;&lt;div style=&quot;font-size: 15px;&quot;&gt;exists?&lt;/div&gt;" style="rhombus;whiteSpace=wrap;html=1;verticalAlign=middle;fontSize=15;" parent="zB1F9CFBFozdtI5j37PD-5" vertex="1">
          <mxGeometry x="100" y="80" width="120" height="80" as="geometry" />
        </mxCell>
        <mxCell id="8cbXPjj0JMSHBprmDZsg-12" style="edgeStyle=orthogonalEdgeStyle;rounded=0;orthogonalLoop=1;jettySize=auto;html=1;exitX=0.5;exitY=1;exitDx=0;exitDy=0;entryX=0.5;entryY=0;entryDx=0;entryDy=0;fontSize=15;" parent="zB1F9CFBFozdtI5j37PD-5" source="8cbXPjj0JMSHBprmDZsg-11" target="8cbXPjj0JMSHBprmDZsg-8" edge="1">
          <mxGeometry relative="1" as="geometry" />
        </mxCell>
        <mxCell id="8cbXPjj0JMSHBprmDZsg-11" value="raw_copy_from_user" style="rounded=1;whiteSpace=wrap;html=1;verticalAlign=middle;fontSize=15;" parent="zB1F9CFBFozdtI5j37PD-5" vertex="1">
          <mxGeometry x="80" y="20" width="160" height="40" as="geometry" />
        </mxCell>
        <mxCell id="8cbXPjj0JMSHBprmDZsg-13" value="Read from snapshot" style="rounded=0;whiteSpace=wrap;html=1;verticalAlign=middle;fontSize=15;" parent="zB1F9CFBFozdtI5j37PD-5" vertex="1">
          <mxGeometry x="100" y="480" width="120" height="40" as="geometry" />
        </mxCell>
        <mxCell id="8cbXPjj0JMSHBprmDZsg-14" value="Create snapshot pointing to C&lt;sub style=&quot;font-size: 15px;&quot;&gt;L&lt;/sub&gt;" style="rounded=0;whiteSpace=wrap;html=1;verticalAlign=middle;fontSize=15;" parent="zB1F9CFBFozdtI5j37PD-5" vertex="1">
          <mxGeometry x="170" y="180" width="140" height="40" as="geometry" />
        </mxCell>
        <mxCell id="8cbXPjj0JMSHBprmDZsg-17" value="N" style="edgeStyle=orthogonalEdgeStyle;rounded=0;orthogonalLoop=1;jettySize=auto;html=1;exitX=1;exitY=0.5;exitDx=0;exitDy=0;entryX=0.5;entryY=0;entryDx=0;entryDy=0;fontSize=15;" parent="zB1F9CFBFozdtI5j37PD-5" source="8cbXPjj0JMSHBprmDZsg-8" target="8cbXPjj0JMSHBprmDZsg-14" edge="1">
          <mxGeometry relative="1" as="geometry" />
        </mxCell>
        <mxCell id="8cbXPjj0JMSHBprmDZsg-21" style="edgeStyle=orthogonalEdgeStyle;rounded=0;orthogonalLoop=1;jettySize=auto;html=1;exitX=0.5;exitY=1;exitDx=0;exitDy=0;entryX=0.5;entryY=0;entryDx=0;entryDy=0;fontSize=15;" parent="zB1F9CFBFozdtI5j37PD-5" edge="1">
          <mxGeometry relative="1" as="geometry">
            <mxPoint x="160" y="480" as="targetPoint" />
            <Array as="points">
              <mxPoint x="80" y="460" />
              <mxPoint x="160" y="460" />
            </Array>
            <mxPoint x="80" y="220" as="sourcePoint" />
          </mxGeometry>
        </mxCell>
        <mxCell id="8cbXPjj0JMSHBprmDZsg-15" value="Find snapshot" style="rounded=0;whiteSpace=wrap;html=1;verticalAlign=middle;fontSize=15;" parent="zB1F9CFBFozdtI5j37PD-5" vertex="1">
          <mxGeometry x="20" y="180" width="120" height="40" as="geometry" />
        </mxCell>
        <mxCell id="8cbXPjj0JMSHBprmDZsg-16" value="Y" style="edgeStyle=orthogonalEdgeStyle;rounded=0;orthogonalLoop=1;jettySize=auto;html=1;exitX=0;exitY=0.5;exitDx=0;exitDy=0;entryX=0.5;entryY=0;entryDx=0;entryDy=0;fontSize=15;" parent="zB1F9CFBFozdtI5j37PD-5" source="8cbXPjj0JMSHBprmDZsg-8" target="8cbXPjj0JMSHBprmDZsg-15" edge="1">
          <mxGeometry relative="1" as="geometry" />
        </mxCell>
        <mxCell id="8cbXPjj0JMSHBprmDZsg-18" value="Add page to those read by this syscall" style="rounded=0;whiteSpace=wrap;html=1;verticalAlign=middle;fontSize=15;" parent="zB1F9CFBFozdtI5j37PD-5" vertex="1">
          <mxGeometry x="170" y="240" width="140" height="40" as="geometry" />
        </mxCell>
        <mxCell id="8cbXPjj0JMSHBprmDZsg-19" style="edgeStyle=orthogonalEdgeStyle;rounded=0;orthogonalLoop=1;jettySize=auto;html=1;exitX=0.5;exitY=1;exitDx=0;exitDy=0;fontSize=15;" parent="zB1F9CFBFozdtI5j37PD-5" source="8cbXPjj0JMSHBprmDZsg-14" target="8cbXPjj0JMSHBprmDZsg-18" edge="1">
          <mxGeometry relative="1" as="geometry" />
        </mxCell>
        <mxCell id="8cbXPjj0JMSHBprmDZsg-29" value="Y" style="edgeStyle=orthogonalEdgeStyle;rounded=0;orthogonalLoop=1;jettySize=auto;html=1;exitX=0;exitY=0.5;exitDx=0;exitDy=0;entryX=0.5;entryY=0;entryDx=0;entryDy=0;fontSize=15;" parent="zB1F9CFBFozdtI5j37PD-5" source="8cbXPjj0JMSHBprmDZsg-23" target="8cbXPjj0JMSHBprmDZsg-13" edge="1">
          <mxGeometry x="-0.2222" relative="1" as="geometry">
            <Array as="points">
              <mxPoint x="160" y="340" />
            </Array>
            <mxPoint as="offset" />
          </mxGeometry>
        </mxCell>
        <mxCell id="8cbXPjj0JMSHBprmDZsg-23" value="Page&lt;div style=&quot;font-size: 15px;&quot;&gt;&amp;nbsp;protected?&lt;br style=&quot;font-size: 15px;&quot;&gt;&lt;/div&gt;" style="rhombus;whiteSpace=wrap;html=1;verticalAlign=middle;fontSize=15;" parent="zB1F9CFBFozdtI5j37PD-5" vertex="1">
          <mxGeometry x="180" y="300" width="120" height="80" as="geometry" />
        </mxCell>
        <mxCell id="8cbXPjj0JMSHBprmDZsg-25" style="edgeStyle=orthogonalEdgeStyle;rounded=0;orthogonalLoop=1;jettySize=auto;html=1;exitX=0.5;exitY=1;exitDx=0;exitDy=0;entryX=0.5;entryY=0;entryDx=0;entryDy=0;fontSize=15;" parent="zB1F9CFBFozdtI5j37PD-5" source="8cbXPjj0JMSHBprmDZsg-18" target="8cbXPjj0JMSHBprmDZsg-23" edge="1">
          <mxGeometry relative="1" as="geometry" />
        </mxCell>
        <mxCell id="8cbXPjj0JMSHBprmDZsg-30" style="edgeStyle=orthogonalEdgeStyle;rounded=0;orthogonalLoop=1;jettySize=auto;html=1;exitX=0.5;exitY=1;exitDx=0;exitDy=0;fontSize=15;" parent="zB1F9CFBFozdtI5j37PD-5" source="8cbXPjj0JMSHBprmDZsg-27" target="8cbXPjj0JMSHBprmDZsg-13" edge="1">
          <mxGeometry relative="1" as="geometry">
            <Array as="points">
              <mxPoint x="300" y="460" />
              <mxPoint x="160" y="460" />
            </Array>
          </mxGeometry>
        </mxCell>
        <mxCell id="8cbXPjj0JMSHBprmDZsg-27" value="Protect page in PTEs" style="rounded=0;whiteSpace=wrap;html=1;verticalAlign=middle;fontSize=15;" parent="zB1F9CFBFozdtI5j37PD-5" vertex="1">
          <mxGeometry x="250" y="400" width="100" height="40" as="geometry" />
        </mxCell>
        <mxCell id="8cbXPjj0JMSHBprmDZsg-28" value="N" style="edgeStyle=orthogonalEdgeStyle;rounded=0;orthogonalLoop=1;jettySize=auto;html=1;exitX=1;exitY=0.5;exitDx=0;exitDy=0;entryX=0.5;entryY=0;entryDx=0;entryDy=0;fontSize=15;" parent="zB1F9CFBFozdtI5j37PD-5" source="8cbXPjj0JMSHBprmDZsg-23" target="8cbXPjj0JMSHBprmDZsg-27" edge="1">
          <mxGeometry relative="1" as="geometry">
            <Array as="points">
              <mxPoint x="300" y="340" />
              <mxPoint x="300" y="340" />
            </Array>
          </mxGeometry>
        </mxCell>
        <mxCell id="hSm4koDUXmgNAm0xiuls-194" style="edgeStyle=orthogonalEdgeStyle;rounded=0;orthogonalLoop=1;jettySize=auto;html=1;exitX=0;exitY=0.5;exitDx=0;exitDy=0;entryX=0.5;entryY=1;entryDx=0;entryDy=0;fontSize=15;" parent="1" source="hSm4koDUXmgNAm0xiuls-149" target="hSm4koDUXmgNAm0xiuls-187" edge="1">
          <mxGeometry relative="1" as="geometry" />
        </mxCell>
        <mxCell id="8cbXPjj0JMSHBprmDZsg-39" value="&lt;div style=&quot;font-size: 15px;&quot; align=&quot;center&quot;&gt;Address Space&lt;/div&gt;" style="rounded=1;whiteSpace=wrap;html=1;align=center;verticalAlign=top;fontSize=15;" parent="1" vertex="1">
          <mxGeometry x="900" y="120" width="460" height="90" as="geometry" />
        </mxCell>
        <mxCell id="hSm4koDUXmgNAm0xiuls-108" value="struct page" style="rounded=0;whiteSpace=wrap;html=1;fillColor=none;verticalAlign=top;fontSize=15;" parent="1" vertex="1">
          <mxGeometry x="960" y="360" width="120" height="120" as="geometry" />
        </mxCell>
        <mxCell id="hSm4koDUXmgNAm0xiuls-109" value="PTE" style="text;html=1;strokeColor=none;fillColor=none;align=center;verticalAlign=middle;whiteSpace=wrap;rounded=0;fontSize=15;" parent="1" vertex="1">
          <mxGeometry x="980" y="160" width="40" height="20" as="geometry" />
        </mxCell>
        <mxCell id="hSm4koDUXmgNAm0xiuls-113" value="snapshots list" style="rounded=0;whiteSpace=wrap;html=1;fillColor=none;fontSize=15;" parent="1" vertex="1">
          <mxGeometry x="960" y="440" width="120" height="40" as="geometry" />
        </mxCell>
        <mxCell id="hSm4koDUXmgNAm0xiuls-130" style="edgeStyle=orthogonalEdgeStyle;rounded=0;orthogonalLoop=1;jettySize=auto;html=1;entryX=0.25;entryY=1;entryDx=0;entryDy=0;fontSize=15;" parent="1" target="hSm4koDUXmgNAm0xiuls-125" edge="1">
          <mxGeometry relative="1" as="geometry">
            <mxPoint x="1220" y="420" as="sourcePoint" />
            <mxPoint x="1240" y="380" as="targetPoint" />
          </mxGeometry>
        </mxCell>
        <mxCell id="hSm4koDUXmgNAm0xiuls-119" value="S&lt;sub style=&quot;font-size: 15px;&quot;&gt;0&lt;/sub&gt;" style="rounded=0;whiteSpace=wrap;html=1;fillColor=none;verticalAlign=middle;fontSize=15;" parent="1" vertex="1">
          <mxGeometry x="1280" y="440" width="40" height="40" as="geometry" />
        </mxCell>
        <mxCell id="hSm4koDUXmgNAm0xiuls-127" style="edgeStyle=orthogonalEdgeStyle;rounded=0;orthogonalLoop=1;jettySize=auto;html=1;exitX=0.5;exitY=1;exitDx=0;exitDy=0;entryX=0.5;entryY=0;entryDx=0;entryDy=0;fontSize=15;" parent="1" source="8cbXPjj0JMSHBprmDZsg-38" target="hSm4koDUXmgNAm0xiuls-108" edge="1">
          <mxGeometry relative="1" as="geometry">
            <Array as="points">
              <mxPoint x="1120" y="220" />
              <mxPoint x="1020" y="220" />
            </Array>
            <mxPoint x="1140.0000000000002" y="180" as="sourcePoint" />
          </mxGeometry>
        </mxCell>
        <mxCell id="hSm4koDUXmgNAm0xiuls-124" value="C&lt;sub style=&quot;font-size: 15px;&quot;&gt;L&lt;/sub&gt;" style="rounded=0;whiteSpace=wrap;html=1;fillColor=none;fontSize=15;" parent="1" vertex="1">
          <mxGeometry x="1100" y="240" width="80" height="120" as="geometry" />
        </mxCell>
        <mxCell id="hSm4koDUXmgNAm0xiuls-125" value="C&lt;sub style=&quot;font-size: 15px;&quot;&gt;0&lt;/sub&gt;" style="rounded=0;whiteSpace=wrap;html=1;fillColor=none;fontSize=15;" parent="1" vertex="1">
          <mxGeometry x="1220" y="240" width="80" height="120" as="geometry" />
        </mxCell>
        <mxCell id="hSm4koDUXmgNAm0xiuls-132" value="S&lt;sub style=&quot;font-size: 15px;&quot;&gt;2&lt;/sub&gt;" style="rounded=0;whiteSpace=wrap;html=1;fillColor=none;verticalAlign=bottom;fontSize=15;" parent="1" vertex="1">
          <mxGeometry x="1120" y="440" width="40" height="40" as="geometry" />
        </mxCell>
        <mxCell id="hSm4koDUXmgNAm0xiuls-115" style="edgeStyle=orthogonalEdgeStyle;rounded=0;orthogonalLoop=1;jettySize=auto;html=1;exitX=1;exitY=0.5;exitDx=0;exitDy=0;entryX=0;entryY=0.5;entryDx=0;entryDy=0;fontSize=15;" parent="1" source="hSm4koDUXmgNAm0xiuls-113" target="hSm4koDUXmgNAm0xiuls-132" edge="1">
          <mxGeometry relative="1" as="geometry">
            <mxPoint x="1120" y="440" as="targetPoint" />
          </mxGeometry>
        </mxCell>
        <mxCell id="hSm4koDUXmgNAm0xiuls-192" style="edgeStyle=orthogonalEdgeStyle;rounded=0;orthogonalLoop=1;jettySize=auto;html=1;exitX=1;exitY=0.5;exitDx=0;exitDy=0;entryX=0;entryY=0.5;entryDx=0;entryDy=0;fontSize=15;" parent="1" source="hSm4koDUXmgNAm0xiuls-136" target="hSm4koDUXmgNAm0xiuls-119" edge="1">
          <mxGeometry relative="1" as="geometry" />
        </mxCell>
        <mxCell id="hSm4koDUXmgNAm0xiuls-136" value="S&lt;sub style=&quot;font-size: 15px;&quot;&gt;1&lt;/sub&gt;" style="rounded=0;whiteSpace=wrap;html=1;fillColor=none;verticalAlign=middle;fontSize=15;" parent="1" vertex="1">
          <mxGeometry x="1200" y="440" width="40" height="40" as="geometry" />
        </mxCell>
        <mxCell id="hSm4koDUXmgNAm0xiuls-191" style="edgeStyle=orthogonalEdgeStyle;rounded=0;orthogonalLoop=1;jettySize=auto;html=1;entryX=0;entryY=0.5;entryDx=0;entryDy=0;exitX=1;exitY=0.5;exitDx=0;exitDy=0;fontSize=15;" parent="1" source="hSm4koDUXmgNAm0xiuls-132" target="hSm4koDUXmgNAm0xiuls-136" edge="1">
          <mxGeometry relative="1" as="geometry">
            <mxPoint x="1170" y="450" as="sourcePoint" />
            <Array as="points">
              <mxPoint x="1170" y="460" />
              <mxPoint x="1170" y="460" />
            </Array>
          </mxGeometry>
        </mxCell>
        <mxCell id="hSm4koDUXmgNAm0xiuls-138" value="copy" style="rounded=0;whiteSpace=wrap;html=1;fillColor=none;fontSize=15;" parent="1" vertex="1">
          <mxGeometry x="1120" y="420" width="40" height="20" as="geometry" />
        </mxCell>
        <mxCell id="hSm4koDUXmgNAm0xiuls-129" style="edgeStyle=orthogonalEdgeStyle;rounded=0;orthogonalLoop=1;jettySize=auto;html=1;entryX=0.5;entryY=1;entryDx=0;entryDy=0;exitX=0.5;exitY=0;exitDx=0;exitDy=0;fontSize=15;" parent="1" source="hSm4koDUXmgNAm0xiuls-138" target="hSm4koDUXmgNAm0xiuls-124" edge="1">
          <mxGeometry relative="1" as="geometry">
            <mxPoint x="1130" y="430" as="sourcePoint" />
            <mxPoint x="1140" y="380" as="targetPoint" />
          </mxGeometry>
        </mxCell>
        <mxCell id="hSm4koDUXmgNAm0xiuls-139" value="struct task_struct" style="rounded=0;whiteSpace=wrap;html=1;fillColor=none;verticalAlign=top;fontSize=15;" parent="1" vertex="1">
          <mxGeometry x="960" y="540" width="120" height="80" as="geometry" />
        </mxCell>
        <mxCell id="hSm4koDUXmgNAm0xiuls-140" value="&lt;div style=&quot;font-size: 15px;&quot;&gt;protected&lt;br style=&quot;font-size: 15px;&quot;&gt;&lt;/div&gt;&lt;div style=&quot;font-size: 15px;&quot;&gt;pages list&lt;/div&gt;" style="rounded=0;whiteSpace=wrap;html=1;fillColor=none;fontSize=15;" parent="1" vertex="1">
          <mxGeometry x="980" y="580" width="100" height="40" as="geometry" />
        </mxCell>
        <mxCell id="hSm4koDUXmgNAm0xiuls-148" style="edgeStyle=orthogonalEdgeStyle;rounded=0;orthogonalLoop=1;jettySize=auto;html=1;exitX=0.5;exitY=0;exitDx=0;exitDy=0;entryX=0.5;entryY=1;entryDx=0;entryDy=0;fontSize=15;" parent="1" source="hSm4koDUXmgNAm0xiuls-142" target="hSm4koDUXmgNAm0xiuls-108" edge="1">
          <mxGeometry relative="1" as="geometry">
            <Array as="points">
              <mxPoint x="1140" y="520" />
              <mxPoint x="1020" y="520" />
            </Array>
          </mxGeometry>
        </mxCell>
        <mxCell id="hSm4koDUXmgNAm0xiuls-142" value="" style="rounded=0;whiteSpace=wrap;html=1;fillColor=none;fontSize=15;" parent="1" vertex="1">
          <mxGeometry x="1120" y="580" width="40" height="40" as="geometry" />
        </mxCell>
        <mxCell id="hSm4koDUXmgNAm0xiuls-143" style="edgeStyle=orthogonalEdgeStyle;rounded=0;orthogonalLoop=1;jettySize=auto;html=1;exitX=1;exitY=0.5;exitDx=0;exitDy=0;entryX=0;entryY=0.5;entryDx=0;entryDy=0;fontSize=15;" parent="1" source="hSm4koDUXmgNAm0xiuls-140" target="hSm4koDUXmgNAm0xiuls-142" edge="1">
          <mxGeometry relative="1" as="geometry" />
        </mxCell>
        <mxCell id="hSm4koDUXmgNAm0xiuls-144" value="" style="rounded=0;whiteSpace=wrap;html=1;fillColor=none;fontSize=15;" parent="1" vertex="1">
          <mxGeometry x="1200" y="580" width="40" height="40" as="geometry" />
        </mxCell>
        <mxCell id="hSm4koDUXmgNAm0xiuls-145" style="edgeStyle=orthogonalEdgeStyle;rounded=0;orthogonalLoop=1;jettySize=auto;html=1;exitX=1;exitY=0.5;exitDx=0;exitDy=0;entryX=0;entryY=0.5;entryDx=0;entryDy=0;fontSize=15;" parent="1" source="hSm4koDUXmgNAm0xiuls-142" target="hSm4koDUXmgNAm0xiuls-144" edge="1">
          <mxGeometry relative="1" as="geometry" />
        </mxCell>
        <mxCell id="hSm4koDUXmgNAm0xiuls-146" value="..." style="rounded=0;whiteSpace=wrap;html=1;fillColor=none;strokeColor=none;fontSize=15;" parent="1" vertex="1">
          <mxGeometry x="1280" y="580" width="40" height="40" as="geometry" />
        </mxCell>
        <mxCell id="hSm4koDUXmgNAm0xiuls-147" style="edgeStyle=orthogonalEdgeStyle;rounded=0;orthogonalLoop=1;jettySize=auto;html=1;exitX=1;exitY=0.5;exitDx=0;exitDy=0;entryX=0;entryY=0.5;entryDx=0;entryDy=0;fontSize=15;" parent="1" source="hSm4koDUXmgNAm0xiuls-144" target="hSm4koDUXmgNAm0xiuls-146" edge="1">
          <mxGeometry relative="1" as="geometry" />
        </mxCell>
        <mxCell id="hSm4koDUXmgNAm0xiuls-149" value="&lt;div style=&quot;font-size: 15px;&quot;&gt;reverse-map&lt;/div&gt;&lt;div style=&quot;font-size: 15px;&quot;&gt;(rmap)&lt;br style=&quot;font-size: 15px;&quot;&gt;&lt;/div&gt;" style="rounded=0;whiteSpace=wrap;html=1;fillColor=none;fontSize=15;" parent="1" vertex="1">
          <mxGeometry x="960" y="400" width="120" height="40" as="geometry" />
        </mxCell>
        <mxCell id="hSm4koDUXmgNAm0xiuls-162" value="&lt;div style=&quot;font-size: 15px;&quot;&gt;Virtual&lt;/div&gt;&lt;div style=&quot;font-size: 15px;&quot;&gt;Address&lt;br style=&quot;font-size: 15px;&quot;&gt;&lt;/div&gt;" style="rounded=0;whiteSpace=wrap;html=1;align=center;fontSize=15;" parent="1" vertex="1">
          <mxGeometry x="910" y="150" width="60" height="40" as="geometry" />
        </mxCell>
        <mxCell id="hSm4koDUXmgNAm0xiuls-193" style="edgeStyle=orthogonalEdgeStyle;rounded=0;orthogonalLoop=1;jettySize=auto;html=1;exitX=0;exitY=0.5;exitDx=0;exitDy=0;entryX=0.5;entryY=1;entryDx=0;entryDy=0;fontSize=15;" parent="1" source="hSm4koDUXmgNAm0xiuls-149" target="hSm4koDUXmgNAm0xiuls-162" edge="1">
          <mxGeometry relative="1" as="geometry" />
        </mxCell>
        <mxCell id="hSm4koDUXmgNAm0xiuls-178" value="" style="rounded=0;whiteSpace=wrap;html=1;fillColor=none;fontSize=15;" parent="1" vertex="1">
          <mxGeometry x="1020" y="50" width="330" height="40" as="geometry" />
        </mxCell>
        <mxCell id="hSm4koDUXmgNAm0xiuls-179" value="PTE" style="text;html=1;strokeColor=none;fillColor=none;align=center;verticalAlign=middle;whiteSpace=wrap;rounded=0;fontSize=15;" parent="1" vertex="1">
          <mxGeometry x="980" y="60" width="40" height="20" as="geometry" />
        </mxCell>
        <mxCell id="hSm4koDUXmgNAm0xiuls-180" value="NX" style="rounded=0;whiteSpace=wrap;html=1;fillColor=none;fontSize=15;" parent="1" vertex="1">
          <mxGeometry x="1020" y="50" width="30" height="40" as="geometry" />
        </mxCell>
        <mxCell id="hSm4koDUXmgNAm0xiuls-181" value="P" style="rounded=0;whiteSpace=wrap;html=1;fillColor=none;fontSize=15;" parent="1" vertex="1">
          <mxGeometry x="1330" y="50" width="20" height="40" as="geometry" />
        </mxCell>
        <mxCell id="hSm4koDUXmgNAm0xiuls-182" value="SW1-SW4" style="rounded=0;whiteSpace=wrap;html=1;fillColor=none;fontSize=15;" parent="1" vertex="1">
          <mxGeometry x="1250" y="50" width="80" height="40" as="geometry" />
        </mxCell>
        <mxCell id="hSm4koDUXmgNAm0xiuls-183" value="&lt;div style=&quot;font-size: 15px;&quot;&gt;U/&lt;/div&gt;&lt;div style=&quot;font-size: 15px;&quot;&gt;S&lt;/div&gt;" style="rounded=0;whiteSpace=wrap;html=1;fillColor=none;fontSize=15;" parent="1" vertex="1">
          <mxGeometry x="1230" y="50" width="20" height="40" as="geometry" />
        </mxCell>
        <mxCell id="hSm4koDUXmgNAm0xiuls-184" value="&lt;div style=&quot;font-size: 15px;&quot;&gt;R/&lt;/div&gt;&lt;div style=&quot;font-size: 15px;&quot;&gt;W&lt;/div&gt;" style="rounded=0;whiteSpace=wrap;html=1;fillColor=none;fontSize=15;" parent="1" vertex="1">
          <mxGeometry x="1210" y="50" width="20" height="40" as="geometry" />
        </mxCell>
        <mxCell id="hSm4koDUXmgNAm0xiuls-185" value="PAGE FRAME NUMBER" style="rounded=0;whiteSpace=wrap;html=1;fillColor=none;fontSize=15;" parent="1" vertex="1">
          <mxGeometry x="1050" y="50" width="160" height="40" as="geometry" />
        </mxCell>
        <mxCell id="hSm4koDUXmgNAm0xiuls-187" value="&lt;div style=&quot;font-size: 15px;&quot;&gt;Virtual&lt;/div&gt;&lt;div style=&quot;font-size: 15px;&quot;&gt;Address&lt;br style=&quot;font-size: 15px;&quot;&gt;&lt;/div&gt;" style="rounded=0;whiteSpace=wrap;html=1;align=center;fontSize=15;" parent="1" vertex="1">
          <mxGeometry x="910" y="50" width="60" height="40" as="geometry" />
        </mxCell>
        <mxCell id="8cbXPjj0JMSHBprmDZsg-32" value="" style="rounded=0;whiteSpace=wrap;html=1;fillColor=none;fontSize=15;" parent="1" vertex="1">
          <mxGeometry x="1020" y="150" width="330" height="40" as="geometry" />
        </mxCell>
        <mxCell id="8cbXPjj0JMSHBprmDZsg-33" value="NX" style="rounded=0;whiteSpace=wrap;html=1;fillColor=none;fontSize=15;" parent="1" vertex="1">
          <mxGeometry x="1020" y="150" width="30" height="40" as="geometry" />
        </mxCell>
        <mxCell id="8cbXPjj0JMSHBprmDZsg-34" value="P" style="rounded=0;whiteSpace=wrap;html=1;fillColor=none;fontSize=15;" parent="1" vertex="1">
          <mxGeometry x="1330" y="150" width="20" height="40" as="geometry" />
        </mxCell>
        <mxCell id="8cbXPjj0JMSHBprmDZsg-35" value="SW1-SW4" style="rounded=0;whiteSpace=wrap;html=1;fillColor=none;fontSize=15;" parent="1" vertex="1">
          <mxGeometry x="1250" y="150" width="80" height="40" as="geometry" />
        </mxCell>
        <mxCell id="8cbXPjj0JMSHBprmDZsg-36" value="&lt;div style=&quot;font-size: 15px;&quot;&gt;U/&lt;/div&gt;&lt;div style=&quot;font-size: 15px;&quot;&gt;S&lt;/div&gt;" style="rounded=0;whiteSpace=wrap;html=1;fillColor=none;fontSize=15;" parent="1" vertex="1">
          <mxGeometry x="1230" y="150" width="20" height="40" as="geometry" />
        </mxCell>
        <mxCell id="8cbXPjj0JMSHBprmDZsg-37" value="&lt;div style=&quot;font-size: 15px;&quot;&gt;R/&lt;/div&gt;&lt;div style=&quot;font-size: 15px;&quot;&gt;W&lt;/div&gt;" style="rounded=0;whiteSpace=wrap;html=1;fillColor=none;fontSize=15;" parent="1" vertex="1">
          <mxGeometry x="1210" y="150" width="20" height="40" as="geometry" />
        </mxCell>
        <mxCell id="8cbXPjj0JMSHBprmDZsg-38" value="PAGE FRAME NUMBER" style="rounded=0;whiteSpace=wrap;html=1;fillColor=none;fontSize=15;" parent="1" vertex="1">
          <mxGeometry x="1050" y="150" width="160" height="40" as="geometry" />
        </mxCell>
        <mxCell id="hSm4koDUXmgNAm0xiuls-128" style="edgeStyle=orthogonalEdgeStyle;rounded=0;orthogonalLoop=1;jettySize=auto;html=1;exitX=0.5;exitY=1;exitDx=0;exitDy=0;entryX=0.5;entryY=0;entryDx=0;entryDy=0;fontSize=15;" parent="1" source="8cbXPjj0JMSHBprmDZsg-38" target="hSm4koDUXmgNAm0xiuls-124" edge="1">
          <mxGeometry relative="1" as="geometry">
            <mxPoint x="1140.0000000000002" y="180" as="sourcePoint" />
            <Array as="points">
              <mxPoint x="1120" y="220" />
              <mxPoint x="1140" y="220" />
            </Array>
          </mxGeometry>
        </mxCell>
        <mxCell id="zB1F9CFBFozdtI5j37PD-2" value="copy" style="rounded=0;whiteSpace=wrap;html=1;fillColor=none;fontSize=15;" parent="1" vertex="1">
          <mxGeometry x="1200" y="420" width="40" height="20" as="geometry" />
        </mxCell>
        <mxCell id="zB1F9CFBFozdtI5j37PD-3" value="copy" style="rounded=0;whiteSpace=wrap;html=1;fillColor=none;fontSize=15;" parent="1" vertex="1">
          <mxGeometry x="1280" y="420" width="40" height="20" as="geometry" />
        </mxCell>
        <mxCell id="hSm4koDUXmgNAm0xiuls-131" style="edgeStyle=orthogonalEdgeStyle;rounded=0;orthogonalLoop=1;jettySize=auto;html=1;exitX=0.5;exitY=0;exitDx=0;exitDy=0;entryX=0.75;entryY=1;entryDx=0;entryDy=0;fontSize=15;" parent="1" source="zB1F9CFBFozdtI5j37PD-3" target="hSm4koDUXmgNAm0xiuls-125" edge="1">
          <mxGeometry relative="1" as="geometry">
            <mxPoint x="1280" y="380" as="targetPoint" />
          </mxGeometry>
        </mxCell>
        <mxCell id="PR-DkjaTJeX6SM60oxyz-1" value="&lt;font face=&quot;Courier New&quot; style=&quot;font-size: 15px;&quot;&gt;copy_from_user(X) = 0&lt;/font&gt;&lt;br style=&quot;font-size: 15px;&quot;&gt;&lt;br style=&quot;font-size: 15px;&quot;&gt;&lt;br style=&quot;font-size: 15px;&quot;&gt;&lt;br style=&quot;font-size: 15px;&quot;&gt;&lt;br style=&quot;font-size: 15px;&quot;&gt;&lt;font face=&quot;Courier New&quot; style=&quot;font-size: 15px;&quot;&gt;copy_from_user(X):&lt;/font&gt;&lt;br style=&quot;font-size: 15px;&quot;&gt;&lt;font face=&quot;Courier New&quot; style=&quot;font-size: 15px;&quot;&gt;read(X) = 42&lt;/font&gt;&lt;br style=&quot;font-size: 15px;&quot;&gt;Value forwarded from LSQ&lt;br style=&quot;font-size: 15px;&quot;&gt;&lt;br style=&quot;font-size: 15px;&quot;&gt;Use &lt;font face=&quot;Courier New&quot; style=&quot;font-size: 15px;&quot;&gt;X = 42&lt;/font&gt;&amp;nbsp;to leak secret&lt;br style=&quot;font-size: 15px;&quot;&gt;into side-channel&lt;br style=&quot;font-size: 15px;&quot;&gt;&lt;br style=&quot;font-size: 15px;&quot;&gt;&lt;br&gt;&lt;br&gt;&lt;br&gt;&lt;br&gt;Roll back &lt;font face=&quot;Courier New&quot;&gt;read(X)&lt;/font&gt;" style="text;html=1;strokeColor=default;fillColor=none;align=left;verticalAlign=top;whiteSpace=wrap;rounded=0;fontSize=15;" parent="1" vertex="1">
          <mxGeometry x="1800" y="360" width="200" height="360" as="geometry" />
        </mxCell>
        <mxCell id="PR-DkjaTJeX6SM60oxyz-27" value="Target thread" style="text;html=1;strokeColor=default;fillColor=none;align=center;verticalAlign=middle;whiteSpace=wrap;rounded=0;fontSize=15;" parent="1" vertex="1">
          <mxGeometry x="1800" y="340" width="200" height="20" as="geometry" />
        </mxCell>
        <mxCell id="PR-DkjaTJeX6SM60oxyz-28" value="&lt;br style=&quot;font-size: 15px;&quot;&gt;Speculation start&lt;br style=&quot;font-size: 15px;&quot;&gt;&lt;br style=&quot;font-size: 15px;&quot;&gt;Illegal write to snapshot&lt;br style=&quot;font-size: 15px;&quot;&gt;&lt;font face=&quot;Courier New&quot; style=&quot;font-size: 15px;&quot;&gt;wr(X) = 42&lt;/font&gt;&lt;br style=&quot;font-size: 15px;&quot;&gt;&lt;br style=&quot;font-size: 15px;&quot;&gt;&lt;br style=&quot;font-size: 15px;&quot;&gt;&lt;br style=&quot;font-size: 15px;&quot;&gt;&lt;br style=&quot;font-size: 15px;&quot;&gt;&lt;br style=&quot;font-size: 15px;&quot;&gt;&lt;br style=&quot;font-size: 15px;&quot;&gt;&lt;br style=&quot;font-size: 15px;&quot;&gt;Speculation ends&lt;br style=&quot;font-size: 15px;&quot;&gt;&lt;br style=&quot;font-size: 15px;&quot;&gt;Roll back write&lt;br&gt;&lt;br&gt;&lt;br&gt;&lt;br&gt;Extract side-channel secret" style="text;html=1;strokeColor=default;fillColor=none;align=left;verticalAlign=top;whiteSpace=wrap;rounded=0;fontSize=15;" parent="1" vertex="1">
          <mxGeometry x="2160" y="360" width="200" height="360" as="geometry" />
        </mxCell>
        <mxCell id="PR-DkjaTJeX6SM60oxyz-29" value="Attacker thread" style="text;html=1;strokeColor=default;fillColor=none;align=center;verticalAlign=middle;whiteSpace=wrap;rounded=0;fontSize=15;" parent="1" vertex="1">
          <mxGeometry x="2160" y="340" width="200" height="20" as="geometry" />
        </mxCell>
        <mxCell id="PR-DkjaTJeX6SM60oxyz-31" value="LSQ" style="rounded=0;whiteSpace=wrap;html=1;fontSize=15;" parent="1" vertex="1">
          <mxGeometry x="2040" y="460" width="80" height="40" as="geometry" />
        </mxCell>
        <mxCell id="PR-DkjaTJeX6SM60oxyz-35" value="2" style="ellipse;whiteSpace=wrap;html=1;fontSize=15;" parent="1" vertex="1">
          <mxGeometry x="2370" y="380" width="20" height="20" as="geometry" />
        </mxCell>
        <mxCell id="PR-DkjaTJeX6SM60oxyz-36" value="1" style="ellipse;whiteSpace=wrap;html=1;fontSize=15;" parent="1" vertex="1">
          <mxGeometry x="1770" y="370" width="20" height="20" as="geometry" />
        </mxCell>
        <mxCell id="PR-DkjaTJeX6SM60oxyz-37" value="5" style="ellipse;whiteSpace=wrap;html=1;fontSize=15;" parent="1" vertex="1">
          <mxGeometry x="1770" y="470" width="20" height="20" as="geometry" />
        </mxCell>
        <mxCell id="PR-DkjaTJeX6SM60oxyz-38" value="" style="endArrow=classic;html=1;rounded=0;entryX=1;entryY=0.5;entryDx=0;entryDy=0;fontSize=15;" parent="1" target="PR-DkjaTJeX6SM60oxyz-31" edge="1">
          <mxGeometry width="50" height="50" relative="1" as="geometry">
            <mxPoint x="2160" y="440" as="sourcePoint" />
            <mxPoint x="2210" y="390" as="targetPoint" />
          </mxGeometry>
        </mxCell>
        <mxCell id="PR-DkjaTJeX6SM60oxyz-39" value="" style="endArrow=classic;html=1;rounded=0;entryX=1.002;entryY=0.434;entryDx=0;entryDy=0;entryPerimeter=0;fontSize=15;exitX=0;exitY=0.5;exitDx=0;exitDy=0;" parent="1" source="PR-DkjaTJeX6SM60oxyz-31" target="PR-DkjaTJeX6SM60oxyz-1" edge="1">
          <mxGeometry width="50" height="50" relative="1" as="geometry">
            <mxPoint x="2040" y="420" as="sourcePoint" />
            <mxPoint x="2090" y="370" as="targetPoint" />
          </mxGeometry>
        </mxCell>
        <mxCell id="PR-DkjaTJeX6SM60oxyz-40" value="3" style="ellipse;whiteSpace=wrap;html=1;fontSize=15;" parent="1" vertex="1">
          <mxGeometry x="2370" y="410" width="20" height="20" as="geometry" />
        </mxCell>
        <mxCell id="PR-DkjaTJeX6SM60oxyz-41" value="4" style="ellipse;whiteSpace=wrap;html=1;fontSize=15;" parent="1" vertex="1">
          <mxGeometry x="2070" y="430" width="20" height="20" as="geometry" />
        </mxCell>
        <mxCell id="PR-DkjaTJeX6SM60oxyz-42" value="6" style="ellipse;whiteSpace=wrap;html=1;fontSize=15;" parent="1" vertex="1">
          <mxGeometry x="1770" y="550" width="20" height="20" as="geometry" />
        </mxCell>
        <mxCell id="PR-DkjaTJeX6SM60oxyz-43" value="7" style="ellipse;whiteSpace=wrap;html=1;fontSize=15;" parent="1" vertex="1">
          <mxGeometry x="2370" y="580" width="20" height="20" as="geometry" />
        </mxCell>
        <mxCell id="PR-DkjaTJeX6SM60oxyz-44" value="8" style="ellipse;whiteSpace=wrap;html=1;fontSize=15;" parent="1" vertex="1">
          <mxGeometry x="2370" y="620" width="20" height="20" as="geometry" />
        </mxCell>
        <mxCell id="PR-DkjaTJeX6SM60oxyz-45" value="9" style="ellipse;whiteSpace=wrap;html=1;fontSize=15;" parent="1" vertex="1">
          <mxGeometry x="1770" y="660" width="20" height="20" as="geometry" />
        </mxCell>
        <mxCell id="PR-DkjaTJeX6SM60oxyz-46" value="10" style="ellipse;whiteSpace=wrap;html=1;fontSize=15;" parent="1" vertex="1">
          <mxGeometry x="2370" y="690" width="20" height="20" as="geometry" />
        </mxCell>
        <mxCell id="zmY5JdKIaMc1ror4T7HT-1" value="Target thread" style="rounded=0;whiteSpace=wrap;html=1;fillColor=none;fontSize=15;" parent="1" vertex="1">
          <mxGeometry x="2600" y="360" width="200" height="40" as="geometry" />
        </mxCell>
        <mxCell id="zmY5JdKIaMc1ror4T7HT-2" value="Attacker thread" style="rounded=0;whiteSpace=wrap;html=1;fillColor=none;fontSize=15;" parent="1" vertex="1">
          <mxGeometry x="3040" y="360" width="200" height="40" as="geometry" />
        </mxCell>
        <mxCell id="zmY5JdKIaMc1ror4T7HT-3" value="Memory state" style="rounded=0;whiteSpace=wrap;html=1;fillColor=none;fontSize=15;" parent="1" vertex="1">
          <mxGeometry x="2920" y="360" width="120" height="40" as="geometry" />
        </mxCell>
        <mxCell id="zmY5JdKIaMc1ror4T7HT-4" value="" style="rounded=0;whiteSpace=wrap;html=1;fillColor=none;fontSize=15;" parent="1" vertex="1">
          <mxGeometry x="2600" y="400" width="200" height="620" as="geometry" />
        </mxCell>
        <mxCell id="zmY5JdKIaMc1ror4T7HT-5" value="" style="rounded=0;whiteSpace=wrap;html=1;fillColor=none;fontSize=15;" parent="1" vertex="1">
          <mxGeometry x="2920" y="400" width="120" height="620" as="geometry" />
        </mxCell>
        <mxCell id="zmY5JdKIaMc1ror4T7HT-6" value="" style="rounded=0;whiteSpace=wrap;html=1;fillColor=none;fontSize=15;" parent="1" vertex="1">
          <mxGeometry x="3040" y="400" width="200" height="620" as="geometry" />
        </mxCell>
        <mxCell id="zmY5JdKIaMc1ror4T7HT-7" value="Enter a syscall" style="rounded=0;whiteSpace=wrap;html=1;fontSize=15;" parent="1" vertex="1">
          <mxGeometry x="2640" y="420" width="120" height="40" as="geometry" />
        </mxCell>
        <mxCell id="zmY5JdKIaMc1ror4T7HT-8" style="edgeStyle=orthogonalEdgeStyle;rounded=0;orthogonalLoop=1;jettySize=auto;html=1;exitX=0.5;exitY=1;exitDx=0;exitDy=0;entryX=0.5;entryY=0;entryDx=0;entryDy=0;fontSize=15;" parent="1" source="zmY5JdKIaMc1ror4T7HT-7" target="zmY5JdKIaMc1ror4T7HT-9" edge="1">
          <mxGeometry relative="1" as="geometry" />
        </mxCell>
        <mxCell id="zmY5JdKIaMc1ror4T7HT-9" value="&lt;div style=&quot;font-size: 15px&quot;&gt;Read(X) = 42&lt;/div&gt;&lt;div style=&quot;font-size: 15px&quot;&gt;Snapshot X&lt;/div&gt;" style="rounded=0;whiteSpace=wrap;html=1;fontSize=15;" parent="1" vertex="1">
          <mxGeometry x="2640" y="480" width="120" height="40" as="geometry" />
        </mxCell>
        <mxCell id="zmY5JdKIaMc1ror4T7HT-13" style="edgeStyle=orthogonalEdgeStyle;rounded=0;orthogonalLoop=1;jettySize=auto;html=1;exitX=0;exitY=0.5;exitDx=0;exitDy=0;entryX=1;entryY=0.5;entryDx=0;entryDy=0;dashed=1;fontSize=15;" parent="1" source="zmY5JdKIaMc1ror4T7HT-14" target="zmY5JdKIaMc1ror4T7HT-9" edge="1">
          <mxGeometry relative="1" as="geometry" />
        </mxCell>
        <mxCell id="zmY5JdKIaMc1ror4T7HT-14" value="X=42" style="rounded=0;whiteSpace=wrap;html=1;fontSize=15;" parent="1" vertex="1">
          <mxGeometry x="2960" y="480" width="40" height="40" as="geometry" />
        </mxCell>
        <mxCell id="zmY5JdKIaMc1ror4T7HT-17" value="Read secret from side-channel" style="rounded=0;whiteSpace=wrap;html=1;fontSize=15;" parent="1" vertex="1">
          <mxGeometry x="3080" y="960" width="120" height="40" as="geometry" />
        </mxCell>
        <mxCell id="zmY5JdKIaMc1ror4T7HT-22" value="" style="group" parent="1" vertex="1" connectable="0">
          <mxGeometry x="1880" y="190" width="400" height="140" as="geometry" />
        </mxCell>
        <mxCell id="PR-DkjaTJeX6SM60oxyz-19" value="" style="group;fontSize=15;" parent="zmY5JdKIaMc1ror4T7HT-22" vertex="1" connectable="0">
          <mxGeometry x="170" width="60" height="60" as="geometry" />
        </mxCell>
        <mxCell id="PR-DkjaTJeX6SM60oxyz-2" value="" style="rounded=1;whiteSpace=wrap;html=1;fontSize=15;" parent="PR-DkjaTJeX6SM60oxyz-19" vertex="1">
          <mxGeometry x="9.965000000000051" y="10" width="40.00000000000008" height="40" as="geometry" />
        </mxCell>
        <mxCell id="PR-DkjaTJeX6SM60oxyz-7" value="" style="endArrow=none;html=1;rounded=0;fontSize=15;" parent="PR-DkjaTJeX6SM60oxyz-19" edge="1">
          <mxGeometry width="50" height="50" relative="1" as="geometry">
            <mxPoint x="19.755000000000035" y="60" as="sourcePoint" />
            <mxPoint x="19.755000000000035" y="49.99999999999999" as="targetPoint" />
          </mxGeometry>
        </mxCell>
        <mxCell id="PR-DkjaTJeX6SM60oxyz-8" value="" style="endArrow=none;html=1;rounded=0;fontSize=15;" parent="PR-DkjaTJeX6SM60oxyz-19" edge="1">
          <mxGeometry width="50" height="50" relative="1" as="geometry">
            <mxPoint x="29.82499999999999" y="60" as="sourcePoint" />
            <mxPoint x="29.82499999999999" y="49.99999999999999" as="targetPoint" />
          </mxGeometry>
        </mxCell>
        <mxCell id="PR-DkjaTJeX6SM60oxyz-9" value="" style="endArrow=none;html=1;rounded=0;fontSize=15;" parent="PR-DkjaTJeX6SM60oxyz-19" edge="1">
          <mxGeometry width="50" height="50" relative="1" as="geometry">
            <mxPoint x="39.82500000000001" y="60" as="sourcePoint" />
            <mxPoint x="39.82500000000001" y="49.99999999999999" as="targetPoint" />
          </mxGeometry>
        </mxCell>
        <mxCell id="PR-DkjaTJeX6SM60oxyz-10" value="" style="group;fontSize=15;" parent="PR-DkjaTJeX6SM60oxyz-19" vertex="1" connectable="0">
          <mxGeometry x="19.895000000000135" width="20.069999999999975" height="10" as="geometry" />
        </mxCell>
        <mxCell id="PR-DkjaTJeX6SM60oxyz-3" value="" style="endArrow=none;html=1;rounded=0;fontSize=15;" parent="PR-DkjaTJeX6SM60oxyz-10" edge="1">
          <mxGeometry width="50" height="50" relative="1" as="geometry">
            <mxPoint y="10" as="sourcePoint" />
            <mxPoint as="targetPoint" />
          </mxGeometry>
        </mxCell>
        <mxCell id="PR-DkjaTJeX6SM60oxyz-5" value="" style="endArrow=none;html=1;rounded=0;fontSize=15;" parent="PR-DkjaTJeX6SM60oxyz-10" edge="1">
          <mxGeometry width="50" height="50" relative="1" as="geometry">
            <mxPoint x="10.069999999999956" y="10" as="sourcePoint" />
            <mxPoint x="10.069999999999956" as="targetPoint" />
          </mxGeometry>
        </mxCell>
        <mxCell id="PR-DkjaTJeX6SM60oxyz-6" value="" style="endArrow=none;html=1;rounded=0;fontSize=15;" parent="PR-DkjaTJeX6SM60oxyz-10" edge="1">
          <mxGeometry width="50" height="50" relative="1" as="geometry">
            <mxPoint x="20.069999999999975" y="10" as="sourcePoint" />
            <mxPoint x="20.069999999999975" as="targetPoint" />
          </mxGeometry>
        </mxCell>
        <mxCell id="PR-DkjaTJeX6SM60oxyz-11" value="" style="group;rotation=90;fontSize=15;" parent="PR-DkjaTJeX6SM60oxyz-19" vertex="1" connectable="0">
          <mxGeometry x="44.96500000000012" y="24.999999999999996" width="20.069999999999975" height="10" as="geometry" />
        </mxCell>
        <mxCell id="PR-DkjaTJeX6SM60oxyz-12" value="" style="endArrow=none;html=1;rounded=0;fontSize=15;" parent="PR-DkjaTJeX6SM60oxyz-11" edge="1">
          <mxGeometry width="50" height="50" relative="1" as="geometry">
            <mxPoint x="5.00000000000001" y="-5" as="sourcePoint" />
            <mxPoint x="15.000000000000028" y="-5" as="targetPoint" />
          </mxGeometry>
        </mxCell>
        <mxCell id="PR-DkjaTJeX6SM60oxyz-13" value="" style="endArrow=none;html=1;rounded=0;fontSize=15;" parent="PR-DkjaTJeX6SM60oxyz-11" edge="1">
          <mxGeometry width="50" height="50" relative="1" as="geometry">
            <mxPoint x="5.00000000000001" y="5" as="sourcePoint" />
            <mxPoint x="15.000000000000028" y="5" as="targetPoint" />
          </mxGeometry>
        </mxCell>
        <mxCell id="PR-DkjaTJeX6SM60oxyz-14" value="" style="endArrow=none;html=1;rounded=0;fontSize=15;" parent="PR-DkjaTJeX6SM60oxyz-11" edge="1">
          <mxGeometry width="50" height="50" relative="1" as="geometry">
            <mxPoint x="5.00000000000001" y="15.000000000000002" as="sourcePoint" />
            <mxPoint x="15.000000000000028" y="15.000000000000002" as="targetPoint" />
          </mxGeometry>
        </mxCell>
        <mxCell id="PR-DkjaTJeX6SM60oxyz-15" value="" style="group;rotation=90;fontSize=15;" parent="PR-DkjaTJeX6SM60oxyz-19" vertex="1" connectable="0">
          <mxGeometry x="-5.034999999999978" y="24.999999999999996" width="20.069999999999975" height="10" as="geometry" />
        </mxCell>
        <mxCell id="PR-DkjaTJeX6SM60oxyz-16" value="" style="endArrow=none;html=1;rounded=0;fontSize=15;" parent="PR-DkjaTJeX6SM60oxyz-15" edge="1">
          <mxGeometry width="50" height="50" relative="1" as="geometry">
            <mxPoint x="5.00000000000001" y="-5" as="sourcePoint" />
            <mxPoint x="15.000000000000028" y="-5" as="targetPoint" />
          </mxGeometry>
        </mxCell>
        <mxCell id="PR-DkjaTJeX6SM60oxyz-17" value="" style="endArrow=none;html=1;rounded=0;fontSize=15;" parent="PR-DkjaTJeX6SM60oxyz-15" edge="1">
          <mxGeometry width="50" height="50" relative="1" as="geometry">
            <mxPoint x="5.00000000000001" y="5" as="sourcePoint" />
            <mxPoint x="15.000000000000028" y="5" as="targetPoint" />
          </mxGeometry>
        </mxCell>
        <mxCell id="PR-DkjaTJeX6SM60oxyz-18" value="" style="endArrow=none;html=1;rounded=0;fontSize=15;" parent="PR-DkjaTJeX6SM60oxyz-15" edge="1">
          <mxGeometry width="50" height="50" relative="1" as="geometry">
            <mxPoint x="5.00000000000001" y="15.000000000000002" as="sourcePoint" />
            <mxPoint x="15.000000000000028" y="15.000000000000002" as="targetPoint" />
          </mxGeometry>
        </mxCell>
        <mxCell id="PR-DkjaTJeX6SM60oxyz-23" value="" style="group;fontSize=15;" parent="zmY5JdKIaMc1ror4T7HT-22" vertex="1" connectable="0">
          <mxGeometry x="30" y="90" width="20.03" height="40" as="geometry" />
        </mxCell>
        <mxCell id="PR-DkjaTJeX6SM60oxyz-20" value="" style="endArrow=none;html=1;rounded=0;edgeStyle=orthogonalEdgeStyle;curved=1;fontSize=15;" parent="PR-DkjaTJeX6SM60oxyz-23" edge="1">
          <mxGeometry width="50" height="50" relative="1" as="geometry">
            <mxPoint x="10.029999999999987" y="20" as="sourcePoint" />
            <mxPoint x="10.029999999999987" as="targetPoint" />
            <Array as="points">
              <mxPoint x="0.029999999999972757" y="20" />
              <mxPoint x="0.029999999999972757" y="10" />
              <mxPoint x="20.03" y="10" />
              <mxPoint x="20.03" />
            </Array>
          </mxGeometry>
        </mxCell>
        <mxCell id="PR-DkjaTJeX6SM60oxyz-22" value="" style="endArrow=none;html=1;rounded=0;edgeStyle=orthogonalEdgeStyle;curved=1;fontSize=15;" parent="PR-DkjaTJeX6SM60oxyz-23" edge="1">
          <mxGeometry width="50" height="50" relative="1" as="geometry">
            <mxPoint x="10.000000000000014" y="40" as="sourcePoint" />
            <mxPoint x="10.000000000000014" y="20" as="targetPoint" />
            <Array as="points">
              <mxPoint y="40" />
              <mxPoint y="30" />
              <mxPoint x="20.00000000000003" y="30" />
              <mxPoint x="20.00000000000003" y="20" />
            </Array>
          </mxGeometry>
        </mxCell>
        <mxCell id="PR-DkjaTJeX6SM60oxyz-24" value="" style="group;fontSize=15;" parent="zmY5JdKIaMc1ror4T7HT-22" vertex="1" connectable="0">
          <mxGeometry x="350" y="100" width="20.03" height="30" as="geometry" />
        </mxCell>
        <mxCell id="PR-DkjaTJeX6SM60oxyz-25" value="" style="endArrow=none;html=1;rounded=0;edgeStyle=orthogonalEdgeStyle;curved=1;fontSize=15;" parent="PR-DkjaTJeX6SM60oxyz-24" edge="1">
          <mxGeometry width="50" height="50" relative="1" as="geometry">
            <mxPoint x="10.029999999999987" y="15" as="sourcePoint" />
            <mxPoint x="10.029999999999987" as="targetPoint" />
            <Array as="points">
              <mxPoint x="0.029999999999972757" y="15" />
              <mxPoint x="0.029999999999972757" y="7.5" />
              <mxPoint x="20.03" y="7.5" />
              <mxPoint x="20.03" />
            </Array>
          </mxGeometry>
        </mxCell>
        <mxCell id="PR-DkjaTJeX6SM60oxyz-26" value="" style="endArrow=none;html=1;rounded=0;edgeStyle=orthogonalEdgeStyle;curved=1;fontSize=15;" parent="PR-DkjaTJeX6SM60oxyz-24" edge="1">
          <mxGeometry width="50" height="50" relative="1" as="geometry">
            <mxPoint x="10.000000000000014" y="30" as="sourcePoint" />
            <mxPoint x="10.000000000000014" y="15" as="targetPoint" />
            <Array as="points">
              <mxPoint y="30" />
              <mxPoint y="22.5" />
              <mxPoint x="20.00000000000003" y="22.5" />
              <mxPoint x="20.00000000000003" y="15" />
            </Array>
          </mxGeometry>
        </mxCell>
        <mxCell id="PR-DkjaTJeX6SM60oxyz-47" value="" style="rounded=0;whiteSpace=wrap;html=1;fillColor=none;dashed=1;" parent="zmY5JdKIaMc1ror4T7HT-22" vertex="1">
          <mxGeometry y="80" width="400" height="60" as="geometry" />
        </mxCell>
        <mxCell id="PR-DkjaTJeX6SM60oxyz-48" value="" style="endArrow=none;html=1;rounded=0;dashed=1;" parent="zmY5JdKIaMc1ror4T7HT-22" edge="1">
          <mxGeometry width="50" height="50" relative="1" as="geometry">
            <mxPoint y="80" as="sourcePoint" />
            <mxPoint x="160" y="50" as="targetPoint" />
          </mxGeometry>
        </mxCell>
        <mxCell id="PR-DkjaTJeX6SM60oxyz-49" value="" style="endArrow=none;html=1;rounded=0;dashed=1;" parent="zmY5JdKIaMc1ror4T7HT-22" edge="1">
          <mxGeometry width="50" height="50" relative="1" as="geometry">
            <mxPoint x="240" y="50" as="sourcePoint" />
            <mxPoint x="400" y="80" as="targetPoint" />
          </mxGeometry>
        </mxCell>
        <mxCell id="zmY5JdKIaMc1ror4T7HT-50" value="1" style="ellipse;whiteSpace=wrap;html=1;fontSize=15;" parent="1" vertex="1">
          <mxGeometry x="2570" y="490" width="20" height="20" as="geometry" />
        </mxCell>
        <mxCell id="zmY5JdKIaMc1ror4T7HT-63" style="edgeStyle=orthogonalEdgeStyle;rounded=0;orthogonalLoop=1;jettySize=auto;html=1;exitX=0.5;exitY=1;exitDx=0;exitDy=0;entryX=0.5;entryY=0;entryDx=0;entryDy=0;" parent="1" source="zmY5JdKIaMc1ror4T7HT-51" target="zmY5JdKIaMc1ror4T7HT-52" edge="1">
          <mxGeometry relative="1" as="geometry" />
        </mxCell>
        <mxCell id="zmY5JdKIaMc1ror4T7HT-51" value="Speculation start" style="rounded=0;whiteSpace=wrap;html=1;fontSize=15;" parent="1" vertex="1">
          <mxGeometry x="3080" y="540" width="120" height="40" as="geometry" />
        </mxCell>
        <mxCell id="zmY5JdKIaMc1ror4T7HT-59" style="rounded=0;orthogonalLoop=1;jettySize=auto;html=1;exitX=0;exitY=0.5;exitDx=0;exitDy=0;entryX=1;entryY=0.5;entryDx=0;entryDy=0;dashed=1;" parent="1" source="zmY5JdKIaMc1ror4T7HT-52" target="zmY5JdKIaMc1ror4T7HT-56" edge="1">
          <mxGeometry relative="1" as="geometry">
            <Array as="points">
              <mxPoint x="3060" y="620" />
              <mxPoint x="3060" y="660" />
            </Array>
          </mxGeometry>
        </mxCell>
        <mxCell id="zmY5JdKIaMc1ror4T7HT-68" style="edgeStyle=orthogonalEdgeStyle;rounded=0;orthogonalLoop=1;jettySize=auto;html=1;exitX=0.5;exitY=1;exitDx=0;exitDy=0;entryX=0.5;entryY=0;entryDx=0;entryDy=0;" parent="1" source="zmY5JdKIaMc1ror4T7HT-52" target="zmY5JdKIaMc1ror4T7HT-64" edge="1">
          <mxGeometry relative="1" as="geometry" />
        </mxCell>
        <mxCell id="zmY5JdKIaMc1ror4T7HT-52" value="Illegal Write(X, 0)" style="rounded=0;whiteSpace=wrap;html=1;fontSize=15;" parent="1" vertex="1">
          <mxGeometry x="3080" y="600" width="120" height="40" as="geometry" />
        </mxCell>
        <mxCell id="zmY5JdKIaMc1ror4T7HT-53" value="Microarchitectural state" style="rounded=0;whiteSpace=wrap;html=1;fillColor=none;fontSize=15;" parent="1" vertex="1">
          <mxGeometry x="2800" y="360" width="120" height="40" as="geometry" />
        </mxCell>
        <mxCell id="zmY5JdKIaMc1ror4T7HT-54" value="" style="rounded=0;whiteSpace=wrap;html=1;fillColor=none;fontSize=15;" parent="1" vertex="1">
          <mxGeometry x="2800" y="400" width="120" height="620" as="geometry" />
        </mxCell>
        <mxCell id="zmY5JdKIaMc1ror4T7HT-60" style="rounded=0;orthogonalLoop=1;jettySize=auto;html=1;exitX=0;exitY=0.5;exitDx=0;exitDy=0;entryX=1;entryY=0.5;entryDx=0;entryDy=0;dashed=1;" parent="1" source="zmY5JdKIaMc1ror4T7HT-56" target="zmY5JdKIaMc1ror4T7HT-57" edge="1">
          <mxGeometry relative="1" as="geometry">
            <Array as="points">
              <mxPoint x="2820" y="660" />
              <mxPoint x="2820" y="700" />
            </Array>
          </mxGeometry>
        </mxCell>
        <mxCell id="zmY5JdKIaMc1ror4T7HT-56" value="LSQ" style="rounded=0;whiteSpace=wrap;html=1;fontSize=15;" parent="1" vertex="1">
          <mxGeometry x="2840" y="640" width="40" height="40" as="geometry" />
        </mxCell>
        <mxCell id="zmY5JdKIaMc1ror4T7HT-58" value="" style="edgeStyle=orthogonalEdgeStyle;rounded=0;orthogonalLoop=1;jettySize=auto;html=1;exitX=0.5;exitY=1;exitDx=0;exitDy=0;entryX=0.5;entryY=0;entryDx=0;entryDy=0;fontSize=15;" parent="1" source="zmY5JdKIaMc1ror4T7HT-9" target="zmY5JdKIaMc1ror4T7HT-57" edge="1">
          <mxGeometry relative="1" as="geometry">
            <mxPoint x="2690" y="520" as="sourcePoint" />
            <mxPoint x="2690" y="1020" as="targetPoint" />
          </mxGeometry>
        </mxCell>
        <mxCell id="zmY5JdKIaMc1ror4T7HT-57" value="&lt;div style=&quot;font-size: 15px&quot;&gt;Read(X) = 0&lt;/div&gt;&lt;div style=&quot;font-size: 15px&quot;&gt;from LSQ&lt;/div&gt;" style="rounded=0;whiteSpace=wrap;html=1;fontSize=15;" parent="1" vertex="1">
          <mxGeometry x="2640" y="680" width="120" height="40" as="geometry" />
        </mxCell>
        <mxCell id="zmY5JdKIaMc1ror4T7HT-62" value="" style="edgeStyle=orthogonalEdgeStyle;rounded=0;orthogonalLoop=1;jettySize=auto;html=1;exitX=0.5;exitY=1;exitDx=0;exitDy=0;entryX=0.5;entryY=0;entryDx=0;entryDy=0;fontSize=15;" parent="1" source="zmY5JdKIaMc1ror4T7HT-57" target="zmY5JdKIaMc1ror4T7HT-61" edge="1">
          <mxGeometry relative="1" as="geometry">
            <mxPoint x="2700" y="720" as="sourcePoint" />
            <mxPoint x="2700" y="1020" as="targetPoint" />
          </mxGeometry>
        </mxCell>
        <mxCell id="zmY5JdKIaMc1ror4T7HT-82" style="edgeStyle=orthogonalEdgeStyle;rounded=0;orthogonalLoop=1;jettySize=auto;html=1;exitX=1;exitY=0.5;exitDx=0;exitDy=0;entryX=0;entryY=0.5;entryDx=0;entryDy=0;dashed=1;" parent="1" source="zmY5JdKIaMc1ror4T7HT-61" target="zmY5JdKIaMc1ror4T7HT-81" edge="1">
          <mxGeometry relative="1" as="geometry">
            <Array as="points">
              <mxPoint x="2780" y="790" />
              <mxPoint x="2780" y="870" />
            </Array>
          </mxGeometry>
        </mxCell>
        <mxCell id="zmY5JdKIaMc1ror4T7HT-61" value="&lt;div style=&quot;font-size: 15px&quot;&gt;Use X = 0&lt;/div&gt;&lt;div style=&quot;font-size: 15px&quot;&gt;Write secret into&lt;/div&gt;&lt;div style=&quot;font-size: 15px&quot;&gt;side-channel&lt;/div&gt;" style="rounded=0;whiteSpace=wrap;html=1;fontSize=15;" parent="1" vertex="1">
          <mxGeometry x="2640" y="760" width="120" height="60" as="geometry" />
        </mxCell>
        <mxCell id="zmY5JdKIaMc1ror4T7HT-69" style="edgeStyle=orthogonalEdgeStyle;rounded=0;orthogonalLoop=1;jettySize=auto;html=1;exitX=0.5;exitY=1;exitDx=0;exitDy=0;entryX=0.5;entryY=0;entryDx=0;entryDy=0;" parent="1" source="zmY5JdKIaMc1ror4T7HT-64" target="zmY5JdKIaMc1ror4T7HT-65" edge="1">
          <mxGeometry relative="1" as="geometry" />
        </mxCell>
        <mxCell id="zmY5JdKIaMc1ror4T7HT-64" value="Speculation end" style="rounded=0;whiteSpace=wrap;html=1;fontSize=15;" parent="1" vertex="1">
          <mxGeometry x="3080" y="840" width="120" height="40" as="geometry" />
        </mxCell>
        <mxCell id="zmY5JdKIaMc1ror4T7HT-70" style="edgeStyle=orthogonalEdgeStyle;rounded=0;orthogonalLoop=1;jettySize=auto;html=1;exitX=0.5;exitY=1;exitDx=0;exitDy=0;entryX=0.5;entryY=0;entryDx=0;entryDy=0;" parent="1" source="zmY5JdKIaMc1ror4T7HT-65" target="zmY5JdKIaMc1ror4T7HT-17" edge="1">
          <mxGeometry relative="1" as="geometry" />
        </mxCell>
        <mxCell id="zmY5JdKIaMc1ror4T7HT-65" value="Roll back write" style="rounded=0;whiteSpace=wrap;html=1;fontSize=15;" parent="1" vertex="1">
          <mxGeometry x="3080" y="900" width="120" height="40" as="geometry" />
        </mxCell>
        <mxCell id="zmY5JdKIaMc1ror4T7HT-67" value="" style="edgeStyle=orthogonalEdgeStyle;rounded=0;orthogonalLoop=1;jettySize=auto;html=1;exitX=0.5;exitY=1;exitDx=0;exitDy=0;entryX=0.5;entryY=0;entryDx=0;entryDy=0;fontSize=15;" parent="1" source="zmY5JdKIaMc1ror4T7HT-61" target="zmY5JdKIaMc1ror4T7HT-66" edge="1">
          <mxGeometry relative="1" as="geometry">
            <mxPoint x="2700" y="820" as="sourcePoint" />
            <mxPoint x="2700" y="1020" as="targetPoint" />
          </mxGeometry>
        </mxCell>
        <mxCell id="zmY5JdKIaMc1ror4T7HT-66" value="Roll back read" style="rounded=0;whiteSpace=wrap;html=1;fontSize=15;" parent="1" vertex="1">
          <mxGeometry x="2640" y="900" width="120" height="40" as="geometry" />
        </mxCell>
        <mxCell id="zmY5JdKIaMc1ror4T7HT-71" value="2" style="ellipse;whiteSpace=wrap;html=1;fontSize=15;" parent="1" vertex="1">
          <mxGeometry x="3250" y="550" width="20" height="20" as="geometry" />
        </mxCell>
        <mxCell id="zmY5JdKIaMc1ror4T7HT-72" value="3" style="ellipse;whiteSpace=wrap;html=1;fontSize=15;" parent="1" vertex="1">
          <mxGeometry x="3250" y="610" width="20" height="20" as="geometry" />
        </mxCell>
        <mxCell id="zmY5JdKIaMc1ror4T7HT-73" value="4" style="ellipse;whiteSpace=wrap;html=1;fontSize=15;" parent="1" vertex="1">
          <mxGeometry x="2850" y="610" width="20" height="20" as="geometry" />
        </mxCell>
        <mxCell id="zmY5JdKIaMc1ror4T7HT-75" value="5" style="ellipse;whiteSpace=wrap;html=1;fontSize=15;" parent="1" vertex="1">
          <mxGeometry x="2570" y="690" width="20" height="20" as="geometry" />
        </mxCell>
        <mxCell id="zmY5JdKIaMc1ror4T7HT-76" value="6" style="ellipse;whiteSpace=wrap;html=1;fontSize=15;" parent="1" vertex="1">
          <mxGeometry x="2570" y="780" width="20" height="20" as="geometry" />
        </mxCell>
        <mxCell id="zmY5JdKIaMc1ror4T7HT-77" value="9" style="ellipse;whiteSpace=wrap;html=1;fontSize=15;" parent="1" vertex="1">
          <mxGeometry x="2570" y="910" width="20" height="20" as="geometry" />
        </mxCell>
        <mxCell id="zmY5JdKIaMc1ror4T7HT-78" value="8" style="ellipse;whiteSpace=wrap;html=1;fontSize=15;" parent="1" vertex="1">
          <mxGeometry x="3250" y="910" width="20" height="20" as="geometry" />
        </mxCell>
        <mxCell id="zmY5JdKIaMc1ror4T7HT-79" value="7" style="ellipse;whiteSpace=wrap;html=1;fontSize=15;" parent="1" vertex="1">
          <mxGeometry x="3250" y="850" width="20" height="20" as="geometry" />
        </mxCell>
        <mxCell id="zmY5JdKIaMc1ror4T7HT-80" value="10" style="ellipse;whiteSpace=wrap;html=1;fontSize=15;" parent="1" vertex="1">
          <mxGeometry x="3250" y="970" width="20" height="20" as="geometry" />
        </mxCell>
        <mxCell id="zmY5JdKIaMc1ror4T7HT-24" value="" style="group;fontSize=15;" parent="1" vertex="1" connectable="0">
          <mxGeometry x="2890" y="190" width="60" height="60" as="geometry" />
        </mxCell>
        <mxCell id="zmY5JdKIaMc1ror4T7HT-25" value="" style="rounded=1;whiteSpace=wrap;html=1;fontSize=15;" parent="zmY5JdKIaMc1ror4T7HT-24" vertex="1">
          <mxGeometry x="9.965000000000051" y="10" width="40.00000000000008" height="40" as="geometry" />
        </mxCell>
        <mxCell id="zmY5JdKIaMc1ror4T7HT-26" value="" style="endArrow=none;html=1;rounded=0;fontSize=15;" parent="zmY5JdKIaMc1ror4T7HT-24" edge="1">
          <mxGeometry width="50" height="50" relative="1" as="geometry">
            <mxPoint x="19.755000000000035" y="60" as="sourcePoint" />
            <mxPoint x="19.755000000000035" y="49.99999999999999" as="targetPoint" />
          </mxGeometry>
        </mxCell>
        <mxCell id="zmY5JdKIaMc1ror4T7HT-27" value="" style="endArrow=none;html=1;rounded=0;fontSize=15;" parent="zmY5JdKIaMc1ror4T7HT-24" edge="1">
          <mxGeometry width="50" height="50" relative="1" as="geometry">
            <mxPoint x="29.82499999999999" y="60" as="sourcePoint" />
            <mxPoint x="29.82499999999999" y="49.99999999999999" as="targetPoint" />
          </mxGeometry>
        </mxCell>
        <mxCell id="zmY5JdKIaMc1ror4T7HT-28" value="" style="endArrow=none;html=1;rounded=0;fontSize=15;" parent="zmY5JdKIaMc1ror4T7HT-24" edge="1">
          <mxGeometry width="50" height="50" relative="1" as="geometry">
            <mxPoint x="39.82500000000001" y="60" as="sourcePoint" />
            <mxPoint x="39.82500000000001" y="49.99999999999999" as="targetPoint" />
          </mxGeometry>
        </mxCell>
        <mxCell id="zmY5JdKIaMc1ror4T7HT-29" value="" style="group;fontSize=15;" parent="zmY5JdKIaMc1ror4T7HT-24" vertex="1" connectable="0">
          <mxGeometry x="19.895000000000135" width="20.069999999999975" height="10" as="geometry" />
        </mxCell>
        <mxCell id="zmY5JdKIaMc1ror4T7HT-30" value="" style="endArrow=none;html=1;rounded=0;fontSize=15;" parent="zmY5JdKIaMc1ror4T7HT-29" edge="1">
          <mxGeometry width="50" height="50" relative="1" as="geometry">
            <mxPoint y="10" as="sourcePoint" />
            <mxPoint as="targetPoint" />
          </mxGeometry>
        </mxCell>
        <mxCell id="zmY5JdKIaMc1ror4T7HT-31" value="" style="endArrow=none;html=1;rounded=0;fontSize=15;" parent="zmY5JdKIaMc1ror4T7HT-29" edge="1">
          <mxGeometry width="50" height="50" relative="1" as="geometry">
            <mxPoint x="10.069999999999956" y="10" as="sourcePoint" />
            <mxPoint x="10.069999999999956" as="targetPoint" />
          </mxGeometry>
        </mxCell>
        <mxCell id="zmY5JdKIaMc1ror4T7HT-32" value="" style="endArrow=none;html=1;rounded=0;fontSize=15;" parent="zmY5JdKIaMc1ror4T7HT-29" edge="1">
          <mxGeometry width="50" height="50" relative="1" as="geometry">
            <mxPoint x="20.069999999999975" y="10" as="sourcePoint" />
            <mxPoint x="20.069999999999975" as="targetPoint" />
          </mxGeometry>
        </mxCell>
        <mxCell id="zmY5JdKIaMc1ror4T7HT-33" value="" style="group;rotation=90;fontSize=15;" parent="zmY5JdKIaMc1ror4T7HT-24" vertex="1" connectable="0">
          <mxGeometry x="44.96500000000012" y="24.999999999999996" width="20.069999999999975" height="10" as="geometry" />
        </mxCell>
        <mxCell id="zmY5JdKIaMc1ror4T7HT-34" value="" style="endArrow=none;html=1;rounded=0;fontSize=15;" parent="zmY5JdKIaMc1ror4T7HT-33" edge="1">
          <mxGeometry width="50" height="50" relative="1" as="geometry">
            <mxPoint x="5.00000000000001" y="-5" as="sourcePoint" />
            <mxPoint x="15.000000000000028" y="-5" as="targetPoint" />
          </mxGeometry>
        </mxCell>
        <mxCell id="zmY5JdKIaMc1ror4T7HT-35" value="" style="endArrow=none;html=1;rounded=0;fontSize=15;" parent="zmY5JdKIaMc1ror4T7HT-33" edge="1">
          <mxGeometry width="50" height="50" relative="1" as="geometry">
            <mxPoint x="5.00000000000001" y="5" as="sourcePoint" />
            <mxPoint x="15.000000000000028" y="5" as="targetPoint" />
          </mxGeometry>
        </mxCell>
        <mxCell id="zmY5JdKIaMc1ror4T7HT-36" value="" style="endArrow=none;html=1;rounded=0;fontSize=15;" parent="zmY5JdKIaMc1ror4T7HT-33" edge="1">
          <mxGeometry width="50" height="50" relative="1" as="geometry">
            <mxPoint x="5.00000000000001" y="15.000000000000002" as="sourcePoint" />
            <mxPoint x="15.000000000000028" y="15.000000000000002" as="targetPoint" />
          </mxGeometry>
        </mxCell>
        <mxCell id="zmY5JdKIaMc1ror4T7HT-37" value="" style="group;rotation=90;fontSize=15;" parent="zmY5JdKIaMc1ror4T7HT-24" vertex="1" connectable="0">
          <mxGeometry x="-5.034999999999978" y="24.999999999999996" width="20.069999999999975" height="10" as="geometry" />
        </mxCell>
        <mxCell id="zmY5JdKIaMc1ror4T7HT-38" value="" style="endArrow=none;html=1;rounded=0;fontSize=15;" parent="zmY5JdKIaMc1ror4T7HT-37" edge="1">
          <mxGeometry width="50" height="50" relative="1" as="geometry">
            <mxPoint x="5.00000000000001" y="-5" as="sourcePoint" />
            <mxPoint x="15.000000000000028" y="-5" as="targetPoint" />
          </mxGeometry>
        </mxCell>
        <mxCell id="zmY5JdKIaMc1ror4T7HT-39" value="" style="endArrow=none;html=1;rounded=0;fontSize=15;" parent="zmY5JdKIaMc1ror4T7HT-37" edge="1">
          <mxGeometry width="50" height="50" relative="1" as="geometry">
            <mxPoint x="5.00000000000001" y="5" as="sourcePoint" />
            <mxPoint x="15.000000000000028" y="5" as="targetPoint" />
          </mxGeometry>
        </mxCell>
        <mxCell id="zmY5JdKIaMc1ror4T7HT-40" value="" style="endArrow=none;html=1;rounded=0;fontSize=15;" parent="zmY5JdKIaMc1ror4T7HT-37" edge="1">
          <mxGeometry width="50" height="50" relative="1" as="geometry">
            <mxPoint x="5.00000000000001" y="15.000000000000002" as="sourcePoint" />
            <mxPoint x="15.000000000000028" y="15.000000000000002" as="targetPoint" />
          </mxGeometry>
        </mxCell>
        <mxCell id="zmY5JdKIaMc1ror4T7HT-41" value="" style="group;fontSize=15;" parent="1" vertex="1" connectable="0">
          <mxGeometry x="2689.99" y="280" width="20.03" height="40" as="geometry" />
        </mxCell>
        <mxCell id="zmY5JdKIaMc1ror4T7HT-42" value="" style="endArrow=none;html=1;rounded=0;edgeStyle=orthogonalEdgeStyle;curved=1;fontSize=15;" parent="zmY5JdKIaMc1ror4T7HT-41" edge="1">
          <mxGeometry width="50" height="50" relative="1" as="geometry">
            <mxPoint x="10.029999999999987" y="20" as="sourcePoint" />
            <mxPoint x="10.029999999999987" as="targetPoint" />
            <Array as="points">
              <mxPoint x="0.029999999999972757" y="20" />
              <mxPoint x="0.029999999999972757" y="10" />
              <mxPoint x="20.03" y="10" />
              <mxPoint x="20.03" />
            </Array>
          </mxGeometry>
        </mxCell>
        <mxCell id="zmY5JdKIaMc1ror4T7HT-43" value="" style="endArrow=none;html=1;rounded=0;edgeStyle=orthogonalEdgeStyle;curved=1;fontSize=15;" parent="zmY5JdKIaMc1ror4T7HT-41" edge="1">
          <mxGeometry width="50" height="50" relative="1" as="geometry">
            <mxPoint x="10.000000000000014" y="40" as="sourcePoint" />
            <mxPoint x="10.000000000000014" y="20" as="targetPoint" />
            <Array as="points">
              <mxPoint y="40" />
              <mxPoint y="30" />
              <mxPoint x="20.00000000000003" y="30" />
              <mxPoint x="20.00000000000003" y="20" />
            </Array>
          </mxGeometry>
        </mxCell>
        <mxCell id="zmY5JdKIaMc1ror4T7HT-44" value="" style="group;fontSize=15;" parent="1" vertex="1" connectable="0">
          <mxGeometry x="3129.99" y="280" width="20.03" height="40" as="geometry" />
        </mxCell>
        <mxCell id="zmY5JdKIaMc1ror4T7HT-45" value="" style="endArrow=none;html=1;rounded=0;edgeStyle=orthogonalEdgeStyle;curved=1;fontSize=15;" parent="zmY5JdKIaMc1ror4T7HT-44" edge="1">
          <mxGeometry width="50" height="50" relative="1" as="geometry">
            <mxPoint x="10.029999999999987" y="20" as="sourcePoint" />
            <mxPoint x="10.029999999999987" as="targetPoint" />
            <Array as="points">
              <mxPoint x="0.029999999999972757" y="20" />
              <mxPoint x="0.029999999999972757" y="10" />
              <mxPoint x="20.03" y="10" />
              <mxPoint x="20.03" />
            </Array>
          </mxGeometry>
        </mxCell>
        <mxCell id="zmY5JdKIaMc1ror4T7HT-46" value="" style="endArrow=none;html=1;rounded=0;edgeStyle=orthogonalEdgeStyle;curved=1;fontSize=15;" parent="zmY5JdKIaMc1ror4T7HT-44" edge="1">
          <mxGeometry width="50" height="50" relative="1" as="geometry">
            <mxPoint x="10.000000000000014" y="40" as="sourcePoint" />
            <mxPoint x="10.000000000000014" y="20" as="targetPoint" />
            <Array as="points">
              <mxPoint y="40" />
              <mxPoint y="30" />
              <mxPoint x="20.00000000000003" y="30" />
              <mxPoint x="20.00000000000003" y="20" />
            </Array>
          </mxGeometry>
        </mxCell>
        <mxCell id="zmY5JdKIaMc1ror4T7HT-48" value="" style="endArrow=none;html=1;rounded=0;dashed=1;exitX=0;exitY=0;exitDx=0;exitDy=0;" parent="1" source="zmY5JdKIaMc1ror4T7HT-47" edge="1">
          <mxGeometry width="50" height="50" relative="1" as="geometry">
            <mxPoint x="2720" y="270" as="sourcePoint" />
            <mxPoint x="2880" y="240" as="targetPoint" />
          </mxGeometry>
        </mxCell>
        <mxCell id="zmY5JdKIaMc1ror4T7HT-49" value="" style="endArrow=none;html=1;rounded=0;dashed=1;entryX=1;entryY=0;entryDx=0;entryDy=0;" parent="1" target="zmY5JdKIaMc1ror4T7HT-47" edge="1">
          <mxGeometry width="50" height="50" relative="1" as="geometry">
            <mxPoint x="2960" y="240" as="sourcePoint" />
            <mxPoint x="3120" y="270" as="targetPoint" />
          </mxGeometry>
        </mxCell>
        <mxCell id="zmY5JdKIaMc1ror4T7HT-83" style="edgeStyle=orthogonalEdgeStyle;rounded=0;orthogonalLoop=1;jettySize=auto;html=1;exitX=1;exitY=0.5;exitDx=0;exitDy=0;entryX=0;entryY=0.5;entryDx=0;entryDy=0;dashed=1;" parent="1" source="zmY5JdKIaMc1ror4T7HT-81" target="zmY5JdKIaMc1ror4T7HT-17" edge="1">
          <mxGeometry relative="1" as="geometry">
            <Array as="points">
              <mxPoint x="3060" y="870" />
              <mxPoint x="3060" y="980" />
            </Array>
          </mxGeometry>
        </mxCell>
        <mxCell id="zmY5JdKIaMc1ror4T7HT-81" value="Side- channel&lt;br&gt;e.g. cache" style="rounded=0;whiteSpace=wrap;html=1;fontSize=15;" parent="1" vertex="1">
          <mxGeometry x="2820" y="840" width="80" height="60" as="geometry" />
        </mxCell>
      </root>
    </mxGraphModel>
  </diagram>
</mxfile>
